<?xml version="1.0" encoding="UTF-8"?>
<svg width="320px" height="90px" viewBox="0 0 320 90" version="1.1" xmlns="http://www.w3.org/2000/svg" xmlns:xlink="http://www.w3.org/1999/xlink">
    <!-- Generator: Sketch 42 (36781) - http://www.bohemiancoding.com/sketch -->
    <title>scope:registry</title>
    <desc>Created with Sketch.</desc>
    <defs>
        <rect id="path-1" x="0" y="0" width="100" height="50"></rect>
        <mask id="mask-2" maskContentUnits="userSpaceOnUse" maskUnits="objectBoundingBox" x="0" y="0" width="100" height="50" fill="white">
            <use xlink:href="#path-1"></use>
        </mask>
        <rect id="path-3" x="0" y="0" width="100" height="50"></rect>
        <mask id="mask-4" maskContentUnits="userSpaceOnUse" maskUnits="objectBoundingBox" x="0" y="0" width="100" height="50" fill="white">
            <use xlink:href="#path-3"></use>
        </mask>
    </defs>
    <g id="Page-1" stroke="none" stroke-width="1" fill="none" fill-rule="evenodd">
        <g id="scope:registry">
            <g id="registry" transform="translate(200.000000, 20.000000)">
                <use id="Rectangle" stroke="#9E9E9E" mask="url(#mask-2)" stroke-width="2" xlink:href="#path-1"></use>
                <path d="M25.4521484,25.0244141 C25.1149072,24.8557934 24.7138695,24.7714844 24.2490234,24.7714844 C23.866209,24.7714844 23.5244156,24.8535148 23.2236328,25.0175781 C22.9228501,25.1816414 22.6676443,25.3969713 22.4580078,25.6635742 C22.2483713,25.9301771 22.0877284,26.2355126 21.9760742,26.5795898 C21.86442,26.9236671 21.8085938,27.277993 21.8085938,27.6425781 L21.8085938,29.7001953 L23.2509766,29.7001953 L23.2509766,30.5 L19.4296875,30.5 L19.4296875,29.7001953 L20.8720703,29.7001953 L20.8720703,24.9287109 L19.4296875,24.9287109 L19.4296875,24.1289062 L21.8085938,24.1289062 L21.8085938,25.7285156 C22.2369813,24.5618431 23.0504497,23.9785156 24.2490234,23.9785156 C24.5725928,23.9785156 24.8540027,23.9990232 25.0932617,24.0400391 C25.3325207,24.0810549 25.5546865,24.1539708 25.7597656,24.2587891 L25.4521484,25.0244141 Z M28.0087891,27.6425781 C28.0771488,28.3170607 28.3232401,28.8548157 28.7470703,29.2558594 C29.1709006,29.656903 29.7223273,29.8574219 30.4013672,29.8574219 C30.8798852,29.8574219 31.3059877,29.7594411 31.6796875,29.5634766 C32.0533873,29.367512 32.3336579,29.1236994 32.5205078,28.8320312 L33.1767578,29.2832031 C32.8577458,29.7298199 32.4772158,30.0704741 32.0351562,30.3051758 C31.5930967,30.5398775 31.0485058,30.6572266 30.4013672,30.6572266 C29.9091772,30.6572266 29.4580099,30.5751961 29.0478516,30.4111328 C28.6376933,30.2470695 28.2833674,30.0180679 27.9848633,29.7241211 C27.6863592,29.4301743 27.4550789,29.0804057 27.2910156,28.6748047 C27.1269523,28.2692037 27.0449219,27.8180363 27.0449219,27.3212891 C27.0449219,26.8382137 27.1189771,26.3927429 27.2670898,25.9848633 C27.4152026,25.5769836 27.6293931,25.2237971 27.909668,24.925293 C28.1899428,24.6267889 28.530597,24.3943693 28.9316406,24.2280273 C29.3326843,24.0616854 29.781573,23.9785156 30.2783203,23.9785156 C30.8206407,23.9785156 31.2945943,24.0696605 31.7001953,24.2519531 C32.1057963,24.4342457 32.4441718,24.6860335 32.715332,25.0073242 C32.9864922,25.3286149 33.1870111,25.7125629 33.3168945,26.1591797 C33.446778,26.6057965 33.5117188,27.1002577 33.5117188,27.6425781 L28.0087891,27.6425781 Z M32.5205078,26.8427734 C32.4156896,26.1455043 32.1627624,25.6259783 31.7617188,25.2841797 C31.3606751,24.9423811 30.8662139,24.7714844 30.2783203,24.7714844 C29.9775376,24.7714844 29.6995455,24.8204748 29.4443359,24.918457 C29.1891263,25.0164393 28.9635426,25.1565746 28.7675781,25.3388672 C28.5716136,25.5211598 28.4075527,25.7410469 28.2753906,25.9985352 C28.1432285,26.2560234 28.0589195,26.5374334 28.0224609,26.8427734 L32.5205078,26.8427734 Z M40.7509766,30.4316406 C40.7509766,30.8691428 40.675782,31.2587874 40.5253906,31.6005859 C40.3749992,31.9423845 40.1642266,32.2317696 39.8930664,32.46875 C39.6219062,32.7057304 39.302899,32.8868809 38.9360352,33.012207 C38.5691713,33.1375332 38.1601585,33.2001953 37.7089844,33.2001953 C37.0755177,33.2001953 36.5366233,33.0817069 36.0922852,32.8447266 C35.647947,32.6077462 35.263999,32.2659528 34.9404297,31.8193359 L35.5966797,31.3134766 C35.7926442,31.609702 36.0751935,31.8580719 36.4443359,32.0585938 C36.8134784,32.2591156 37.2350237,32.359375 37.7089844,32.359375 C38.356123,32.359375 38.8676739,32.1964535 39.2436523,31.8706055 C39.6196308,31.5447575 39.8076172,31.0742218 39.8076172,30.4589844 L39.8076172,29.7753906 C39.2516248,30.2675806 38.6181676,30.5136719 37.9072266,30.5136719 C36.9091747,30.5136719 36.1253284,30.228844 35.5556641,29.6591797 C34.9859998,29.0895154 34.7011719,28.3102263 34.7011719,27.3212891 C34.7011719,26.8382137 34.7752271,26.3927429 34.9233398,25.9848633 C35.0714526,25.5769836 35.2833645,25.2237971 35.559082,24.925293 C35.8347996,24.6267889 36.1708965,24.3943693 36.5673828,24.2280273 C36.9638692,24.0616854 37.4104793,23.9785156 37.9072266,23.9785156 C38.2535825,23.9785156 38.5896794,24.0388991 38.9155273,24.159668 C39.2413753,24.2804368 39.5387356,24.4615873 39.8076172,24.703125 L39.8076172,24.1289062 L40.7509766,24.1289062 L40.7509766,30.4316406 Z M39.8076172,25.6123047 C39.5387356,25.3160792 39.243654,25.1018887 38.9223633,24.9697266 C38.6010726,24.8375644 38.2626971,24.7714844 37.9072266,24.7714844 C37.5335268,24.7714844 37.2042657,24.8375644 36.9194336,24.9697266 C36.6346014,25.1018887 36.398764,25.2818999 36.2119141,25.5097656 C36.0250642,25.7376313 35.8826502,26.0076482 35.784668,26.3198242 C35.6866857,26.6320003 35.6376953,26.9658185 35.6376953,27.3212891 C35.6376953,28.0504594 35.826821,28.6315083 36.2050781,29.0644531 C36.5833352,29.497398 37.1507124,29.7138672 37.9072266,29.7138672 C38.2626971,29.7138672 38.6010726,29.6466478 38.9223633,29.512207 C39.243654,29.3777663 39.5387356,29.1601578 39.8076172,28.859375 L39.8076172,25.6123047 Z M46.1787109,22.8574219 L44.9072266,22.8574219 L44.9072266,21.5791016 L46.1787109,21.5791016 L46.1787109,22.8574219 Z M47.4501953,30.5 L43.6289062,30.5 L43.6289062,29.7001953 L45.0712891,29.7001953 L45.0712891,24.9287109 L43.6289062,24.9287109 L43.6289062,24.1289062 L46.0146484,24.1289062 L46.0146484,29.7001953 L47.4501953,29.7001953 L47.4501953,30.5 Z M56.2001953,28.7363281 C56.2001953,29.1100279 56.1067718,29.4199206 55.9199219,29.6660156 C55.733072,29.9121106 55.4926773,30.1080722 55.1987305,30.2539062 C54.9047837,30.3997403 54.576662,30.5034177 54.2143555,30.5649414 C53.852049,30.6264652 53.4977231,30.6572266 53.1513672,30.6572266 C52.5725883,30.6572266 51.9960966,30.5729175 51.421875,30.4042969 C50.8476534,30.2356762 50.3509136,30.0146498 49.9316406,29.7412109 L50.3486328,28.9345703 C50.8180362,29.2307958 51.2805967,29.4586581 51.7363281,29.6181641 C52.1920596,29.7776701 52.6637345,29.8574219 53.1513672,29.8574219 C54.5595774,29.8574219 55.2636719,29.4928422 55.2636719,28.7636719 C55.2636719,28.5859366 55.205567,28.441244 55.0893555,28.3295898 C54.973144,28.2179356 54.8170583,28.1267907 54.6210937,28.0561523 C54.4251292,27.985514 54.2006849,27.9296877 53.9477539,27.8886719 C53.694823,27.847656 53.4293634,27.8089195 53.1513672,27.7724609 C52.7958967,27.7223305 52.4427101,27.6630863 52.0917969,27.5947266 C51.7408837,27.5263668 51.4207371,27.4238288 51.1313477,27.2871094 C50.8419582,27.1503899 50.6095386,26.9681001 50.434082,26.7402344 C50.2586254,26.5123687 50.1708984,26.2115904 50.1708984,25.8378906 C50.1708984,25.5188786 50.2517896,25.2431652 50.4135742,25.0107422 C50.5753589,24.7783192 50.7918281,24.5846362 51.0629883,24.4296875 C51.3341485,24.2747388 51.6520164,24.1608077 52.0166016,24.0878906 C52.3811867,24.0149736 52.7594381,23.9785156 53.1513672,23.9785156 C53.7119169,23.9785156 54.2132139,24.0434564 54.6552734,24.1733398 C55.0973329,24.3032233 55.496092,24.4889311 55.8515625,24.7304688 L55.4755859,25.4619141 C55.1110008,25.2067045 54.7418638,25.0278325 54.3681641,24.925293 C53.9944643,24.8227534 53.5888694,24.7714844 53.1513672,24.7714844 C52.9554027,24.7714844 52.7377942,24.788574 52.4985352,24.8227539 C52.2592761,24.8569338 52.0371104,24.916178 51.8320312,25.0004883 C51.6269521,25.0847986 51.4549161,25.1941725 51.315918,25.3286133 C51.1769199,25.4630541 51.1074219,25.6328115 51.1074219,25.8378906 C51.1074219,26.0156259 51.1655268,26.1580398 51.2817383,26.2651367 C51.3979498,26.3722336 51.5540355,26.4610999 51.75,26.5317383 C51.9459645,26.6023767 52.1704089,26.6582029 52.4233398,26.6992188 C52.6762708,26.7402346 52.9417304,26.7789712 53.2197266,26.8154297 C53.5660825,26.8655601 53.9158511,26.9248043 54.269043,26.9931641 C54.6222348,27.0615238 54.9435207,27.1617832 55.2329102,27.2939453 C55.5222996,27.4261074 55.7558585,27.6061187 55.9335937,27.8339844 C56.111329,28.0618501 56.2001953,28.3626283 56.2001953,28.7363281 Z M64.0820312,28.4697266 C64.0091142,29.1396518 63.7459333,29.6717103 63.2924805,30.065918 C62.8390277,30.4601257 62.2727899,30.6572266 61.59375,30.6572266 C61.2200502,30.6572266 60.8782568,30.5957037 60.5683594,30.4726562 C60.258462,30.3496088 59.9941417,30.178712 59.7753906,29.9599609 C59.5566395,29.7412098 59.3868821,29.4780289 59.2661133,29.1704102 C59.1453444,28.8627914 59.0849609,28.5266945 59.0849609,28.1621094 L59.0849609,24.9287109 L57.6425781,24.9287109 L57.6425781,24.1289062 L59.0849609,24.1289062 L59.0849609,21.5791016 L60.0214844,21.5791016 L60.0214844,24.1289062 L62.7353516,24.1289062 L62.7353516,24.9287109 L60.0214844,24.9287109 L60.0214844,28.1621094 C60.0214844,28.3945324 60.0590817,28.6132802 60.1342773,28.8183594 C60.209473,29.0234385 60.3142897,29.2034497 60.4487305,29.3583984 C60.5831712,29.5133471 60.7460928,29.6352535 60.9375,29.7241211 C61.1289072,29.8129887 61.347655,29.8574219 61.59375,29.8574219 C62.0585961,29.8574219 62.4471013,29.7127293 62.7592773,29.4233398 C63.0714534,29.1339504 63.2503253,28.7591169 63.2958984,28.2988281 L64.0820312,28.4697266 Z M71.3076172,25.0244141 C70.9703759,24.8557934 70.5693383,24.7714844 70.1044922,24.7714844 C69.7216778,24.7714844 69.3798843,24.8535148 69.0791016,25.0175781 C68.7783188,25.1816414 68.523113,25.3969713 68.3134766,25.6635742 C68.1038401,25.9301771 67.9431972,26.2355126 67.831543,26.5795898 C67.7198888,26.9236671 67.6640625,27.277993 67.6640625,27.6425781 L67.6640625,29.7001953 L69.1064453,29.7001953 L69.1064453,30.5 L65.2851562,30.5 L65.2851562,29.7001953 L66.7275391,29.7001953 L66.7275391,24.9287109 L65.2851562,24.9287109 L65.2851562,24.1289062 L67.6640625,24.1289062 L67.6640625,25.7285156 C68.0924501,24.5618431 68.9059185,23.9785156 70.1044922,23.9785156 C70.4280615,23.9785156 70.7094715,23.9990232 70.9487305,24.0400391 C71.1879895,24.0810549 71.4101552,24.1539708 71.6152344,24.2587891 L71.3076172,25.0244141 Z M79.4970703,24.1289062 L76.0517578,32.1132812 C75.8740225,32.5598981 75.623374,32.8527011 75.2998047,32.9916992 C74.9762354,33.1306973 74.6184915,33.2001953 74.2265625,33.2001953 C73.7890603,33.2001953 73.3515647,33.1204435 72.9140625,32.9609375 L73.0986328,32.1542969 C73.3128266,32.2454432 73.5224599,32.3103839 73.7275391,32.3491211 C73.9326182,32.3878583 74.0989577,32.4072266 74.2265625,32.4072266 C74.5364599,32.4072266 74.7495111,32.332032 74.8657227,32.1816406 C74.9819342,32.0312492 75.0833329,31.8535167 75.1699219,31.6484375 L75.5595703,30.6845703 L72.7158203,24.1289062 L73.8232422,24.1289062 L76.1201172,29.7001953 L78.3759766,24.1289062 L79.4970703,24.1289062 Z" fill="#212121"></path>
            </g>
            <g id="scope" transform="translate(20.000000, 20.000000)">
                <use id="Rectangle" stroke="#9E9E9E" mask="url(#mask-4)" stroke-width="2" xlink:href="#path-3"></use>
                <path d="M37.09375,28.7363281 C37.09375,29.1100279 37.0003265,29.4199206 36.8134766,29.6660156 C36.6266267,29.9121106 36.3862319,30.1080722 36.0922852,30.2539062 C35.7983384,30.3997403 35.4702167,30.5034177 35.1079102,30.5649414 C34.7456037,30.6264652 34.3912778,30.6572266 34.0449219,30.6572266 C33.4661429,30.6572266 32.8896513,30.5729175 32.3154297,30.4042969 C31.7412081,30.2356762 31.2444682,30.0146498 30.8251953,29.7412109 L31.2421875,28.9345703 C31.7115909,29.2307958 32.1741514,29.4586581 32.6298828,29.6181641 C33.0856143,29.7776701 33.5572892,29.8574219 34.0449219,29.8574219 C35.453132,29.8574219 36.1572266,29.4928422 36.1572266,28.7636719 C36.1572266,28.5859366 36.0991217,28.441244 35.9829102,28.3295898 C35.8666986,28.2179356 35.710613,28.1267907 35.5146484,28.0561523 C35.3186839,27.985514 35.0942395,27.9296877 34.8413086,27.8886719 C34.5883776,27.847656 34.3229181,27.8089195 34.0449219,27.7724609 C33.6894513,27.7223305 33.3362648,27.6630863 32.9853516,27.5947266 C32.6344383,27.5263668 32.3142918,27.4238288 32.0249023,27.2871094 C31.7355129,27.1503899 31.5030933,26.9681001 31.3276367,26.7402344 C31.1521801,26.5123687 31.0644531,26.2115904 31.0644531,25.8378906 C31.0644531,25.5188786 31.1453442,25.2431652 31.3071289,25.0107422 C31.4689136,24.7783192 31.6853828,24.5846362 31.956543,24.4296875 C32.2277032,24.2747388 32.5455711,24.1608077 32.9101562,24.0878906 C33.2747414,24.0149736 33.6529928,23.9785156 34.0449219,23.9785156 C34.6054716,23.9785156 35.1067686,24.0434564 35.5488281,24.1733398 C35.9908876,24.3032233 36.3896467,24.4889311 36.7451172,24.7304688 L36.3691406,25.4619141 C36.0045555,25.2067045 35.6354185,25.0278325 35.2617188,24.925293 C34.888019,24.8227534 34.4824241,24.7714844 34.0449219,24.7714844 C33.8489574,24.7714844 33.6313489,24.788574 33.3920898,24.8227539 C33.1528308,24.8569338 32.9306651,24.916178 32.7255859,25.0004883 C32.5205068,25.0847986 32.3484707,25.1941725 32.2094727,25.3286133 C32.0704746,25.4630541 32.0009766,25.6328115 32.0009766,25.8378906 C32.0009766,26.0156259 32.0590815,26.1580398 32.175293,26.2651367 C32.2915045,26.3722336 32.4475902,26.4610999 32.6435547,26.5317383 C32.8395192,26.6023767 33.0639636,26.6582029 33.3168945,26.6992188 C33.5698255,26.7402346 33.8352851,26.7789712 34.1132812,26.8154297 C34.4596371,26.8655601 34.8094058,26.9248043 35.1625977,26.9931641 C35.5157895,27.0615238 35.8370754,27.1617832 36.1264648,27.2939453 C36.4158543,27.4261074 36.6494132,27.6061187 36.8271484,27.8339844 C37.0048837,28.0618501 37.09375,28.3626283 37.09375,28.7363281 Z M44.6679688,29.2832031 C44.3990872,29.7024761 44.0310896,30.0362943 43.5639648,30.284668 C43.0968401,30.5330416 42.5419954,30.6572266 41.8994141,30.6572266 C41.4026668,30.6572266 40.9469422,30.5751961 40.5322266,30.4111328 C40.1175109,30.2470695 39.7631851,30.0180679 39.4692383,29.7241211 C39.1752915,29.4301743 38.9462899,29.0804057 38.7822266,28.6748047 C38.6181632,28.2692037 38.5361328,27.8180363 38.5361328,27.3212891 C38.5361328,26.8382137 38.6113274,26.3904643 38.7617188,25.9780273 C38.9121101,25.5655904 39.1263007,25.2124038 39.4042969,24.918457 C39.6822931,24.6245102 40.0229472,24.3943693 40.4262695,24.2280273 C40.8295919,24.0616854 41.2773413,23.9785156 41.7695312,23.9785156 C41.9654958,23.9785156 42.1660146,24.0013019 42.3710938,24.046875 C42.5761729,24.0924481 42.7698559,24.1619461 42.9521484,24.2553711 C43.134441,24.348796 43.2985019,24.4604486 43.4443359,24.590332 C43.59017,24.7202155 43.6995439,24.8740225 43.7724609,25.0517578 L43.7724609,24.1289062 L44.6132812,24.1289062 L44.6132812,26.6787109 L43.7724609,26.6787109 C43.7724609,26.3961574 43.7211919,26.138673 43.6186523,25.90625 C43.5161128,25.673827 43.3759775,25.4733081 43.1982422,25.3046875 C43.0205069,25.1360669 42.808595,25.005046 42.5625,24.9116211 C42.316405,24.8181961 42.0520847,24.7714844 41.7695312,24.7714844 C41.3867168,24.7714844 41.0528986,24.8375644 40.7680664,24.9697266 C40.4832343,25.1018887 40.2451181,25.2818999 40.0537109,25.5097656 C39.8623037,25.7376313 39.7176112,26.0053696 39.6196289,26.3129883 C39.5216466,26.620607 39.4726562,26.9567039 39.4726562,27.3212891 C39.4726562,27.6858742 39.5284825,28.0219711 39.6401367,28.3295898 C39.7517909,28.6372086 39.9135732,28.9026682 40.1254883,29.1259766 C40.3374034,29.349285 40.5926092,29.5270176 40.8911133,29.6591797 C41.1896174,29.7913418 41.5257143,29.8574219 41.8994141,29.8574219 C42.3733748,29.8574219 42.79492,29.7639983 43.1640625,29.5771484 C43.533205,29.3902985 43.8157542,29.1419286 44.0117188,28.8320312 L44.6679688,29.2832031 Z M52.7138672,27.3349609 C52.7138672,27.8317082 52.6352547,28.2828756 52.4780273,28.6884766 C52.3208,29.0940775 52.0952163,29.4415676 51.8012695,29.730957 C51.5073227,30.0203465 51.1552755,30.2470695 50.7451172,30.4111328 C50.3349589,30.5751961 49.8769557,30.6572266 49.3710938,30.6572266 C48.8743465,30.6572266 48.4209005,30.5751961 48.0107422,30.4111328 C47.6005839,30.2470695 47.2485366,30.0203465 46.9545898,29.730957 C46.6606431,29.4415676 46.4350594,29.0940775 46.277832,28.6884766 C46.1206047,28.2828756 46.0419922,27.8317082 46.0419922,27.3349609 C46.0419922,26.8518856 46.1206047,26.4018576 46.277832,25.9848633 C46.4350594,25.567869 46.6606431,25.2124038 46.9545898,24.918457 C47.2485366,24.6245102 47.6005839,24.3943693 48.0107422,24.2280273 C48.4209005,24.0616854 48.8743465,23.9785156 49.3710938,23.9785156 C49.8769557,23.9785156 50.3349589,24.0616854 50.7451172,24.2280273 C51.1552755,24.3943693 51.5073227,24.6245102 51.8012695,24.918457 C52.0952163,25.2124038 52.3208,25.567869 52.4780273,25.9848633 C52.6352547,26.4018576 52.7138672,26.8518856 52.7138672,27.3349609 Z M51.7773438,27.3349609 C51.7773438,26.9703758 51.7237961,26.6342789 51.6166992,26.3266602 C51.5096023,26.0190414 51.351238,25.7490246 51.1416016,25.5166016 C50.9319651,25.2841785 50.6778986,25.1018887 50.3793945,24.9697266 C50.0808904,24.8375644 49.7447935,24.7714844 49.3710938,24.7714844 C48.997394,24.7714844 48.6612971,24.8375644 48.362793,24.9697266 C48.0642889,25.1018887 47.812501,25.2841785 47.6074219,25.5166016 C47.4023427,25.7490246 47.246257,26.0190414 47.1391602,26.3266602 C47.0320633,26.6342789 46.9785156,26.9703758 46.9785156,27.3349609 C46.9785156,27.6995461 47.0320633,28.035643 47.1391602,28.3432617 C47.246257,28.6508804 47.4023427,28.91634 47.6074219,29.1396484 C47.812501,29.3629568 48.0642889,29.5384108 48.362793,29.6660156 C48.6612971,29.7936204 48.997394,29.8574219 49.3710938,29.8574219 C49.7447935,29.8574219 50.0808904,29.7936204 50.3793945,29.6660156 C50.6778986,29.5384108 50.9319651,29.3629568 51.1416016,29.1396484 C51.351238,28.91634 51.5096023,28.6508804 51.6166992,28.3432617 C51.7237961,28.035643 51.7773438,27.6995461 51.7773438,27.3349609 Z M60.1923828,27.3212891 C60.1923828,27.8180363 60.1149096,28.2692037 59.9599609,28.6748047 C59.8050122,29.0804057 59.5874037,29.4301743 59.3071289,29.7241211 C59.0268541,30.0180679 58.6884785,30.2470695 58.2919922,30.4111328 C57.8955058,30.5751961 57.4511743,30.6572266 56.9589844,30.6572266 C56.6217431,30.6572266 56.2947607,30.5957037 55.9780273,30.4726562 C55.661294,30.3496088 55.3662123,30.1673189 55.0927734,29.9257812 L55.0927734,33.0498047 L54.15625,33.0498047 L54.15625,24.1289062 L55.0927734,24.1289062 L55.0927734,24.7167969 C55.6715524,24.2246069 56.2936165,23.9785156 56.9589844,23.9785156 C57.4511743,23.9785156 57.8955058,24.0594067 58.2919922,24.2211914 C58.6884785,24.3829761 59.0268541,24.613117 59.3071289,24.9116211 C59.5874037,25.2101252 59.8050122,25.5655904 59.9599609,25.9780273 C60.1149096,26.3904643 60.1923828,26.8382137 60.1923828,27.3212891 Z M59.2558594,27.3212891 C59.2558594,26.9658185 59.206869,26.6320003 59.1088867,26.3198242 C59.0109045,26.0076482 58.8639333,25.7376313 58.6679688,25.5097656 C58.4720042,25.2818999 58.2316095,25.1018887 57.9467773,24.9697266 C57.6619452,24.8375644 57.3326842,24.7714844 56.9589844,24.7714844 C56.6035138,24.7714844 56.2719742,24.8375644 55.9643555,24.9697266 C55.6567367,25.1018887 55.3662123,25.3160792 55.0927734,25.6123047 L55.0927734,29.0302734 C55.3662123,29.3264989 55.6567367,29.5384108 55.9643555,29.6660156 C56.2719742,29.7936204 56.6035138,29.8574219 56.9589844,29.8574219 C57.3326842,29.8574219 57.6619452,29.7913418 57.9467773,29.6591797 C58.2316095,29.5270176 58.4720042,29.3470063 58.6679688,29.1191406 C58.8639333,28.8912749 59.0109045,28.6235367 59.1088867,28.315918 C59.206869,28.0082992 59.2558594,27.6767596 59.2558594,27.3212891 Z M62.4003906,27.6425781 C62.4687503,28.3170607 62.7148416,28.8548157 63.1386719,29.2558594 C63.5625021,29.656903 64.1139289,29.8574219 64.7929688,29.8574219 C65.2714868,29.8574219 65.6975893,29.7594411 66.0712891,29.5634766 C66.4449888,29.367512 66.7252595,29.1236994 66.9121094,28.8320312 L67.5683594,29.2832031 C67.2493474,29.7298199 66.8688173,30.0704741 66.4267578,30.3051758 C65.9846983,30.5398775 65.4401074,30.6572266 64.7929688,30.6572266 C64.3007788,30.6572266 63.8496114,30.5751961 63.4394531,30.4111328 C63.0292948,30.2470695 62.6749689,30.0180679 62.3764648,29.7241211 C62.0779607,29.4301743 61.8466805,29.0804057 61.6826172,28.6748047 C61.5185539,28.2692037 61.4365234,27.8180363 61.4365234,27.3212891 C61.4365234,26.8382137 61.5105787,26.3927429 61.6586914,25.9848633 C61.8068041,25.5769836 62.0209947,25.2237971 62.3012695,24.925293 C62.5815444,24.6267889 62.9221985,24.3943693 63.3232422,24.2280273 C63.7242859,24.0616854 64.1731746,23.9785156 64.6699219,23.9785156 C65.2122423,23.9785156 65.6861959,24.0696605 66.0917969,24.2519531 C66.4973979,24.4342457 66.8357734,24.6860335 67.1069336,25.0073242 C67.3780938,25.3286149 67.5786126,25.7125629 67.7084961,26.1591797 C67.8383796,26.6057965 67.9033203,27.1002577 67.9033203,27.6425781 L62.4003906,27.6425781 Z M66.9121094,26.8427734 C66.8072911,26.1455043 66.554364,25.6259783 66.1533203,25.2841797 C65.7522766,24.9423811 65.2578154,24.7714844 64.6699219,24.7714844 C64.3691391,24.7714844 64.0911471,24.8204748 63.8359375,24.918457 C63.5807279,25.0164393 63.3551442,25.1565746 63.1591797,25.3388672 C62.9632152,25.5211598 62.7991543,25.7410469 62.6669922,25.9985352 C62.5348301,26.2560234 62.450521,26.5374334 62.4140625,26.8427734 L66.9121094,26.8427734 Z" fill="#212121"></path>
            </g>
            <g id="connector" transform="translate(119.000000, 30.000000)" stroke="#979797">
                <path d="M1,15 L81.5,15" id="Line" stroke-linecap="square"></path>
                <path d="M0.5,29.5 C8.50812887,29.5 15,23.0081289 15,15 C15,6.99187113 8.50812887,0.5 0.5,0.5 L0.5,29.5 Z" id="Oval"></path>
            </g>
        </g>
    </g>
</svg>