<?xml version="1.0" encoding="UTF-8"?>
<svg width="888px" height="146px" viewBox="0 0 888 146" version="1.1" xmlns="http://www.w3.org/2000/svg" xmlns:xlink="http://www.w3.org/1999/xlink">
    <!-- Generator: Sketch 41 (35326) - http://www.bohemiancoding.com/sketch -->
    <title>CMD-build-workflow</title>
    <desc>Created with Sketch.</desc>
    <defs>
        <rect id="path-1" x="0" y="0" width="120" height="60"></rect>
        <mask id="mask-2" maskContentUnits="userSpaceOnUse" maskUnits="objectBoundingBox" x="-1" y="-1" width="122" height="62">
            <rect x="-1" y="-1" width="122" height="62" fill="white"></rect>
            <use xlink:href="#path-1" fill="black"></use>
        </mask>
        <rect id="path-3" x="0" y="0" width="120" height="60"></rect>
        <mask id="mask-4" maskContentUnits="userSpaceOnUse" maskUnits="objectBoundingBox" x="-1" y="-1" width="122" height="62">
            <rect x="-1" y="-1" width="122" height="62" fill="white"></rect>
            <use xlink:href="#path-3" fill="black"></use>
        </mask>
        <rect id="path-5" x="0" y="0" width="120" height="60"></rect>
        <mask id="mask-6" maskContentUnits="userSpaceOnUse" maskUnits="objectBoundingBox" x="-1" y="-1" width="122" height="62">
            <rect x="-1" y="-1" width="122" height="62" fill="white"></rect>
            <use xlink:href="#path-5" fill="black"></use>
        </mask>
    </defs>
    <g id="Page-1" stroke="none" stroke-width="1" fill="none" fill-rule="evenodd">
        <g id="CMD-build-workflow">
            <g id="Group-5" transform="translate(193.000000, 33.000000)">
                <g id="Group-3" transform="translate(383.000000, 0.000000)">
                    <use id="Rectangle" stroke="#9E9E9E" mask="url(#mask-2)" stroke-width="2" xlink:href="#path-1"></use>
                    <path d="M49.724,29.036 L49.724,29.778 L53.686,29.778 L53.686,34.972 L48.968,34.972 L48.968,35.714 L59.328,35.714 L59.328,34.972 L54.442,34.972 L54.442,29.778 L58.544,29.778 L58.544,29.036 L54.442,29.036 L54.442,26.026 L53.686,26.026 L53.686,29.036 L49.724,29.036 Z M56.304,30.73 L55.702,31.094 C56.556,32.228 57.228,33.264 57.718,34.202 L58.32,33.768 C57.844,32.9 57.172,31.878 56.304,30.73 Z M58.978,24.262 L47.904,24.262 L47.904,28.602 C47.848,31.71 47.386,34.146 46.518,35.896 L47.106,36.414 C48.086,34.454 48.604,31.85 48.66,28.602 L48.66,24.99 L58.978,24.99 L58.978,24.262 Z M73.076,24.78 L69.632,24.78 C69.478,24.304 69.324,23.884 69.156,23.506 L68.358,23.646 C68.54,23.982 68.708,24.36 68.848,24.78 L65.278,24.78 L65.278,26.768 L65.992,26.768 L65.992,25.452 L72.362,25.452 L72.362,26.628 L73.076,26.628 L73.076,24.78 Z M66.23,29.75 L66.23,36.246 L66.93,36.246 L66.93,28.476 C67.21,27.888 67.448,27.272 67.644,26.628 L67.014,26.32 C66.566,27.902 65.824,29.316 64.802,30.562 L65.026,31.346 C65.46,30.842 65.866,30.31 66.23,29.75 Z M68.134,27.076 L68.134,27.762 L70.192,27.762 L69.884,29.26 L68.344,29.26 L68.344,36.232 L69.03,36.232 L69.03,35.574 L71.984,35.574 L71.984,36.232 L72.67,36.232 L72.67,29.26 L70.57,29.26 L70.878,27.762 L72.908,27.762 L72.908,27.076 L68.134,27.076 Z M69.03,34.93 L69.03,32.662 L71.984,32.662 L71.984,34.93 L69.03,34.93 Z M69.03,32.018 L69.03,29.918 L71.984,29.918 L71.984,32.018 L69.03,32.018 Z M65.054,33.824 C63.85,34.328 62.45,34.748 60.854,35.07 L60.952,35.812 C62.478,35.49 63.85,35.07 65.054,34.552 L65.054,33.824 Z M62.982,23.576 C62.436,25.326 61.792,26.852 61.05,28.154 C60.952,28.294 60.84,28.392 60.714,28.448 L60.924,29.162 C61.694,29.05 62.478,28.91 63.276,28.756 C62.492,30.268 61.82,31.346 61.26,31.976 C61.162,32.074 61.05,32.158 60.91,32.214 L61.12,32.914 C62.268,32.732 63.444,32.41 64.662,31.934 L64.662,31.234 C63.794,31.584 62.912,31.864 62.016,32.074 C62.8,31.066 63.794,29.302 65.012,26.782 L64.354,26.544 C64.102,27.062 63.864,27.552 63.64,28.028 C62.968,28.182 62.296,28.308 61.624,28.392 C62.324,27.314 63.01,25.802 63.696,23.87 L62.982,23.576 Z" id="压缩" fill="#212121"></path>
                </g>
                <g id="Group" transform="translate(3.000000, 0.000000)">
                    <use id="Rectangle" stroke="#9E9E9E" mask="url(#mask-4)" stroke-width="2" xlink:href="#path-3"></use>
                    <path d="M48.31,36.232 C49.01,36.232 49.374,35.868 49.374,35.168 L49.374,30.898 C49.822,30.702 50.256,30.478 50.704,30.254 L50.704,29.484 C50.27,29.722 49.822,29.946 49.374,30.156 L49.374,27.104 L50.886,27.104 L50.886,26.362 L49.374,26.362 L49.374,23.646 L48.618,23.646 L48.618,26.362 L46.826,26.362 L46.826,27.104 L48.618,27.104 L48.618,30.478 C47.988,30.716 47.33,30.926 46.658,31.094 L46.854,31.85 C47.456,31.668 48.044,31.458 48.618,31.22 L48.618,34.986 C48.618,35.364 48.422,35.56 48.044,35.56 C47.68,35.56 47.288,35.532 46.882,35.504 L47.05,36.232 L48.31,36.232 Z M52.076,24.122 L52.076,28.84 L58.068,28.84 L58.068,24.122 L52.076,24.122 Z M57.312,28.196 L52.818,28.196 L52.818,26.81 L57.312,26.81 L57.312,28.196 Z M52.818,26.194 L52.818,24.766 L57.312,24.766 L57.312,26.194 L52.818,26.194 Z M51.054,29.988 L51.054,30.688 L54.694,30.688 L54.694,35.098 C54.512,35.042 54.358,34.986 54.218,34.93 C53.602,34.636 53.042,33.964 52.566,32.914 C52.678,32.452 52.748,31.976 52.776,31.472 L52.09,31.388 C51.992,33.04 51.39,34.524 50.27,35.84 L50.83,36.344 C51.502,35.546 52.006,34.664 52.342,33.712 C52.79,34.608 53.294,35.224 53.854,35.532 C54.512,35.882 55.772,36.064 57.62,36.064 C58.082,36.078 58.6,36.092 59.16,36.092 L59.37,35.336 C58.88,35.364 58.278,35.392 57.564,35.392 C56.724,35.392 56.024,35.336 55.436,35.252 L55.436,33.18 L58.474,33.18 L58.474,32.494 L55.436,32.494 L55.436,30.688 L59.02,30.688 L59.02,29.988 L51.054,29.988 Z M67.616,32.69 L66.272,33.026 L66.272,24.934 L67.42,24.934 L67.42,24.22 L60.826,24.22 L60.826,24.934 L62.002,24.934 L62.002,33.866 C61.568,33.922 61.12,33.992 60.672,34.048 L60.868,34.804 C62.492,34.552 64.032,34.272 65.516,33.95 L65.516,36.386 L66.272,36.386 L66.272,33.782 L67.616,33.446 L67.616,32.69 Z M65.516,33.208 C64.62,33.404 63.71,33.586 62.758,33.74 L62.758,31.094 L65.516,31.094 L65.516,33.208 Z M62.758,30.394 L62.758,28.042 L65.516,28.042 L65.516,30.394 L62.758,30.394 Z M62.758,27.342 L62.758,24.934 L65.516,24.934 L65.516,27.342 L62.758,27.342 Z M72.082,25.69 C71.802,27.958 71.242,29.946 70.388,31.654 C69.492,29.862 68.946,27.874 68.764,25.69 L72.082,25.69 Z M69.996,32.368 C69.226,33.684 68.26,34.804 67.084,35.742 L67.574,36.33 C68.68,35.462 69.632,34.384 70.416,33.11 C71.088,34.258 71.914,35.336 72.908,36.344 L73.412,35.756 C72.376,34.748 71.508,33.642 70.808,32.424 C71.816,30.562 72.474,28.308 72.782,25.662 L72.782,24.962 L67.504,24.962 L67.504,25.69 L68.078,25.69 C68.274,28.112 68.918,30.338 69.996,32.368 Z" id="提取" fill="#212121"></path>
                </g>
                <g id="Group-2" transform="translate(193.000000, 0.000000)">
                    <use id="Rectangle" stroke="#9E9E9E" mask="url(#mask-6)" stroke-width="2" xlink:href="#path-5"></use>
                    <path d="M52.72,23.604 C51.054,25.592 48.968,27.258 46.462,28.602 L46.854,29.316 C49.402,27.902 51.46,26.222 53,24.29 C54.68,26.348 56.71,28.014 59.09,29.288 L59.496,28.588 C57.144,27.37 55.072,25.704 53.28,23.604 L52.72,23.604 Z M57.326,30.842 L48.674,30.842 L48.674,36.344 L49.416,36.344 L49.416,35.434 L56.584,35.434 L56.584,36.344 L57.326,36.344 L57.326,30.842 Z M49.416,34.706 L49.416,31.57 L56.584,31.57 L56.584,34.706 L49.416,34.706 Z M49.388,28.112 L49.388,28.854 L56.612,28.854 L56.612,28.112 L49.388,28.112 Z M64.088,23.45 L63.402,23.786 C63.892,24.486 64.354,25.27 64.802,26.152 L65.488,25.816 C65.068,24.962 64.592,24.178 64.088,23.45 Z M69.058,27.062 L69.058,30.576 L65.068,30.576 C65.138,29.932 65.18,29.232 65.194,28.476 L65.194,27.062 L69.058,27.062 Z M69.058,31.318 L69.058,36.302 L69.814,36.302 L69.814,31.318 L73.216,31.318 L73.216,30.576 L69.814,30.576 L69.814,27.062 L72.67,27.062 L72.67,26.32 L69.338,26.32 C69.856,25.578 70.332,24.71 70.752,23.73 L69.94,23.45 C69.534,24.472 69.044,25.424 68.47,26.32 L61.372,26.32 L61.372,27.062 L64.438,27.062 L64.438,28.476 C64.424,29.218 64.382,29.918 64.298,30.576 L60.798,30.576 L60.798,31.318 L64.172,31.318 C64.046,31.934 63.878,32.508 63.654,33.012 C63.122,34.16 62.198,35.056 60.91,35.7 L61.358,36.4 C62.702,35.714 63.668,34.776 64.256,33.6 C64.564,32.942 64.788,32.186 64.956,31.318 L69.058,31.318 Z" id="合并" fill="#212121"></path>
                </g>
                <path d="M5.44160303,77.5881786 C5.44160303,77.9631947 5.3771481,78.2971884 5.24823632,78.5901697 C5.11932453,78.883151 4.93865542,79.1312049 4.70622356,79.3343386 C4.4737917,79.5374723 4.20034656,79.6927501 3.88587993,79.8001766 C3.5714133,79.9076031 3.22081757,79.9613155 2.83408221,79.9613155 C2.29109014,79.9613155 1.82916317,79.8597502 1.44828744,79.6566164 C1.0674117,79.4534827 0.738300944,79.1605058 0.460945282,78.7776768 L1.02346663,78.3440666 C1.19144259,78.5979838 1.43363686,78.8108804 1.7500567,78.9827627 C2.06647654,79.1546451 2.42781476,79.240585 2.83408221,79.240585 C3.38879353,79.240585 3.82728235,79.1009327 4.14956181,78.8216238 C4.47184128,78.5423149 4.63297859,78.1389834 4.63297859,77.611617 L4.63297859,77.0256572 C4.15639563,77.4475503 3.6134117,77.6584937 3.00401053,77.6584937 C2.14850504,77.6584937 1.47661126,77.4143463 0.988309044,76.9260441 C0.500006823,76.4377418 0.255859375,75.7697544 0.255859375,74.9220618 C0.255859375,74.5079815 0.319337711,74.1261349 0.446296289,73.7765105 C0.573254866,73.4268861 0.754900568,73.1241433 0.991238842,72.8682729 C1.22757712,72.6124025 1.51567111,72.4131782 1.85552945,72.270594 C2.1953878,72.1280097 2.578211,72.0567187 3.00401053,72.0567187 C3.30089828,72.0567187 3.58899227,72.1084779 3.86830114,72.211998 C4.14761001,72.3155181 4.40249995,72.4707958 4.63297859,72.677836 L4.63297859,72.1856298 L5.44160303,72.1856298 L5.44160303,77.5881786 Z M4.63297859,73.4571624 C4.40249995,73.2032453 4.14956319,73.0196464 3.87416074,72.9063603 C3.59875829,72.7930742 3.30871112,72.736432 3.00401053,72.736432 C2.68368427,72.736432 2.40144983,72.7930742 2.15729871,72.9063603 C1.9131476,73.0196464 1.71099352,73.1739476 1.55083039,73.3692685 C1.39066726,73.5645894 1.26859354,73.7960411 1.18460555,74.0636308 C1.10061757,74.3312204 1.05862421,74.6173612 1.05862421,74.9220618 C1.05862421,75.5470886 1.22073812,76.0451494 1.54497079,76.4162591 C1.86920347,76.7873688 2.35554518,76.9729208 3.00401053,76.9729208 C3.30871112,76.9729208 3.59875829,76.915302 3.87416074,76.8000627 C4.14956319,76.6848234 4.40249995,76.4982947 4.63297859,76.2404712 L4.63297859,73.4571624 Z M11.9809137,72.9532371 C11.6918388,72.8086996 11.3480791,72.736432 10.9496245,72.736432 C10.6214854,72.736432 10.3285085,72.8067464 10.0706849,72.9473775 C9.81286136,73.0880085 9.59410525,73.272584 9.41441003,73.5011094 C9.23471481,73.7296349 9.09701565,73.9913609 9.00130842,74.2862955 C8.90560118,74.58123 8.85774828,74.8849494 8.85774828,75.1974628 L8.85774828,76.9612017 L10.0941233,76.9612017 L10.0941233,77.6467745 L6.81860841,77.6467745 L6.81860841,76.9612017 L8.05498345,76.9612017 L8.05498345,72.8712027 L6.81860841,72.8712027 L6.81860841,72.1856298 L8.85774828,72.1856298 L8.85774828,73.5567756 C9.22495155,72.5567326 9.92223666,72.0567187 10.9496245,72.0567187 C11.2269802,72.0567187 11.4681979,72.0742973 11.6732848,72.109455 C11.8783717,72.1446128 12.0688068,72.2071146 12.2445956,72.2969622 L11.9809137,72.9532371 Z M13.6567585,72.1856298 L14.4595233,72.1856298 L14.4595233,75.5607579 C14.4595233,76.0490601 14.5659716,76.4270004 14.7788714,76.69459 C14.9917712,76.9621796 15.3345542,77.0959724 15.8072307,77.0959724 C16.1041185,77.0959724 16.3717041,77.0276111 16.6099956,76.8908865 C16.8482871,76.7541619 17.0514177,76.5715396 17.2193937,76.3430141 C17.3873697,76.1144887 17.5153029,75.8527626 17.6031973,75.5578281 C17.6910917,75.2628935 17.7350383,74.9552678 17.7350383,74.6349415 L17.7350383,72.1856298 L18.5436627,72.1856298 L18.5436627,77.6467745 L17.7350383,77.6467745 L17.7350383,76.2814884 C17.3522093,77.2815313 16.6646901,77.7815453 15.67246,77.7815453 C14.3286523,77.7815453 13.6567585,77.0412902 13.6567585,75.5607579 L13.6567585,72.1856298 Z M25.0946925,77.6467745 L24.2860681,77.6467745 L24.2860681,74.2775061 C24.2860681,73.7892038 24.1805964,73.410287 23.9696498,73.1407442 C23.7587033,72.8712014 23.4168969,72.736432 22.9442203,72.736432 C22.6473326,72.736432 22.3787704,72.8047932 22.1385257,72.9415179 C21.898281,73.0782425 21.6941737,73.2608648 21.5261978,73.4893902 C21.3582218,73.7179157 21.2302885,73.9796417 21.1423941,74.2745763 C21.0544997,74.5695108 21.0105532,74.8771366 21.0105532,75.1974628 L21.0105532,77.6467745 L20.2077883,77.6467745 L20.2077883,72.1856298 L21.0105532,72.1856298 L21.0105532,73.5567756 C21.3972885,72.5567326 22.0867609,72.0567187 23.078991,72.0567187 C24.4227988,72.0567187 25.0946925,72.7969737 25.0946925,74.2775061 L25.0946925,77.6467745 Z M31.9914386,75.9064741 C31.9289359,76.4807175 31.7033437,76.936785 31.3146551,77.2746901 C30.9259666,77.6125952 30.4406014,77.7815453 29.8585452,77.7815453 C29.5382189,77.7815453 29.245242,77.7288094 28.9796056,77.6233362 C28.7139692,77.5178629 28.4874003,77.3713744 28.2998923,77.1838663 C28.1123842,76.9963583 27.9668724,76.7707661 27.8633523,76.5070829 C27.7598322,76.2433997 27.708073,75.9553057 27.708073,75.6427922 L27.708073,72.8712027 L26.4716979,72.8712027 L26.4716979,72.1856298 L27.708073,72.1856298 L27.708073,70 L28.5108378,70 L28.5108378,72.1856298 L30.8370979,72.1856298 L30.8370979,72.8712027 L28.5108378,72.8712027 L28.5108378,75.6427922 C28.5108378,75.8420196 28.5430653,76.0295248 28.6075211,76.2053136 C28.671977,76.3811024 28.7618233,76.5354036 28.8770626,76.6682218 C28.992302,76.80104 29.1319543,76.9055351 29.2960238,76.9817102 C29.4600934,77.0578854 29.6475986,77.0959724 29.8585452,77.0959724 C30.2569998,77.0959724 30.5900169,76.9719455 30.8576065,76.723888 C31.1251961,76.4758304 31.2785207,76.1545324 31.3175849,75.7599842 L31.9914386,75.9064741 Z M38.4838725,75.1857437 L33.0227278,75.1857437 L33.0227278,74.5001708 L38.4838725,74.5001708 L38.4838725,75.1857437 Z M44.8298164,76.6037662 C44.5993378,76.9631566 44.2838993,77.2492975 43.8834914,77.4621972 C43.4830836,77.675097 43.0074844,77.7815453 42.4566795,77.7815453 C42.0308799,77.7815453 41.640244,77.7112308 41.28476,77.5705998 C40.929276,77.4299687 40.6255566,77.2336742 40.3735926,76.9817102 C40.1216287,76.7297463 39.9253341,76.4299332 39.7847031,76.082262 C39.6440721,75.7345909 39.5737576,75.3478613 39.5737576,74.9220618 C39.5737576,74.5079815 39.6382125,74.1241817 39.7671243,73.7706509 C39.8960361,73.4171201 40.079635,73.1143773 40.3179264,72.8624133 C40.5562179,72.6104494 40.8482183,72.4131782 41.1939363,72.270594 C41.5396542,72.1280097 41.923454,72.0567187 42.3453471,72.0567187 C42.5133231,72.0567187 42.6852029,72.0762505 42.8609917,72.1153146 C43.0367805,72.1543788 43.2028008,72.2139508 43.3590575,72.2940324 C43.5153142,72.3741139 43.6559431,72.4698197 43.7809485,72.5811526 C43.9059539,72.6924855 43.9997065,72.8243252 44.0622092,72.9766755 L44.0622092,72.1856298 L44.7829396,72.1856298 L44.7829396,74.3712596 L44.0622092,74.3712596 C44.0622092,74.1290617 44.0182626,73.9083524 43.9303682,73.7091251 C43.8424738,73.5098978 43.7223533,73.338018 43.570003,73.1934806 C43.4176527,73.0489431 43.236007,72.9366353 43.0250604,72.8565537 C42.8141139,72.7764721 42.587545,72.736432 42.3453471,72.736432 C42.017208,72.736432 41.7310672,72.7930742 41.4869161,72.9063603 C41.242765,73.0196464 41.0386577,73.1739476 40.8745882,73.3692685 C40.7105187,73.5645894 40.5864917,73.794088 40.5025038,74.0577712 C40.4185158,74.3214544 40.3765224,74.6095484 40.3765224,74.9220618 C40.3765224,75.2345752 40.4243753,75.5226692 40.5200826,75.7863524 C40.6157898,76.0500356 40.7544655,76.277581 40.936114,76.4689955 C41.1177624,76.6604099 41.3365185,76.812758 41.5923889,76.9260441 C41.8482592,77.0393302 42.1363532,77.0959724 42.4566795,77.0959724 C42.8629469,77.0959724 43.2242852,77.015892 43.540705,76.8557289 C43.8571248,76.6955658 44.0993191,76.4826692 44.2672951,76.2170328 L44.8298164,76.6037662 Z M51.5859322,77.6467745 L50.7831673,77.6467745 L50.7831673,73.7208443 C50.7831673,73.4083309 50.7284783,73.1661366 50.6190986,72.9942542 C50.5097189,72.8223719 50.3515113,72.736432 50.1444712,72.736432 C49.8397706,72.736432 49.6161316,72.8965927 49.4735473,73.2169189 C49.3309631,73.5372452 49.259672,73.9864765 49.259672,74.5646263 L49.259672,77.6467745 L48.4510476,77.6467745 L48.4510476,73.7208443 C48.4510476,73.4083309 48.395382,73.1661366 48.284049,72.9942542 C48.1727161,72.8223719 48.013532,72.736432 47.8064919,72.736432 C47.6150774,72.736432 47.4627294,72.7930742 47.3494433,72.9063603 C47.2361572,73.0196464 47.1472875,73.1641817 47.0828316,73.3399705 C47.0183757,73.5157593 46.9763823,73.7110772 46.9568502,73.9259302 C46.9373182,74.1407832 46.9275523,74.3536798 46.9275523,74.5646263 L46.9275523,77.6467745 L46.1247874,77.6467745 L46.1247874,72.1856298 L46.9275523,72.1856298 L46.9275523,72.9766755 C47.0955282,72.3633679 47.4607728,72.0567187 48.023297,72.0567187 C48.5584762,72.0567187 48.9217676,72.3243043 49.1131821,72.8594835 C49.3788185,72.3243043 49.753829,72.0567187 50.2382248,72.0567187 C50.7030885,72.0567187 51.0439183,72.1944178 51.2607245,72.4698203 C51.4775307,72.7452227 51.5859322,73.1622266 51.5859322,73.7208443 L51.5859322,77.6467745 Z M57.8498417,77.6467745 L57.0412173,77.6467745 L57.0412173,77.1428492 C56.8107386,77.3498893 56.5578019,77.5080969 56.2823994,77.6174766 C56.006997,77.7268563 55.7247625,77.7815453 55.4356876,77.7815453 C55.0020752,77.7815453 54.6133925,77.7112308 54.2696277,77.5705998 C53.925863,77.4299687 53.6358158,77.2336742 53.3994775,76.9817102 C53.1631393,76.7297463 52.9814936,76.42798 52.854535,76.0764025 C52.7275764,75.7248249 52.6640981,75.3400485 52.6640981,74.9220618 C52.6640981,74.5079815 52.7275764,74.1241817 52.854535,73.7706509 C52.9814936,73.4171201 53.1631393,73.1143773 53.3994775,72.8624133 C53.6358158,72.6104494 53.925863,72.4131782 54.2696277,72.270594 C54.6133925,72.1280097 55.0020752,72.0567187 55.4356876,72.0567187 C55.7247625,72.0567187 56.006997,72.1084779 56.2823994,72.211998 C56.5578019,72.3155181 56.8107386,72.4707958 57.0412173,72.677836 L57.0412173,70.6855729 L55.9513322,70.6855729 L55.9513322,70 L57.8498417,70 L57.8498417,77.6467745 Z M57.0412173,73.4571624 C56.8107386,73.2032453 56.5597551,73.0196464 56.288259,72.9063603 C56.016763,72.7930742 55.728669,72.736432 55.4239684,72.736432 C55.1036422,72.736432 54.8214077,72.7930742 54.5772566,72.9063603 C54.3331055,73.0196464 54.1289982,73.1739476 53.9649287,73.3692685 C53.8008591,73.5645894 53.6768322,73.794088 53.5928442,74.0577712 C53.5088563,74.3214544 53.4668629,74.6095484 53.4668629,74.9220618 C53.4668629,75.2345752 53.5088563,75.5226692 53.5928442,75.7863524 C53.6768322,76.0500356 53.8008591,76.2795342 53.9649287,76.4748551 C54.1289982,76.670176 54.3331055,76.8244771 54.5772566,76.9377633 C54.8214077,77.0510494 55.1036422,77.1076916 55.4239684,77.1076916 C56.0411824,77.1076916 56.58026,76.8635441 57.0412173,76.3752419 L57.0412173,73.4571624 Z M64.6879918,75.1857437 L59.2268471,75.1857437 L59.2268471,74.5001708 L64.6879918,74.5001708 L64.6879918,75.1857437 Z M71.2976176,75.9064741 C71.2351149,76.4807175 71.0095227,76.936785 70.6208341,77.2746901 C70.2321456,77.6125952 69.7467804,77.7815453 69.1647242,77.7815453 C68.8443979,77.7815453 68.551421,77.7288094 68.2857846,77.6233362 C68.0201482,77.5178629 67.7935794,77.3713744 67.6060713,77.1838663 C67.4185633,76.9963583 67.2730514,76.7707661 67.1695313,76.5070829 C67.0660112,76.2433997 67.014252,75.9553057 67.014252,75.6427922 L67.014252,72.8712027 L65.7778769,72.8712027 L65.7778769,72.1856298 L67.014252,72.1856298 L67.014252,70 L67.8170168,70 L67.8170168,72.1856298 L70.143277,72.1856298 L70.143277,72.8712027 L67.8170168,72.8712027 L67.8170168,75.6427922 C67.8170168,75.8420196 67.8492443,76.0295248 67.9137002,76.2053136 C67.9781561,76.3811024 68.0680023,76.5354036 68.1832416,76.6682218 C68.298481,76.80104 68.4381333,76.9055351 68.6022029,76.9817102 C68.7662724,77.0578854 68.9537776,77.0959724 69.1647242,77.0959724 C69.5631788,77.0959724 69.8961959,76.9719455 70.1637855,76.723888 C70.4313752,76.4758304 70.5846998,76.1545324 70.6237639,75.7599842 L71.2976176,75.9064741 Z M77.491212,72.9532371 C77.2021371,72.8086996 76.8583775,72.736432 76.4599229,72.736432 C76.1317838,72.736432 75.8388069,72.8067464 75.5809833,72.9473775 C75.3231597,73.0880085 75.1044036,73.272584 74.9247084,73.5011094 C74.7450132,73.7296349 74.607314,73.9913609 74.5116068,74.2862955 C74.4158995,74.58123 74.3680466,74.8849494 74.3680466,75.1974628 L74.3680466,76.9612017 L75.6044217,76.9612017 L75.6044217,77.6467745 L72.3289068,77.6467745 L72.3289068,76.9612017 L73.5652818,76.9612017 L73.5652818,72.8712027 L72.3289068,72.8712027 L72.3289068,72.1856298 L74.3680466,72.1856298 L74.3680466,73.5567756 C74.7352499,72.5567326 75.432535,72.0567187 76.4599229,72.0567187 C76.7372786,72.0567187 76.9784962,72.0742973 77.1835832,72.109455 C77.3886701,72.1446128 77.5791051,72.2071146 77.7548939,72.2969622 L77.491212,72.9532371 Z M78.8682174,76.170156 C78.8682174,75.8263912 78.9541573,75.5382973 79.1260397,75.3058654 C79.2979221,75.0734335 79.5235143,74.8898347 79.8028232,74.7550632 C80.0821321,74.6202918 80.4024535,74.5226329 80.7637972,74.4620834 C81.1251408,74.4015339 81.4933151,74.3712596 81.8683313,74.3712596 C82.0128687,74.3712596 82.1427552,74.3732128 82.2579945,74.3771192 C82.3732338,74.3810256 82.4826119,74.3868852 82.5861319,74.394698 C82.689652,74.4025108 82.7941471,74.4122767 82.8996204,74.423996 C83.0050937,74.4357153 83.1203313,74.4493875 83.2453366,74.4650132 L83.2453366,74.0724202 C83.2453366,73.8067837 83.1877178,73.5880276 83.0724785,73.4161453 C82.9572392,73.2442629 82.8156337,73.1085169 82.6476577,73.0089032 C82.4796817,72.9092896 82.3038956,72.8389751 82.1202939,72.7979577 C81.9366923,72.7569403 81.7804379,72.736432 81.6515261,72.736432 C81.2452587,72.736432 80.8702482,72.791121 80.5264835,72.9005007 C80.1827187,73.0098804 79.8623972,73.1563689 79.5655095,73.3399705 L79.2022145,72.736432 C79.5303535,72.5372047 79.8985279,72.3741142 80.3067486,72.2471556 C80.7149692,72.120197 81.1632239,72.0567187 81.6515261,72.0567187 C81.9484139,72.0567187 82.2404142,72.0948057 82.527536,72.1709808 C82.8146577,72.247156 83.0724774,72.3643467 83.3010028,72.5225567 C83.5295282,72.6807666 83.7121505,72.8887802 83.8488752,73.1466038 C83.9855998,73.4044273 84.0539611,73.7130297 84.0539611,74.0724202 L84.0539611,77.6467745 L83.2453366,77.6467745 L83.2453366,76.7326774 C83.1047056,76.9084662 82.9455215,77.0627673 82.7677794,77.1955855 C82.5900374,77.3284037 82.4035088,77.4368052 82.2081879,77.5207932 C82.012867,77.6047812 81.8175491,77.6692361 81.6222282,77.7141599 C81.4269073,77.7590837 81.2413552,77.7815453 81.0655664,77.7815453 C80.3428791,77.7815453 79.7959888,77.6428695 79.4248792,77.3655139 C79.0537695,77.0881582 78.8682174,76.6897096 78.8682174,76.170156 Z M81.0655664,77.0959724 C81.4015183,77.0959724 81.7032846,77.0461663 81.9708742,76.9465527 C82.2384638,76.846939 82.4660092,76.7229121 82.6535173,76.5744682 C82.8410253,76.4260244 82.9865372,76.2678168 83.0900573,76.0998408 C83.1935774,75.9318649 83.2453366,75.7795169 83.2453366,75.6427922 L83.2453366,75.1271477 C82.9836066,75.0880835 82.7326231,75.0665985 82.4923784,75.0626921 C82.2521337,75.0587857 82.0441201,75.0568325 81.8683313,75.0568325 C81.5792563,75.0568325 81.3009282,75.0763643 81.0333386,75.1154285 C80.765749,75.1544927 80.5323441,75.217971 80.3331167,75.3058654 C80.1338894,75.3937598 79.9737287,75.5080208 79.8526298,75.6486518 C79.7315308,75.7892829 79.6709822,75.9631159 79.6709822,76.170156 C79.6709822,76.4006347 79.7832901,76.6125546 80.0079091,76.8059223 C80.2325281,76.99929 80.585077,77.0959724 81.0655664,77.0959724 Z M90.6049909,77.6467745 L89.7963665,77.6467745 L89.7963665,74.2775061 C89.7963665,73.7892038 89.6908948,73.410287 89.4799482,73.1407442 C89.2690016,72.8712014 88.9271952,72.736432 88.4545187,72.736432 C88.1576309,72.736432 87.8890687,72.8047932 87.648824,72.9415179 C87.4085793,73.0782425 87.2044721,73.2608648 87.0364961,73.4893902 C86.8685201,73.7179157 86.7405869,73.9796417 86.6526925,74.2745763 C86.5647981,74.5695108 86.5208515,74.8771366 86.5208515,75.1974628 L86.5208515,77.6467745 L85.7180867,77.6467745 L85.7180867,72.1856298 L86.5208515,72.1856298 L86.5208515,73.5567756 C86.9075869,72.5567326 87.5970593,72.0567187 88.5892894,72.0567187 C89.9330971,72.0567187 90.6049909,72.7969737 90.6049909,74.2775061 L90.6049909,77.6467745 Z M97.2966511,76.1349984 C97.2966511,76.4553247 97.2165707,76.7209571 97.0564076,76.9319037 C96.8962445,77.1428502 96.690184,77.3108237 96.4382201,77.435829 C96.1862561,77.5608344 95.9049983,77.6497041 95.594438,77.7024407 C95.2838778,77.7551774 94.9801584,77.7815453 94.6832707,77.7815453 C94.1871556,77.7815453 93.6930012,77.7092776 93.2007925,77.5647402 C92.7085839,77.4202027 92.2827907,77.2307443 91.9234003,76.9963592 L92.2808357,76.3049267 C92.6831968,76.5588439 93.0796922,76.7541619 93.470334,76.8908865 C93.8609758,77.0276111 94.265284,77.0959724 94.6832707,77.0959724 C95.8903537,77.0959724 96.4938862,76.7834637 96.4938862,76.1584368 C96.4938862,76.0060865 96.4440802,75.8820596 96.3444665,75.7863524 C96.2448528,75.6906451 96.11106,75.612518 95.9430841,75.5519685 C95.7751081,75.491419 95.5827199,75.4435661 95.3659137,75.4084084 C95.1491076,75.3732506 94.9215621,75.3400465 94.6832707,75.3087952 C94.3785701,75.2658246 94.0758272,75.2150419 93.7750331,75.1564457 C93.4742389,75.0978494 93.1998172,75.0099563 92.9517596,74.8927638 C92.7037021,74.7755713 92.5044778,74.6193169 92.3540807,74.423996 C92.2036836,74.2286751 92.1284862,73.9708554 92.1284862,73.6505291 C92.1284862,73.3770799 92.1978241,73.1407452 92.3365019,72.9415179 C92.4751797,72.7422906 92.6607318,72.5762703 92.8931637,72.4434521 C93.1255955,72.3106339 93.3980641,72.2129749 93.7105775,72.1504722 C94.0230909,72.0879695 94.3473187,72.0567187 94.6832707,72.0567187 C95.16376,72.0567187 95.5934595,72.1123843 95.9723821,72.2237172 C96.3513046,72.3350501 96.693111,72.4942342 96.9978116,72.7012744 L96.6755338,73.3282513 C96.3630203,73.1094919 96.0466052,72.9561673 95.726279,72.8682729 C95.4059527,72.7803785 95.0582868,72.736432 94.6832707,72.736432 C94.5152947,72.736432 94.328766,72.7510808 94.1236791,72.7803789 C93.9185922,72.8096771 93.7281572,72.8604597 93.5523684,72.9327285 C93.3765796,73.0049972 93.2291145,73.0987498 93.1099688,73.2139891 C92.990823,73.3292285 92.931251,73.4747403 92.931251,73.6505291 C92.931251,73.8028794 92.9810571,73.9249532 93.0806708,74.016754 C93.1802844,74.1085548 93.3140772,74.1847288 93.4820532,74.2452783 C93.6500292,74.3058278 93.8424174,74.3536807 94.0592235,74.3888384 C94.2760297,74.4239962 94.5035751,74.4572002 94.7418666,74.4884516 C95.0387544,74.5314222 95.3385674,74.5822048 95.6413148,74.6408011 C95.9440622,74.6993974 96.2194605,74.7853373 96.467518,74.8986234 C96.7155756,75.0119095 96.9157765,75.1662107 97.0681268,75.3615316 C97.2204771,75.5568525 97.2966511,75.8146722 97.2966511,76.1349984 Z M103.994171,74.9220618 C103.994171,75.3478613 103.927763,75.7345909 103.794945,76.082262 C103.662126,76.4299332 103.475598,76.7297463 103.235353,76.9817102 C102.995108,77.2336742 102.705061,77.4299687 102.365203,77.5705998 C102.025344,77.7112308 101.644474,77.7815453 101.222581,77.7815453 C100.933506,77.7815453 100.653225,77.7288094 100.381729,77.6233362 C100.110233,77.5178629 99.8572963,77.3616085 99.6229112,77.1545684 L99.6229112,79.8324044 L98.8201464,79.8324044 L98.8201464,72.1856298 L99.6229112,72.1856298 L99.6229112,72.6895552 C100.119026,72.2676621 100.652244,72.0567187 101.222581,72.0567187 C101.644474,72.0567187 102.025344,72.1260565 102.365203,72.2647344 C102.705061,72.4034122 102.995108,72.6006833 103.235353,72.8565537 C103.475598,73.1124241 103.662126,73.4171201 103.794945,73.7706509 C103.927763,74.1241817 103.994171,74.5079815 103.994171,74.9220618 Z M103.191406,74.9220618 C103.191406,74.6173612 103.149413,74.3312204 103.065425,74.0636308 C102.981437,73.7960411 102.855457,73.5645894 102.687481,73.3692685 C102.519505,73.1739476 102.313444,73.0196464 102.069293,72.9063603 C101.825142,72.7930742 101.542908,72.736432 101.222581,72.736432 C100.917881,72.736432 100.633693,72.7930742 100.37001,72.9063603 C100.106327,73.0196464 99.8572963,73.2032453 99.6229112,73.4571624 L99.6229112,76.3869611 C99.8572963,76.6408783 100.106327,76.822524 100.37001,76.9319037 C100.633693,77.0412834 100.917881,77.0959724 101.222581,77.0959724 C101.542908,77.0959724 101.825142,77.0393302 102.069293,76.9260441 C102.313444,76.812758 102.519505,76.6584568 102.687481,76.4631359 C102.855457,76.267815 102.981437,76.0383164 103.065425,75.7746332 C103.149413,75.51095 103.191406,75.2267624 103.191406,74.9220618 Z M110.685831,74.933781 C110.685831,75.3595805 110.618446,75.7463101 110.483675,76.0939812 C110.348903,76.4416524 110.155539,76.7395123 109.903575,76.9875698 C109.651611,77.2356274 109.349845,77.4299687 108.998267,77.5705998 C108.646689,77.7112308 108.2541,77.7815453 107.820488,77.7815453 C107.394688,77.7815453 107.006006,77.7112308 106.654428,77.5705998 C106.30285,77.4299687 106.001084,77.2356274 105.74912,76.9875698 C105.497156,76.7395123 105.303792,76.4416524 105.16902,76.0939812 C105.034249,75.7463101 104.966864,75.3595805 104.966864,74.933781 C104.966864,74.5197007 105.034249,74.1339477 105.16902,73.7765105 C105.303792,73.4190733 105.497156,73.1143773 105.74912,72.8624133 C106.001084,72.6104494 106.30285,72.4131782 106.654428,72.270594 C107.006006,72.1280097 107.394688,72.0567187 107.820488,72.0567187 C108.2541,72.0567187 108.646689,72.1280097 108.998267,72.270594 C109.349845,72.4131782 109.651611,72.6104494 109.903575,72.8624133 C110.155539,73.1143773 110.348903,73.4190733 110.483675,73.7765105 C110.618446,74.1339477 110.685831,74.5197007 110.685831,74.933781 Z M109.883066,74.933781 C109.883066,74.6212675 109.837166,74.3331736 109.745366,74.0694904 C109.653565,73.8058072 109.517819,73.5743554 109.338124,73.3751281 C109.158428,73.1759008 108.940649,73.0196464 108.684779,72.9063603 C108.428908,72.7930742 108.140814,72.736432 107.820488,72.736432 C107.500162,72.736432 107.212068,72.7930742 106.956197,72.9063603 C106.700327,73.0196464 106.484501,73.1759008 106.308712,73.3751281 C106.132923,73.5743554 105.99913,73.8058072 105.907329,74.0694904 C105.815529,74.3331736 105.769629,74.6212675 105.769629,74.933781 C105.769629,75.2462944 105.815529,75.5343884 105.907329,75.7980716 C105.99913,76.0617548 106.132923,76.2893002 106.308712,76.4807147 C106.484501,76.6721291 106.700327,76.822524 106.956197,76.9319037 C107.212068,77.0412834 107.500162,77.0959724 107.820488,77.0959724 C108.140814,77.0959724 108.428908,77.0412834 108.684779,76.9319037 C108.940649,76.822524 109.158428,76.6721291 109.338124,76.4807147 C109.517819,76.2893002 109.653565,76.0617548 109.745366,75.7980716 C109.837166,75.5343884 109.883066,75.2462944 109.883066,74.933781 Z M116.797391,72.9532371 C116.508316,72.8086996 116.164557,72.736432 115.766102,72.736432 C115.437963,72.736432 115.144986,72.8067464 114.887162,72.9473775 C114.629339,73.0880085 114.410583,73.272584 114.230887,73.5011094 C114.051192,73.7296349 113.913493,73.9913609 113.817786,74.2862955 C113.722079,74.58123 113.674226,74.8849494 113.674226,75.1974628 L113.674226,76.9612017 L114.910601,76.9612017 L114.910601,77.6467745 L111.635086,77.6467745 L111.635086,76.9612017 L112.871461,76.9612017 L112.871461,72.8712027 L111.635086,72.8712027 L111.635086,72.1856298 L113.674226,72.1856298 L113.674226,73.5567756 C114.041429,72.5567326 114.738714,72.0567187 115.766102,72.0567187 C116.043458,72.0567187 116.284675,72.0742973 116.489762,72.109455 C116.694849,72.1446128 116.885284,72.2071146 117.061073,72.2969622 L116.797391,72.9532371 Z M123.705856,75.9064741 C123.643354,76.4807175 123.417761,76.936785 123.029073,77.2746901 C122.640384,77.6125952 122.155019,77.7815453 121.572963,77.7815453 C121.252637,77.7815453 120.95966,77.7288094 120.694023,77.6233362 C120.428387,77.5178629 120.201818,77.3713744 120.01431,77.1838663 C119.826802,76.9963583 119.68129,76.7707661 119.57777,76.5070829 C119.47425,76.2433997 119.422491,75.9553057 119.422491,75.6427922 L119.422491,72.8712027 L118.186116,72.8712027 L118.186116,72.1856298 L119.422491,72.1856298 L119.422491,70 L120.225255,70 L120.225255,72.1856298 L122.551516,72.1856298 L122.551516,72.8712027 L120.225255,72.8712027 L120.225255,75.6427922 C120.225255,75.8420196 120.257483,76.0295248 120.321939,76.2053136 C120.386395,76.3811024 120.476241,76.5354036 120.59148,76.6682218 C120.70672,76.80104 120.846372,76.9055351 121.010442,76.9817102 C121.174511,77.0578854 121.362016,77.0959724 121.572963,77.0959724 C121.971418,77.0959724 122.304435,76.9719455 122.572024,76.723888 C122.839614,76.4758304 122.992938,76.1545324 123.032003,75.7599842 L123.705856,75.9064741 Z" id="grunt-cmd-transport" fill="#BDBDBD"></path>
                <path d="M207.26743,77.5876737 C207.26743,77.9626648 207.202979,78.2966363 207.074076,78.5895981 C206.945173,78.88256 206.764516,79.1305973 206.532099,79.3337175 C206.299683,79.5368377 206.026256,79.6921051 205.71181,79.7995245 C205.397365,79.9069438 205.046792,79.9606527 204.660083,79.9606527 C204.117127,79.9606527 203.65523,79.8590941 203.27438,79.6559739 C202.89353,79.4528537 202.564441,79.1598962 202.287104,78.7770928 L202.849587,78.3435114 C203.017552,78.5974117 203.25973,78.8102941 203.576129,78.982165 C203.892528,79.154036 204.253842,79.2399702 204.660083,79.2399702 C205.214757,79.2399702 205.653217,79.1003271 205.975475,78.8210368 C206.297733,78.5417465 206.458859,78.1384418 206.458859,77.6111105 L206.458859,77.0251897 C205.982308,77.4470548 205.43936,77.6579841 204.83,77.6579841 C203.974551,77.6579841 203.302702,77.4138529 202.814432,76.9255832 C202.326162,76.4373135 202.082031,75.7693705 202.082031,74.9217343 C202.082031,74.5076815 202.145505,74.1258603 202.272455,73.7762592 C202.399406,73.4266581 202.581039,73.1239354 202.817362,72.8680821 C203.053684,72.6122287 203.341759,72.4130177 203.681595,72.2704429 C204.021431,72.1278681 204.404228,72.0565818 204.83,72.0565818 C205.126868,72.0565818 205.414942,72.1083376 205.694233,72.2118508 C205.973523,72.315364 206.228396,72.4706314 206.458859,72.6776578 L206.458859,72.1854844 L207.26743,72.1854844 L207.26743,77.5876737 Z M206.458859,73.4569324 C206.228396,73.2030321 205.975476,73.0194455 205.700092,72.9061669 C205.424708,72.7928883 205.13468,72.7362499 204.83,72.7362499 C204.509695,72.7362499 204.227479,72.7928883 203.983344,72.9061669 C203.739209,73.0194455 203.537069,73.1737364 203.376916,73.3690443 C203.216764,73.5643522 203.094698,73.7957886 203.010716,74.0633604 C202.926733,74.3309322 202.884743,74.617054 202.884743,74.9217343 C202.884743,75.5467195 203.046846,76.0447472 203.371057,76.4158322 C203.695268,76.7869172 204.181577,76.9724569 204.83,76.9724569 C205.13468,76.9724569 205.424708,76.9148419 205.700092,76.7996103 C205.975476,76.6843786 206.228396,76.4978624 206.458859,76.2400559 L206.458859,73.4569324 Z M213.806305,72.9530406 C213.51725,72.8085127 213.173513,72.7362499 212.775085,72.7362499 C212.446968,72.7362499 212.15401,72.8065597 211.896204,72.9471814 C211.638397,73.087803 211.419656,73.2723662 211.239973,73.5008765 C211.060289,73.7293867 210.922599,73.9910953 210.826898,74.2860103 C210.731198,74.5809252 210.683348,74.8846244 210.683348,75.197117 L210.683348,76.9607385 L211.919641,76.9607385 L211.919641,77.6462657 L208.644344,77.6462657 L208.644344,76.9607385 L209.880636,76.9607385 L209.880636,72.8710117 L208.644344,72.8710117 L208.644344,72.1854844 L210.683348,72.1854844 L210.683348,73.5565389 C211.050527,72.5565625 211.747765,72.0565818 212.775085,72.0565818 C213.052422,72.0565818 213.293624,72.0741593 213.498697,72.1093147 C213.70377,72.1444701 213.894193,72.2069677 214.06997,72.2968093 L213.806305,72.9530406 Z M215.482039,72.1854844 L216.28475,72.1854844 L216.28475,75.5603879 C216.28475,76.0486576 216.391191,76.4265727 216.604077,76.6941445 C216.816963,76.9617163 217.159723,77.0955002 217.632368,77.0955002 C217.929236,77.0955002 218.196804,77.0271435 218.435079,76.890428 C218.673355,76.7537124 218.876472,76.5711023 219.044437,76.3425921 C219.212402,76.1140818 219.340326,75.8523732 219.428215,75.5574583 C219.516103,75.2625434 219.560047,74.954938 219.560047,74.6346331 L219.560047,72.1854844 L220.368618,72.1854844 L220.368618,77.6462657 L219.560047,77.6462657 L219.560047,76.2810704 C219.177244,77.2810468 218.48977,77.7810275 217.497606,77.7810275 C216.153888,77.7810275 215.482039,77.0408217 215.482039,75.5603879 L215.482039,72.1854844 Z M226.919212,77.6462657 L226.110641,77.6462657 L226.110641,74.2772214 C226.110641,73.7889517 226.005176,73.4100601 225.794244,73.1405352 C225.583311,72.8710103 225.241528,72.7362499 224.768883,72.7362499 C224.472015,72.7362499 224.20347,72.8046066 223.963242,72.9413221 C223.723013,73.0780377 223.518919,73.2606478 223.350954,73.489158 C223.18299,73.7176683 223.055065,73.9793769 222.967176,74.2742918 C222.879288,74.5692068 222.835344,74.8768121 222.835344,75.197117 L222.835344,77.6462657 L222.032633,77.6462657 L222.032633,72.1854844 L222.835344,72.1854844 L222.835344,73.5565389 C223.222054,72.5565625 223.91148,72.0565818 224.903644,72.0565818 C226.247363,72.0565818 226.919212,72.7967876 226.919212,74.2772214 L226.919212,77.6462657 Z M233.815499,75.9060811 C233.753,76.4802863 233.527423,76.9363234 233.13876,77.2742061 C232.750098,77.6120887 232.264765,77.7810275 231.682747,77.7810275 C231.362442,77.7810275 231.069485,77.7282952 230.803866,77.6228289 C230.538247,77.5173626 230.311694,77.3708839 230.124198,77.1833883 C229.936703,76.9958928 229.7912,76.7703155 229.687687,76.5066499 C229.584174,76.2429842 229.532418,75.9549094 229.532418,75.6424168 L229.532418,72.8710117 L228.296125,72.8710117 L228.296125,72.1854844 L229.532418,72.1854844 L229.532418,70 L230.33513,70 L230.33513,72.1854844 L232.661235,72.1854844 L232.661235,72.8710117 L230.33513,72.8710117 L230.33513,75.6424168 C230.33513,75.8416308 230.367355,76.0291236 230.431807,76.2049007 C230.496258,76.3806778 230.586098,76.5349687 230.70133,76.6677781 C230.816562,76.8005875 230.956205,76.9050756 231.120263,76.9812457 C231.284322,77.0574158 231.471815,77.0955002 231.682747,77.0955002 C232.081175,77.0955002 232.41417,76.9714816 232.681742,76.7234406 C232.949314,76.4753995 233.102628,76.1541229 233.14169,75.7596009 L233.815499,75.9060811 Z M240.307501,75.1853986 L234.846719,75.1853986 L234.846719,74.4998713 L240.307501,74.4998713 L240.307501,75.1853986 Z M246.653022,76.6033268 C246.422559,76.9626933 246.107142,77.2488151 245.70676,77.4617007 C245.306379,77.6745863 244.830812,77.7810275 244.280043,77.7810275 C243.854272,77.7810275 243.463662,77.7107177 243.108202,77.570096 C242.752742,77.4294744 242.449042,77.2331929 242.197095,76.9812457 C241.945148,76.7292985 241.748866,76.4295054 241.608245,76.0818573 C241.467623,75.7342093 241.397313,75.3475055 241.397313,74.9217343 C241.397313,74.5076815 241.461764,74.1239073 241.590667,73.7704 C241.71957,73.4168927 241.903157,73.11417 242.141433,72.8622228 C242.379708,72.6102757 242.671689,72.4130177 243.017384,72.2704429 C243.363079,72.1278681 243.746853,72.0565818 244.168718,72.0565818 C244.336683,72.0565818 244.508552,72.0761123 244.684329,72.1151739 C244.860106,72.1542355 245.026115,72.2138035 245.182361,72.2938797 C245.338608,72.373956 245.479227,72.4696554 245.604224,72.5809809 C245.729221,72.6923064 245.822968,72.8241372 245.885466,72.9764774 L245.885466,72.1854844 L246.606149,72.1854844 L246.606149,74.3709688 L245.885466,74.3709688 C245.885466,74.128787 245.841523,73.9080924 245.753634,73.7088783 C245.665745,73.5096643 245.545633,73.3377959 245.393293,73.1932681 C245.240953,73.0487402 245.059319,72.9364399 244.848386,72.8563636 C244.637454,72.7762874 244.4109,72.7362499 244.168718,72.7362499 C243.840601,72.7362499 243.554479,72.7928883 243.310345,72.9061669 C243.06621,73.0194455 242.862116,73.1737364 242.698057,73.3690443 C242.533999,73.5643522 242.40998,73.7938355 242.325998,74.0575012 C242.242015,74.3211668 242.200025,74.6092416 242.200025,74.9217343 C242.200025,75.2342269 242.247874,75.5223017 242.343575,75.7859674 C242.439276,76.049633 242.577943,76.2771633 242.759579,76.468565 C242.941215,76.6599668 243.159957,76.8123046 243.41581,76.9255832 C243.671664,77.0388618 243.959738,77.0955002 244.280043,77.0955002 C244.686284,77.0955002 245.047598,77.0154252 245.363997,76.8552727 C245.680396,76.6951203 245.922574,76.4822378 246.090538,76.2166191 L246.653022,76.6033268 Z M253.408689,77.6462657 L252.605977,77.6462657 L252.605977,73.7205967 C252.605977,73.4081041 252.551292,73.165926 252.441919,72.994055 C252.332547,72.8221841 252.17435,72.7362499 251.967324,72.7362499 C251.662643,72.7362499 251.439019,72.8964 251.296444,73.2167049 C251.15387,73.5370098 251.082583,73.9862113 251.082583,74.5643226 L251.082583,77.6462657 L250.274013,77.6462657 L250.274013,73.7205967 C250.274013,73.4081041 250.218351,73.165926 250.107025,72.994055 C249.9957,72.8221841 249.836526,72.7362499 249.6295,72.7362499 C249.438098,72.7362499 249.28576,72.7928883 249.172482,72.9061669 C249.059203,73.0194455 248.970339,73.1639711 248.905888,73.3397483 C248.841436,73.5155254 248.799445,73.7108303 248.779915,73.925669 C248.760384,74.1405077 248.750619,74.3533901 248.750619,74.5643226 L248.750619,77.6462657 L247.947907,77.6462657 L247.947907,72.1854844 L248.750619,72.1854844 L248.750619,72.9764774 C248.918583,72.3632106 249.283804,72.0565818 249.84629,72.0565818 C250.381434,72.0565818 250.744701,72.3241496 250.936103,72.8592932 C251.201722,72.3241496 251.576707,72.0565818 252.061071,72.0565818 C252.525904,72.0565818 252.866711,72.1942718 253.083503,72.4696559 C253.300294,72.7450401 253.408689,73.1620162 253.408689,73.7205967 L253.408689,77.6462657 Z M259.672181,77.6462657 L258.863611,77.6462657 L258.863611,77.1423739 C258.633147,77.3494003 258.380227,77.5075973 258.104843,77.6169697 C257.829459,77.7263421 257.547244,77.7810275 257.258188,77.7810275 C256.824604,77.7810275 256.435947,77.7107177 256.092206,77.570096 C255.748464,77.4294744 255.458436,77.2331929 255.222113,76.9812457 C254.985791,76.7292985 254.804157,76.4275523 254.677207,76.0759981 C254.550257,75.7244439 254.486783,75.3396932 254.486783,74.9217343 C254.486783,74.5076815 254.550257,74.1239073 254.677207,73.7704 C254.804157,73.4168927 254.985791,73.11417 255.222113,72.8622228 C255.458436,72.6102757 255.748464,72.4130177 256.092206,72.2704429 C256.435947,72.1278681 256.824604,72.0565818 257.258188,72.0565818 C257.547244,72.0565818 257.829459,72.1083376 258.104843,72.2118508 C258.380227,72.315364 258.633147,72.4706314 258.863611,72.6776578 L258.863611,70.6855273 L257.773798,70.6855273 L257.773798,70 L259.672181,70 L259.672181,77.6462657 Z M258.863611,73.4569324 C258.633147,73.2030321 258.382181,73.0194455 258.110703,72.9061669 C257.839225,72.7928883 257.55115,72.7362499 257.246469,72.7362499 C256.926165,72.7362499 256.643949,72.7928883 256.399814,72.9061669 C256.155679,73.0194455 255.951585,73.1737364 255.787527,73.3690443 C255.623468,73.5643522 255.49945,73.7938355 255.415467,74.0575012 C255.331485,74.3211668 255.289494,74.6092416 255.289494,74.9217343 C255.289494,75.2342269 255.331485,75.5223017 255.415467,75.7859674 C255.49945,76.049633 255.623468,76.2791163 255.787527,76.4744242 C255.951585,76.6697321 256.155679,76.8240231 256.399814,76.9373016 C256.643949,77.0505802 256.926165,77.1072186 257.246469,77.1072186 C257.863642,77.1072186 258.402684,76.8630874 258.863611,76.3748177 L258.863611,73.4569324 Z M266.509876,75.1853986 L261.049095,75.1853986 L261.049095,74.4998713 L266.509876,74.4998713 L266.509876,75.1853986 Z M272.855398,76.6033268 C272.624935,76.9626933 272.309517,77.2488151 271.909136,77.4617007 C271.508755,77.6745863 271.033187,77.7810275 270.482419,77.7810275 C270.056648,77.7810275 269.666038,77.7107177 269.310578,77.570096 C268.955117,77.4294744 268.651418,77.2331929 268.399471,76.9812457 C268.147524,76.7292985 267.951242,76.4295054 267.810621,76.0818573 C267.669999,75.7342093 267.599689,75.3475055 267.599689,74.9217343 C267.599689,74.5076815 267.66414,74.1239073 267.793043,73.7704 C267.921946,73.4168927 268.105533,73.11417 268.343808,72.8622228 C268.582084,72.6102757 268.874065,72.4130177 269.21976,72.2704429 C269.565455,72.1278681 269.949229,72.0565818 270.371094,72.0565818 C270.539059,72.0565818 270.710927,72.0761123 270.886704,72.1151739 C271.062482,72.1542355 271.228491,72.2138035 271.384737,72.2938797 C271.540983,72.373956 271.681603,72.4696554 271.8066,72.5809809 C271.931597,72.6923064 272.025343,72.8241372 272.087842,72.9764774 L272.087842,72.1854844 L272.808524,72.1854844 L272.808524,74.3709688 L272.087842,74.3709688 C272.087842,74.128787 272.043898,73.9080924 271.95601,73.7088783 C271.868121,73.5096643 271.748009,73.3377959 271.595669,73.1932681 C271.443328,73.0487402 271.261695,72.9364399 271.050762,72.8563636 C270.83983,72.7762874 270.613276,72.7362499 270.371094,72.7362499 C270.042977,72.7362499 269.756855,72.7928883 269.51272,72.9061669 C269.268585,73.0194455 269.064492,73.1737364 268.900433,73.3690443 C268.736374,73.5643522 268.612356,73.7938355 268.528373,74.0575012 C268.444391,74.3211668 268.4024,74.6092416 268.4024,74.9217343 C268.4024,75.2342269 268.45025,75.5223017 268.545951,75.7859674 C268.641652,76.049633 268.780318,76.2771633 268.961955,76.468565 C269.143591,76.6599668 269.362333,76.8123046 269.618186,76.9255832 C269.874039,77.0388618 270.162114,77.0955002 270.482419,77.0955002 C270.88866,77.0955002 271.249974,77.0154252 271.566372,76.8552727 C271.882771,76.6951203 272.124949,76.4822378 272.292914,76.2166191 L272.855398,76.6033268 Z M279.751685,74.9334527 C279.751685,75.3592239 279.684305,75.7459277 279.549543,76.0935758 C279.41478,76.4412238 279.221428,76.7390639 278.969481,76.9871049 C278.717534,77.2351459 278.415788,77.4294744 278.064234,77.570096 C277.712679,77.7107177 277.320116,77.7810275 276.886533,77.7810275 C276.460762,77.7810275 276.072105,77.7107177 275.720551,77.570096 C275.368996,77.4294744 275.06725,77.2351459 274.815303,76.9871049 C274.563356,76.7390639 274.370004,76.4412238 274.235241,76.0935758 C274.100479,75.7459277 274.033099,75.3592239 274.033099,74.9334527 C274.033099,74.5193999 274.100479,74.1336726 274.235241,73.7762592 C274.370004,73.4188458 274.563356,73.11417 274.815303,72.8622228 C275.06725,72.6102757 275.368996,72.4130177 275.720551,72.2704429 C276.072105,72.1278681 276.460762,72.0565818 276.886533,72.0565818 C277.320116,72.0565818 277.712679,72.1278681 278.064234,72.2704429 C278.415788,72.4130177 278.717534,72.6102757 278.969481,72.8622228 C279.221428,73.11417 279.41478,73.4188458 279.549543,73.7762592 C279.684305,74.1336726 279.751685,74.5193999 279.751685,74.9334527 Z M278.948974,74.9334527 C278.948974,74.6209601 278.903077,74.3328852 278.811283,74.0692196 C278.719488,73.8055539 278.583751,73.5741175 278.404068,73.3749035 C278.224384,73.1756894 278.006619,73.0194455 277.750766,72.9061669 C277.494913,72.7928883 277.206838,72.7362499 276.886533,72.7362499 C276.566228,72.7362499 276.278153,72.7928883 276.0223,72.9061669 C275.766446,73.0194455 275.550634,73.1756894 275.374857,73.3749035 C275.19908,73.5741175 275.065296,73.8055539 274.973502,74.0692196 C274.881707,74.3328852 274.83581,74.6209601 274.83581,74.9334527 C274.83581,75.2459453 274.881707,75.5340201 274.973502,75.7976858 C275.065296,76.0613514 275.19908,76.2888817 275.374857,76.4802834 C275.550634,76.6716852 275.766446,76.82207 276.0223,76.9314424 C276.278153,77.0408148 276.566228,77.0955002 276.886533,77.0955002 C277.206838,77.0955002 277.494913,77.0408148 277.750766,76.9314424 C278.006619,76.82207 278.224384,76.6716852 278.404068,76.4802834 C278.583751,76.2888817 278.719488,76.0613514 278.811283,75.7976858 C278.903077,75.5340201 278.948974,75.2459453 278.948974,74.9334527 Z M285.874557,77.6462657 L285.065986,77.6462657 L285.065986,74.2772214 C285.065986,73.7889517 284.960522,73.4100601 284.749589,73.1405352 C284.538657,72.8710103 284.196873,72.7362499 283.724228,72.7362499 C283.42736,72.7362499 283.158816,72.8046066 282.918587,72.9413221 C282.678358,73.0780377 282.474265,73.2606478 282.3063,73.489158 C282.138335,73.7176683 282.01041,73.9793769 281.922522,74.2742918 C281.834633,74.5692068 281.79069,74.8768121 281.79069,75.197117 L281.79069,77.6462657 L280.987978,77.6462657 L280.987978,72.1854844 L281.79069,72.1854844 L281.79069,73.5565389 C282.177399,72.5565625 282.866826,72.0565818 283.85899,72.0565818 C285.202708,72.0565818 285.874557,72.7967876 285.874557,74.2772214 L285.874557,77.6462657 Z M292.50718,76.6033268 C292.276717,76.9626933 291.961299,77.2488151 291.560918,77.4617007 C291.160537,77.6745863 290.684969,77.7810275 290.134201,77.7810275 C289.70843,77.7810275 289.31782,77.7107177 288.962359,77.570096 C288.606899,77.4294744 288.3032,77.2331929 288.051253,76.9812457 C287.799306,76.7292985 287.603024,76.4295054 287.462402,76.0818573 C287.321781,75.7342093 287.251471,75.3475055 287.251471,74.9217343 C287.251471,74.5076815 287.315922,74.1239073 287.444825,73.7704 C287.573728,73.4168927 287.757315,73.11417 287.99559,72.8622228 C288.233866,72.6102757 288.525847,72.4130177 288.871542,72.2704429 C289.217237,72.1278681 289.601011,72.0565818 290.022876,72.0565818 C290.190841,72.0565818 290.362709,72.0761123 290.538486,72.1151739 C290.714263,72.1542355 290.880273,72.2138035 291.036519,72.2938797 C291.192765,72.373956 291.333385,72.4696554 291.458382,72.5809809 C291.583379,72.6923064 291.677125,72.8241372 291.739624,72.9764774 L291.739624,72.1854844 L292.460306,72.1854844 L292.460306,74.3709688 L291.739624,74.3709688 C291.739624,74.128787 291.69568,73.9080924 291.607792,73.7088783 C291.519903,73.5096643 291.399791,73.3377959 291.24745,73.1932681 C291.09511,73.0487402 290.913477,72.9364399 290.702544,72.8563636 C290.491612,72.7762874 290.265058,72.7362499 290.022876,72.7362499 C289.694759,72.7362499 289.408637,72.7928883 289.164502,72.9061669 C288.920367,73.0194455 288.716274,73.1737364 288.552215,73.3690443 C288.388156,73.5643522 288.264138,73.7938355 288.180155,74.0575012 C288.096173,74.3211668 288.054182,74.6092416 288.054182,74.9217343 C288.054182,75.2342269 288.102032,75.5223017 288.197733,75.7859674 C288.293434,76.049633 288.4321,76.2771633 288.613737,76.468565 C288.795373,76.6599668 289.014114,76.8123046 289.269968,76.9255832 C289.525821,77.0388618 289.813896,77.0955002 290.134201,77.0955002 C290.540441,77.0955002 290.901756,77.0154252 291.218154,76.8552727 C291.534553,76.6951203 291.776731,76.4822378 291.944696,76.2166191 L292.50718,76.6033268 Z M293.790346,76.1697455 C293.790346,75.8260036 293.876281,75.5379287 294.048152,75.3055124 C294.220022,75.073096 294.4456,74.8895093 294.72489,74.7547469 C295.00418,74.6199844 295.32448,74.5223319 295.6858,74.4617865 C296.04712,74.401241 296.415269,74.3709688 296.790261,74.3709688 C296.934788,74.3709688 297.064666,74.3729218 297.179898,74.376828 C297.29513,74.3807341 297.4045,74.3865933 297.508014,74.3944056 C297.611527,74.4022179 297.716015,74.4119832 297.821481,74.4237016 C297.926947,74.4354201 298.042177,74.4490915 298.167174,74.4647161 L298.167174,74.0721492 C298.167174,73.8065305 298.109559,73.5877889 297.994328,73.4159179 C297.879096,73.244047 297.7375,73.1083101 297.569535,73.008703 C297.40157,72.909096 297.225796,72.8387862 297.042207,72.7977716 C296.858617,72.7567569 296.702373,72.7362499 296.57347,72.7362499 C296.16723,72.7362499 295.792244,72.7909353 295.448502,72.9003077 C295.10476,73.0096801 294.78446,73.1561588 294.487592,73.3397483 L294.124321,72.7362499 C294.452438,72.5370358 294.820588,72.3739562 295.228782,72.2470061 C295.636975,72.1200559 296.0852,72.0565818 296.57347,72.0565818 C296.870338,72.0565818 297.162319,72.0946663 297.449421,72.1708364 C297.736524,72.2470064 297.994327,72.3641894 298.222837,72.5223888 C298.451347,72.6805882 298.633957,72.888588 298.770673,73.1463944 C298.907388,73.4042008 298.975745,73.7127827 298.975745,74.0721492 L298.975745,77.6462657 L298.167174,77.6462657 L298.167174,76.7322294 C298.026553,76.9080065 297.867379,77.0622974 297.689649,77.1951068 C297.511919,77.3279161 297.325403,77.4363104 297.130095,77.5202928 C296.934787,77.6042752 296.739482,77.6687258 296.544174,77.7136466 C296.348866,77.7585674 296.163326,77.7810275 295.987549,77.7810275 C295.26491,77.7810275 294.718056,77.642361 294.346971,77.3650238 C293.975886,77.0876866 293.790346,76.6892644 293.790346,76.1697455 Z M295.987549,77.0955002 C296.323479,77.0955002 296.625225,77.0456975 296.892797,76.9460904 C297.160369,76.8464834 297.387899,76.7224648 297.575394,76.5740308 C297.76289,76.4255968 297.908392,76.2673998 298.011905,76.099435 C298.115419,75.9314702 298.167174,75.7791323 298.167174,75.6424168 L298.167174,75.1268065 C297.905462,75.0877449 297.654495,75.0662614 297.414266,75.0623552 C297.174037,75.0584491 296.966038,75.056496 296.790261,75.056496 C296.501205,75.056496 296.222895,75.0760265 295.955324,75.1150881 C295.687752,75.1541497 295.454362,75.2176238 295.255148,75.3055124 C295.055934,75.3934009 294.895784,75.5076543 294.774693,75.648276 C294.653602,75.7888977 294.593058,75.9627191 294.593058,76.1697455 C294.593058,76.4002088 294.705358,76.6121146 294.929962,76.8054695 C295.154566,76.9988243 295.507092,77.0955002 295.987549,77.0955002 Z M305.872032,75.9060811 C305.809534,76.4802863 305.583956,76.9363234 305.195294,77.2742061 C304.806631,77.6120887 304.321298,77.7810275 303.739281,77.7810275 C303.418976,77.7810275 303.126018,77.7282952 302.8604,77.6228289 C302.594781,77.5173626 302.368227,77.3708839 302.180731,77.1833883 C301.993236,76.9958928 301.847734,76.7703155 301.744221,76.5066499 C301.640707,76.2429842 301.588952,75.9549094 301.588952,75.6424168 L301.588952,72.8710117 L300.352659,72.8710117 L300.352659,72.1854844 L301.588952,72.1854844 L301.588952,70 L302.391663,70 L302.391663,72.1854844 L304.717768,72.1854844 L304.717768,72.8710117 L302.391663,72.8710117 L302.391663,75.6424168 C302.391663,75.8416308 302.423888,76.0291236 302.48834,76.2049007 C302.552791,76.3806778 302.642632,76.5349687 302.757863,76.6677781 C302.873095,76.8005875 303.012738,76.9050756 303.176797,76.9812457 C303.340855,77.0574158 303.528348,77.0955002 303.739281,77.0955002 C304.137709,77.0955002 304.470704,76.9714816 304.738276,76.7234406 C305.005847,76.4753995 305.159162,76.1541229 305.198223,75.7596009 L305.872032,75.9060811 Z" id="grunt-cmd-concat" fill="#BDBDBD"></path>
                <g id="Group-4" transform="translate(128.000000, 28.000000)">
                    <path d="M58.5,2.5 L0.5,2.5" id="Line" stroke="#9E9E9E" stroke-linecap="square"></path>
                    <polygon id="Triangle" fill="#9E9E9E" transform="translate(57.500000, 2.500000) rotate(90.000000) translate(-57.500000, -2.500000) " points="57.5 0 60 5 55 5"></polygon>
                </g>
                <g id="Group-4" transform="translate(318.000000, 28.000000)">
                    <path d="M58.5,2.5 L0.5,2.5" id="Line" stroke="#9E9E9E" stroke-linecap="square"></path>
                    <polygon id="Triangle" fill="#9E9E9E" transform="translate(57.500000, 2.500000) rotate(90.000000) translate(-57.500000, -2.500000) " points="57.5 0 60 5 55 5"></polygon>
                </g>
            </g>
        </g>
    </g>
</svg>