<?xml version="1.0" encoding="UTF-8"?>
<svg width="880px" height="230px" viewBox="0 0 880 230" version="1.1" xmlns="http://www.w3.org/2000/svg" xmlns:xlink="http://www.w3.org/1999/xlink">
    <!-- Generator: Sketch 41.2 (35397) - http://www.bohemiancoding.com/sketch -->
    <title>resolve</title>
    <desc>Created with Sketch.</desc>
    <defs>
        <rect id="path-1" x="0" y="0" width="80" height="40"></rect>
        <mask id="mask-2" maskContentUnits="userSpaceOnUse" maskUnits="objectBoundingBox" x="0" y="0" width="80" height="40" fill="white">
            <use xlink:href="#path-1"></use>
        </mask>
        <rect id="path-3" x="0" y="0" width="80" height="40"></rect>
        <mask id="mask-4" maskContentUnits="userSpaceOnUse" maskUnits="objectBoundingBox" x="0" y="0" width="80" height="40" fill="white">
            <use xlink:href="#path-3"></use>
        </mask>
        <rect id="path-5" x="0" y="0" width="80" height="40"></rect>
        <mask id="mask-6" maskContentUnits="userSpaceOnUse" maskUnits="objectBoundingBox" x="0" y="0" width="80" height="40" fill="white">
            <use xlink:href="#path-5"></use>
        </mask>
        <rect id="path-7" x="0" y="0" width="80" height="40"></rect>
        <mask id="mask-8" maskContentUnits="userSpaceOnUse" maskUnits="objectBoundingBox" x="0" y="0" width="80" height="40" fill="white">
            <use xlink:href="#path-7"></use>
        </mask>
        <rect id="path-9" x="0" y="0" width="80" height="40"></rect>
        <mask id="mask-10" maskContentUnits="userSpaceOnUse" maskUnits="objectBoundingBox" x="0" y="0" width="80" height="40" fill="white">
            <use xlink:href="#path-9"></use>
        </mask>
        <rect id="path-11" x="0" y="0" width="80" height="40"></rect>
        <mask id="mask-12" maskContentUnits="userSpaceOnUse" maskUnits="objectBoundingBox" x="0" y="0" width="80" height="40" fill="white">
            <use xlink:href="#path-11"></use>
        </mask>
        <rect id="path-13" x="0" y="0" width="80" height="40"></rect>
        <mask id="mask-14" maskContentUnits="userSpaceOnUse" maskUnits="objectBoundingBox" x="0" y="0" width="80" height="40" fill="white">
            <use xlink:href="#path-13"></use>
        </mask>
    </defs>
    <g id="resolve" stroke="none" stroke-width="1" fill="none" fill-rule="evenodd">
        <g>
            <g transform="translate(75.000000, 20.000000)">
                <g id="config-map" transform="translate(520.000000, 48.000000)">
                    <use id="配置" stroke="#9E9E9E" mask="url(#mask-2)" stroke-width="2" xlink:href="#path-1"></use>
                    <path d="M34.9072266,25.5 L33.9707031,25.5 L33.9707031,20.9199219 C33.9707031,20.5553367 33.9069017,20.2727875 33.7792969,20.0722656 C33.6516921,19.8717438 33.4671236,19.7714844 33.2255859,19.7714844 C32.8701154,19.7714844 32.6092131,19.9583315 32.4428711,20.3320312 C32.2765291,20.705731 32.1933594,21.2298143 32.1933594,21.9042969 L32.1933594,25.5 L31.25,25.5 L31.25,20.9199219 C31.25,20.5553367 31.1850592,20.2727875 31.0551758,20.0722656 C30.9252923,19.8717438 30.7395845,19.7714844 30.4980469,19.7714844 C30.2747385,19.7714844 30.0970059,19.8375644 29.9648438,19.9697266 C29.8326816,20.1018887 29.7290043,20.2705068 29.6538086,20.4755859 C29.5786129,20.6806651 29.5296225,20.9085274 29.5068359,21.1591797 C29.4840494,21.409832 29.4726562,21.6582019 29.4726562,21.9042969 L29.4726562,25.5 L28.5361328,25.5 L28.5361328,19.1289062 L29.4726562,19.1289062 L29.4726562,20.0517578 C29.6686208,19.3362594 30.0947233,18.9785156 30.7509766,18.9785156 C31.3753286,18.9785156 31.7991525,19.290687 32.0224609,19.9150391 C32.3323583,19.290687 32.7698539,18.9785156 33.3349609,18.9785156 C33.8772814,18.9785156 34.2749011,19.1391585 34.527832,19.4604492 C34.780763,19.7817399 34.9072266,20.2682259 34.9072266,20.9199219 L34.9072266,25.5 Z M36.1650391,23.7773438 C36.1650391,23.3763001 36.2652985,23.0402032 36.4658203,22.769043 C36.6663421,22.4978828 36.9295231,22.2836922 37.2553711,22.1264648 C37.5812191,21.9692375 37.9549133,21.8553063 38.3764648,21.784668 C38.7980164,21.7140296 39.2275369,21.6787109 39.6650391,21.6787109 C39.8336597,21.6787109 39.9851881,21.6809896 40.1196289,21.6855469 C40.2540697,21.6901042 40.3816726,21.6969401 40.5024414,21.7060547 C40.6232102,21.7151693 40.7451166,21.7265624 40.8681641,21.7402344 C40.9912116,21.7539063 41.1256503,21.7698567 41.2714844,21.7880859 L41.2714844,21.3300781 C41.2714844,21.0201807 41.204265,20.764975 41.0698242,20.5644531 C40.9353834,20.3639313 40.7701833,20.205567 40.5742188,20.0893555 C40.3782542,19.973144 40.1731782,19.8911135 39.9589844,19.8432617 C39.7447906,19.7954099 39.5625008,19.7714844 39.4121094,19.7714844 C38.9381487,19.7714844 38.500653,19.8352858 38.0996094,19.9628906 C37.6985657,20.0904954 37.3248715,20.2613922 36.9785156,20.4755859 L36.5546875,19.7714844 C36.9375019,19.5390613 37.3670224,19.3487963 37.8432617,19.2006836 C38.3195011,19.0525709 38.8424451,18.9785156 39.4121094,18.9785156 C39.7584653,18.9785156 40.0991194,19.0229488 40.434082,19.1118164 C40.7690446,19.200684 41.0698229,19.3374014 41.3364258,19.5219727 C41.6030287,19.7065439 41.8160799,19.9492172 41.9755859,20.25 C42.1350919,20.5507828 42.2148438,20.9108052 42.2148438,21.3300781 L42.2148438,25.5 L41.2714844,25.5 L41.2714844,24.4335938 C41.1074211,24.6386729 40.9217133,24.8186841 40.7143555,24.9736328 C40.5069977,25.1285815 40.2893892,25.2550451 40.0615234,25.3530273 C39.8336577,25.4510096 39.6057954,25.5262042 39.3779297,25.5786133 C39.150064,25.6310224 38.9335948,25.6572266 38.7285156,25.6572266 C37.8854125,25.6572266 37.247398,25.4954443 36.8144531,25.171875 C36.3815083,24.8483057 36.1650391,24.3834666 36.1650391,23.7773438 Z M38.7285156,24.8574219 C39.1204447,24.8574219 39.4724919,24.799317 39.784668,24.6831055 C40.096844,24.566894 40.3623036,24.4222014 40.5810547,24.2490234 C40.7998058,24.0758455 40.9695632,23.891277 41.090332,23.6953125 C41.2111009,23.499348 41.2714844,23.3216154 41.2714844,23.1621094 L41.2714844,22.5605469 C40.9661443,22.5149737 40.6733412,22.4899089 40.3930664,22.4853516 C40.1127916,22.4807942 39.8701182,22.4785156 39.6650391,22.4785156 C39.3277978,22.4785156 39.003094,22.5013019 38.690918,22.546875 C38.3787419,22.5924481 38.1064465,22.6665034 37.8740234,22.769043 C37.6416004,22.8715825 37.4547533,23.004882 37.3134766,23.1689453 C37.1721998,23.3330086 37.1015625,23.5358061 37.1015625,23.7773438 C37.1015625,24.0462253 37.2325833,24.2934559 37.4946289,24.519043 C37.7566745,24.74463 38.1679659,24.8574219 38.7285156,24.8574219 Z M50.1923828,22.3212891 C50.1923828,22.8180363 50.1149096,23.2692037 49.9599609,23.6748047 C49.8050122,24.0804057 49.5874037,24.4301743 49.3071289,24.7241211 C49.0268541,25.0180679 48.6884785,25.2470695 48.2919922,25.4111328 C47.8955058,25.5751961 47.4511743,25.6572266 46.9589844,25.6572266 C46.6217431,25.6572266 46.2947607,25.5957037 45.9780273,25.4726562 C45.661294,25.3496088 45.3662123,25.1673189 45.0927734,24.9257812 L45.0927734,28.0498047 L44.15625,28.0498047 L44.15625,19.1289062 L45.0927734,19.1289062 L45.0927734,19.7167969 C45.6715524,19.2246069 46.2936165,18.9785156 46.9589844,18.9785156 C47.4511743,18.9785156 47.8955058,19.0594067 48.2919922,19.2211914 C48.6884785,19.3829761 49.0268541,19.613117 49.3071289,19.9116211 C49.5874037,20.2101252 49.8050122,20.5655904 49.9599609,20.9780273 C50.1149096,21.3904643 50.1923828,21.8382137 50.1923828,22.3212891 Z M49.2558594,22.3212891 C49.2558594,21.9658185 49.206869,21.6320003 49.1088867,21.3198242 C49.0109045,21.0076482 48.8639333,20.7376313 48.6679688,20.5097656 C48.4720042,20.2818999 48.2316095,20.1018887 47.9467773,19.9697266 C47.6619452,19.8375644 47.3326842,19.7714844 46.9589844,19.7714844 C46.6035138,19.7714844 46.2719742,19.8375644 45.9643555,19.9697266 C45.6567367,20.1018887 45.3662123,20.3160792 45.0927734,20.6123047 L45.0927734,24.0302734 C45.3662123,24.3264989 45.6567367,24.5384108 45.9643555,24.6660156 C46.2719742,24.7936204 46.6035138,24.8574219 46.9589844,24.8574219 C47.3326842,24.8574219 47.6619452,24.7913418 47.9467773,24.6591797 C48.2316095,24.5270176 48.4720042,24.3470063 48.6679688,24.1191406 C48.8639333,23.8912749 49.0109045,23.6235367 49.1088867,23.315918 C49.206869,23.0082992 49.2558594,22.6767596 49.2558594,22.3212891 Z" id="map" fill="#212121"></path>
                </g>
                <g id="config-alias-&amp;-config-paths" transform="translate(390.000000, 29.000000)">
                    <g id="config-paths" transform="translate(0.000000, 39.000000)">
                        <use id="配置" stroke="#9E9E9E" mask="url(#mask-4)" stroke-width="2" xlink:href="#path-3"></use>
                        <path d="M27.2646484,22.3212891 C27.2646484,22.8180363 27.1871753,23.2692037 27.0322266,23.6748047 C26.8772779,24.0804057 26.6596694,24.4301743 26.3793945,24.7241211 C26.0991197,25.0180679 25.7607442,25.2470695 25.3642578,25.4111328 C24.9677715,25.5751961 24.52344,25.6572266 24.03125,25.6572266 C23.6940087,25.6572266 23.3670263,25.5957037 23.050293,25.4726562 C22.7335596,25.3496088 22.4384779,25.1673189 22.1650391,24.9257812 L22.1650391,28.0498047 L21.2285156,28.0498047 L21.2285156,19.1289062 L22.1650391,19.1289062 L22.1650391,19.7167969 C22.743818,19.2246069 23.3658821,18.9785156 24.03125,18.9785156 C24.52344,18.9785156 24.9677715,19.0594067 25.3642578,19.2211914 C25.7607442,19.3829761 26.0991197,19.613117 26.3793945,19.9116211 C26.6596694,20.2101252 26.8772779,20.5655904 27.0322266,20.9780273 C27.1871753,21.3904643 27.2646484,21.8382137 27.2646484,22.3212891 Z M26.328125,22.3212891 C26.328125,21.9658185 26.2791346,21.6320003 26.1811523,21.3198242 C26.0831701,21.0076482 25.9361989,20.7376313 25.7402344,20.5097656 C25.5442699,20.2818999 25.3038751,20.1018887 25.019043,19.9697266 C24.7342108,19.8375644 24.4049498,19.7714844 24.03125,19.7714844 C23.6757795,19.7714844 23.3442398,19.8375644 23.0366211,19.9697266 C22.7290024,20.1018887 22.4384779,20.3160792 22.1650391,20.6123047 L22.1650391,24.0302734 C22.4384779,24.3264989 22.7290024,24.5384108 23.0366211,24.6660156 C23.3442398,24.7936204 23.6757795,24.8574219 24.03125,24.8574219 C24.4049498,24.8574219 24.7342108,24.7913418 25.019043,24.6591797 C25.3038751,24.5270176 25.5442699,24.3470063 25.7402344,24.1191406 C25.9361989,23.8912749 26.0831701,23.6235367 26.1811523,23.315918 C26.2791346,23.0082992 26.328125,22.6767596 26.328125,22.3212891 Z M28.5224609,23.7773438 C28.5224609,23.3763001 28.6227204,23.0402032 28.8232422,22.769043 C29.023764,22.4978828 29.286945,22.2836922 29.612793,22.1264648 C29.938641,21.9692375 30.3123351,21.8553063 30.7338867,21.784668 C31.1554383,21.7140296 31.5849587,21.6787109 32.0224609,21.6787109 C32.1910816,21.6787109 32.34261,21.6809896 32.4770508,21.6855469 C32.6114916,21.6901042 32.7390944,21.6969401 32.8598633,21.7060547 C32.9806321,21.7151693 33.1025384,21.7265624 33.2255859,21.7402344 C33.3486334,21.7539063 33.4830722,21.7698567 33.6289062,21.7880859 L33.6289062,21.3300781 C33.6289062,21.0201807 33.5616869,20.764975 33.4272461,20.5644531 C33.2928053,20.3639313 33.1276051,20.205567 32.9316406,20.0893555 C32.7356761,19.973144 32.5306,19.8911135 32.3164062,19.8432617 C32.1022125,19.7954099 31.9199226,19.7714844 31.7695312,19.7714844 C31.2955705,19.7714844 30.8580749,19.8352858 30.4570312,19.9628906 C30.0559876,20.0904954 29.6822934,20.2613922 29.3359375,20.4755859 L28.9121094,19.7714844 C29.2949238,19.5390613 29.7244442,19.3487963 30.2006836,19.2006836 C30.676923,19.0525709 31.1998669,18.9785156 31.7695312,18.9785156 C32.1158871,18.9785156 32.4565413,19.0229488 32.7915039,19.1118164 C33.1264665,19.200684 33.4272448,19.3374014 33.6938477,19.5219727 C33.9604506,19.7065439 34.1735018,19.9492172 34.3330078,20.25 C34.4925138,20.5507828 34.5722656,20.9108052 34.5722656,21.3300781 L34.5722656,25.5 L33.6289062,25.5 L33.6289062,24.4335938 C33.4648429,24.6386729 33.2791352,24.8186841 33.0717773,24.9736328 C32.8644195,25.1285815 32.646811,25.2550451 32.4189453,25.3530273 C32.1910796,25.4510096 31.9632173,25.5262042 31.7353516,25.5786133 C31.5074858,25.6310224 31.2910167,25.6572266 31.0859375,25.6572266 C30.2428343,25.6572266 29.6048199,25.4954443 29.171875,25.171875 C28.7389301,24.8483057 28.5224609,24.3834666 28.5224609,23.7773438 Z M31.0859375,24.8574219 C31.4778665,24.8574219 31.8299138,24.799317 32.1420898,24.6831055 C32.4542659,24.566894 32.7197255,24.4222014 32.9384766,24.2490234 C33.1572277,24.0758455 33.3269851,23.891277 33.4477539,23.6953125 C33.5685227,23.499348 33.6289062,23.3216154 33.6289062,23.1621094 L33.6289062,22.5605469 C33.3235662,22.5149737 33.0307631,22.4899089 32.7504883,22.4853516 C32.4702134,22.4807942 32.2275401,22.4785156 32.0224609,22.4785156 C31.6852197,22.4785156 31.3605159,22.5013019 31.0483398,22.546875 C30.7361638,22.5924481 30.4638683,22.6665034 30.2314453,22.769043 C29.9990223,22.8715825 29.8121752,23.004882 29.6708984,23.1689453 C29.5296217,23.3330086 29.4589844,23.5358061 29.4589844,23.7773438 C29.4589844,24.0462253 29.5900052,24.2934559 29.8520508,24.519043 C30.1140964,24.74463 30.5253878,24.8574219 31.0859375,24.8574219 Z M42.6181641,23.4697266 C42.545247,24.1396518 42.2820661,24.6717103 41.8286133,25.065918 C41.3751605,25.4601257 40.8089227,25.6572266 40.1298828,25.6572266 C39.756183,25.6572266 39.4143896,25.5957037 39.1044922,25.4726562 C38.7945948,25.3496088 38.5302745,25.178712 38.3115234,24.9599609 C38.0927723,24.7412098 37.9230149,24.4780289 37.8022461,24.1704102 C37.6814773,23.8627914 37.6210938,23.5266945 37.6210938,23.1621094 L37.6210938,19.9287109 L36.1787109,19.9287109 L36.1787109,19.1289062 L37.6210938,19.1289062 L37.6210938,16.5791016 L38.5576172,16.5791016 L38.5576172,19.1289062 L41.2714844,19.1289062 L41.2714844,19.9287109 L38.5576172,19.9287109 L38.5576172,23.1621094 C38.5576172,23.3945324 38.5952145,23.6132802 38.6704102,23.8183594 C38.7456058,24.0234385 38.8504225,24.2034497 38.9848633,24.3583984 C39.1193041,24.5133471 39.2822256,24.6352535 39.4736328,24.7241211 C39.66504,24.8129887 39.8837878,24.8574219 40.1298828,24.8574219 C40.5947289,24.8574219 40.9832341,24.7127293 41.2954102,24.4233398 C41.6075862,24.1339504 41.7864581,23.7591169 41.8320312,23.2988281 L42.6181641,23.4697266 Z M49.8574219,25.5 L48.9140625,25.5 L48.9140625,21.5693359 C48.9140625,20.9996716 48.7910169,20.5576188 48.5449219,20.2431641 C48.2988269,19.9287094 47.9000679,19.7714844 47.3486328,19.7714844 C47.0022769,19.7714844 46.6889662,19.8512362 46.4086914,20.0107422 C46.1284166,20.1702482 45.8903005,20.3832994 45.6943359,20.6499023 C45.4983714,20.9165052 45.3491216,21.2218407 45.246582,21.565918 C45.1440425,21.9099952 45.0927734,22.2688783 45.0927734,22.6425781 L45.0927734,25.5 L44.15625,25.5 L44.15625,16.5791016 L45.0927734,16.5791016 L45.0927734,20.7285156 C45.5439476,19.5618431 46.3483015,18.9785156 47.5058594,18.9785156 C49.0735755,18.9785156 49.8574219,19.8421138 49.8574219,21.5693359 L49.8574219,25.5 Z M57.6640625,23.7363281 C57.6640625,24.1100279 57.570639,24.4199206 57.3837891,24.6660156 C57.1969392,24.9121106 56.9565444,25.1080722 56.6625977,25.2539062 C56.3686509,25.3997403 56.0405292,25.5034177 55.6782227,25.5649414 C55.3159162,25.6264652 54.9615903,25.6572266 54.6152344,25.6572266 C54.0364554,25.6572266 53.4599638,25.5729175 52.8857422,25.4042969 C52.3115206,25.2356762 51.8147807,25.0146498 51.3955078,24.7412109 L51.8125,23.9345703 C52.2819034,24.2307958 52.7444639,24.4586581 53.2001953,24.6181641 C53.6559268,24.7776701 54.1276017,24.8574219 54.6152344,24.8574219 C56.0234445,24.8574219 56.7275391,24.4928422 56.7275391,23.7636719 C56.7275391,23.5859366 56.6694342,23.441244 56.5532227,23.3295898 C56.4370111,23.2179356 56.2809255,23.1267907 56.0849609,23.0561523 C55.8889964,22.985514 55.664552,22.9296877 55.4116211,22.8886719 C55.1586901,22.847656 54.8932306,22.8089195 54.6152344,22.7724609 C54.2597638,22.7223305 53.9065773,22.6630863 53.5556641,22.5947266 C53.2047508,22.5263668 52.8846043,22.4238288 52.5952148,22.2871094 C52.3058254,22.1503899 52.0734058,21.9681001 51.8979492,21.7402344 C51.7224926,21.5123687 51.6347656,21.2115904 51.6347656,20.8378906 C51.6347656,20.5188786 51.7156567,20.2431652 51.8774414,20.0107422 C52.0392261,19.7783192 52.2556953,19.5846362 52.5268555,19.4296875 C52.7980157,19.2747388 53.1158836,19.1608077 53.4804688,19.0878906 C53.8450539,19.0149736 54.2233053,18.9785156 54.6152344,18.9785156 C55.1757841,18.9785156 55.6770811,19.0434564 56.1191406,19.1733398 C56.5612001,19.3032233 56.9599592,19.4889311 57.3154297,19.7304688 L56.9394531,20.4619141 C56.574868,20.2067045 56.205731,20.0278325 55.8320312,19.925293 C55.4583315,19.8227534 55.0527366,19.7714844 54.6152344,19.7714844 C54.4192699,19.7714844 54.2016614,19.788574 53.9624023,19.8227539 C53.7231433,19.8569338 53.5009776,19.916178 53.2958984,20.0004883 C53.0908193,20.0847986 52.9187832,20.1941725 52.7797852,20.3286133 C52.6407871,20.4630541 52.5712891,20.6328115 52.5712891,20.8378906 C52.5712891,21.0156259 52.629394,21.1580398 52.7456055,21.2651367 C52.861817,21.3722336 53.0179027,21.4610999 53.2138672,21.5317383 C53.4098317,21.6023767 53.6342761,21.6582029 53.887207,21.6992188 C54.140138,21.7402346 54.4055976,21.7789712 54.6835938,21.8154297 C55.0299496,21.8655601 55.3797183,21.9248043 55.7329102,21.9931641 C56.086102,22.0615238 56.4073879,22.1617832 56.6967773,22.2939453 C56.9861668,22.4261074 57.2197257,22.6061187 57.3974609,22.8339844 C57.5751962,23.0618501 57.6640625,23.3626283 57.6640625,23.7363281 Z" id="paths" fill="#212121"></path>
                    </g>
                    <g id="config-alias">
                        <use id="配置" stroke="#9E9E9E" mask="url(#mask-6)" stroke-width="2" xlink:href="#path-5"></use>
                        <path d="M20.8798828,23.7773438 C20.8798828,23.3763001 20.9801422,23.0402032 21.1806641,22.769043 C21.3811859,22.4978828 21.6443669,22.2836922 21.9702148,22.1264648 C22.2960628,21.9692375 22.669757,21.8553063 23.0913086,21.784668 C23.5128602,21.7140296 23.9423806,21.6787109 24.3798828,21.6787109 C24.5485034,21.6787109 24.7000319,21.6809896 24.8344727,21.6855469 C24.9689134,21.6901042 25.0965163,21.6969401 25.2172852,21.7060547 C25.338054,21.7151693 25.4599603,21.7265624 25.5830078,21.7402344 C25.7060553,21.7539063 25.8404941,21.7698567 25.9863281,21.7880859 L25.9863281,21.3300781 C25.9863281,21.0201807 25.9191087,20.764975 25.784668,20.5644531 C25.6502272,20.3639313 25.485027,20.205567 25.2890625,20.0893555 C25.093098,19.973144 24.8880219,19.8911135 24.6738281,19.8432617 C24.4596343,19.7954099 24.2773445,19.7714844 24.1269531,19.7714844 C23.6529924,19.7714844 23.2154968,19.8352858 22.8144531,19.9628906 C22.4134095,20.0904954 22.0397153,20.2613922 21.6933594,20.4755859 L21.2695312,19.7714844 C21.6523457,19.5390613 22.0818661,19.3487963 22.5581055,19.2006836 C23.0343448,19.0525709 23.5572888,18.9785156 24.1269531,18.9785156 C24.473309,18.9785156 24.8139632,19.0229488 25.1489258,19.1118164 C25.4838884,19.200684 25.7846666,19.3374014 26.0512695,19.5219727 C26.3178724,19.7065439 26.5309237,19.9492172 26.6904297,20.25 C26.8499357,20.5507828 26.9296875,20.9108052 26.9296875,21.3300781 L26.9296875,25.5 L25.9863281,25.5 L25.9863281,24.4335938 C25.8222648,24.6386729 25.636557,24.8186841 25.4291992,24.9736328 C25.2218414,25.1285815 25.0042329,25.2550451 24.7763672,25.3530273 C24.5485015,25.4510096 24.3206392,25.5262042 24.0927734,25.5786133 C23.8649077,25.6310224 23.6484385,25.6572266 23.4433594,25.6572266 C22.6002562,25.6572266 21.9622417,25.4954443 21.5292969,25.171875 C21.096352,24.8483057 20.8798828,24.3834666 20.8798828,23.7773438 Z M23.4433594,24.8574219 C23.8352884,24.8574219 24.1873357,24.799317 24.4995117,24.6831055 C24.8116878,24.566894 25.0771473,24.4222014 25.2958984,24.2490234 C25.5146495,24.0758455 25.6844069,23.891277 25.8051758,23.6953125 C25.9259446,23.499348 25.9863281,23.3216154 25.9863281,23.1621094 L25.9863281,22.5605469 C25.6809881,22.5149737 25.388185,22.4899089 25.1079102,22.4853516 C24.8276353,22.4807942 24.584962,22.4785156 24.3798828,22.4785156 C24.0426415,22.4785156 23.7179378,22.5013019 23.4057617,22.546875 C23.0935857,22.5924481 22.8212902,22.6665034 22.5888672,22.769043 C22.3564442,22.8715825 22.1695971,23.004882 22.0283203,23.1689453 C21.8870436,23.3330086 21.8164062,23.5358061 21.8164062,23.7773438 C21.8164062,24.0462253 21.9474271,24.2934559 22.2094727,24.519043 C22.4715182,24.74463 22.8828097,24.8574219 23.4433594,24.8574219 Z M33.6289062,25.5 L29.8076172,25.5 L29.8076172,24.7001953 L31.25,24.7001953 L31.25,17.3789062 L29.8076172,17.3789062 L29.8076172,16.5791016 L32.1933594,16.5791016 L32.1933594,24.7001953 L33.6289062,24.7001953 L33.6289062,25.5 Z M40,17.8574219 L38.7285156,17.8574219 L38.7285156,16.5791016 L40,16.5791016 L40,17.8574219 Z M41.2714844,25.5 L37.4501953,25.5 L37.4501953,24.7001953 L38.8925781,24.7001953 L38.8925781,19.9287109 L37.4501953,19.9287109 L37.4501953,19.1289062 L39.8359375,19.1289062 L39.8359375,24.7001953 L41.2714844,24.7001953 L41.2714844,25.5 Z M43.8076172,23.7773438 C43.8076172,23.3763001 43.9078766,23.0402032 44.1083984,22.769043 C44.3089203,22.4978828 44.5721012,22.2836922 44.8979492,22.1264648 C45.2237972,21.9692375 45.5974914,21.8553063 46.019043,21.784668 C46.4405946,21.7140296 46.870115,21.6787109 47.3076172,21.6787109 C47.4762378,21.6787109 47.6277663,21.6809896 47.762207,21.6855469 C47.8966478,21.6901042 48.0242507,21.6969401 48.1450195,21.7060547 C48.2657884,21.7151693 48.3876947,21.7265624 48.5107422,21.7402344 C48.6337897,21.7539063 48.7682284,21.7698567 48.9140625,21.7880859 L48.9140625,21.3300781 C48.9140625,21.0201807 48.8468431,20.764975 48.7124023,20.5644531 C48.5779616,20.3639313 48.4127614,20.205567 48.2167969,20.0893555 C48.0208324,19.973144 47.8157563,19.8911135 47.6015625,19.8432617 C47.3873687,19.7954099 47.2050789,19.7714844 47.0546875,19.7714844 C46.5807268,19.7714844 46.1432312,19.8352858 45.7421875,19.9628906 C45.3411438,20.0904954 44.9674496,20.2613922 44.6210938,20.4755859 L44.1972656,19.7714844 C44.58008,19.5390613 45.0096005,19.3487963 45.4858398,19.2006836 C45.9620792,19.0525709 46.4850232,18.9785156 47.0546875,18.9785156 C47.4010434,18.9785156 47.7416975,19.0229488 48.0766602,19.1118164 C48.4116228,19.200684 48.712401,19.3374014 48.9790039,19.5219727 C49.2456068,19.7065439 49.4586581,19.9492172 49.6181641,20.25 C49.7776701,20.5507828 49.8574219,20.9108052 49.8574219,21.3300781 L49.8574219,25.5 L48.9140625,25.5 L48.9140625,24.4335938 C48.7499992,24.6386729 48.5642914,24.8186841 48.3569336,24.9736328 C48.1495758,25.1285815 47.9319673,25.2550451 47.7041016,25.3530273 C47.4762358,25.4510096 47.2483735,25.5262042 47.0205078,25.5786133 C46.7926421,25.6310224 46.5761729,25.6572266 46.3710938,25.6572266 C45.5279906,25.6572266 44.8899761,25.4954443 44.4570312,25.171875 C44.0240864,24.8483057 43.8076172,24.3834666 43.8076172,23.7773438 Z M46.3710938,24.8574219 C46.7630228,24.8574219 47.1150701,24.799317 47.4272461,24.6831055 C47.7394221,24.566894 48.0048817,24.4222014 48.2236328,24.2490234 C48.4423839,24.0758455 48.6121413,23.891277 48.7329102,23.6953125 C48.853679,23.499348 48.9140625,23.3216154 48.9140625,23.1621094 L48.9140625,22.5605469 C48.6087224,22.5149737 48.3159194,22.4899089 48.0356445,22.4853516 C47.7553697,22.4807942 47.5126963,22.4785156 47.3076172,22.4785156 C46.9703759,22.4785156 46.6456721,22.5013019 46.3334961,22.546875 C46.0213201,22.5924481 45.7490246,22.6665034 45.5166016,22.769043 C45.2841785,22.8715825 45.0973314,23.004882 44.9560547,23.1689453 C44.8147779,23.3330086 44.7441406,23.5358061 44.7441406,23.7773438 C44.7441406,24.0462253 44.8751615,24.2934559 45.137207,24.519043 C45.3992526,24.74463 45.8105441,24.8574219 46.3710938,24.8574219 Z M57.6640625,23.7363281 C57.6640625,24.1100279 57.570639,24.4199206 57.3837891,24.6660156 C57.1969392,24.9121106 56.9565444,25.1080722 56.6625977,25.2539062 C56.3686509,25.3997403 56.0405292,25.5034177 55.6782227,25.5649414 C55.3159162,25.6264652 54.9615903,25.6572266 54.6152344,25.6572266 C54.0364554,25.6572266 53.4599638,25.5729175 52.8857422,25.4042969 C52.3115206,25.2356762 51.8147807,25.0146498 51.3955078,24.7412109 L51.8125,23.9345703 C52.2819034,24.2307958 52.7444639,24.4586581 53.2001953,24.6181641 C53.6559268,24.7776701 54.1276017,24.8574219 54.6152344,24.8574219 C56.0234445,24.8574219 56.7275391,24.4928422 56.7275391,23.7636719 C56.7275391,23.5859366 56.6694342,23.441244 56.5532227,23.3295898 C56.4370111,23.2179356 56.2809255,23.1267907 56.0849609,23.0561523 C55.8889964,22.985514 55.664552,22.9296877 55.4116211,22.8886719 C55.1586901,22.847656 54.8932306,22.8089195 54.6152344,22.7724609 C54.2597638,22.7223305 53.9065773,22.6630863 53.5556641,22.5947266 C53.2047508,22.5263668 52.8846043,22.4238288 52.5952148,22.2871094 C52.3058254,22.1503899 52.0734058,21.9681001 51.8979492,21.7402344 C51.7224926,21.5123687 51.6347656,21.2115904 51.6347656,20.8378906 C51.6347656,20.5188786 51.7156567,20.2431652 51.8774414,20.0107422 C52.0392261,19.7783192 52.2556953,19.5846362 52.5268555,19.4296875 C52.7980157,19.2747388 53.1158836,19.1608077 53.4804688,19.0878906 C53.8450539,19.0149736 54.2233053,18.9785156 54.6152344,18.9785156 C55.1757841,18.9785156 55.6770811,19.0434564 56.1191406,19.1733398 C56.5612001,19.3032233 56.9599592,19.4889311 57.3154297,19.7304688 L56.9394531,20.4619141 C56.574868,20.2067045 56.205731,20.0278325 55.8320312,19.925293 C55.4583315,19.8227534 55.0527366,19.7714844 54.6152344,19.7714844 C54.4192699,19.7714844 54.2016614,19.788574 53.9624023,19.8227539 C53.7231433,19.8569338 53.5009776,19.916178 53.2958984,20.0004883 C53.0908193,20.0847986 52.9187832,20.1941725 52.7797852,20.3286133 C52.6407871,20.4630541 52.5712891,20.6328115 52.5712891,20.8378906 C52.5712891,21.0156259 52.629394,21.1580398 52.7456055,21.2651367 C52.861817,21.3722336 53.0179027,21.4610999 53.2138672,21.5317383 C53.4098317,21.6023767 53.6342761,21.6582029 53.887207,21.6992188 C54.140138,21.7402346 54.4055976,21.7789712 54.6835938,21.8154297 C55.0299496,21.8655601 55.3797183,21.9248043 55.7329102,21.9931641 C56.086102,22.0615238 56.4073879,22.1617832 56.6967773,22.2939453 C56.9861668,22.4261074 57.2197257,22.6061187 57.3974609,22.8339844 C57.5751962,23.0618501 57.6640625,23.3626283 57.6640625,23.7363281 Z" id="alias" fill="#212121"></path>
                    </g>
                </g>
                <g id="config-vars" transform="translate(260.000000, 48.000000)">
                    <use id="配置" stroke="#9E9E9E" mask="url(#mask-8)" stroke-width="2" xlink:href="#path-7"></use>
                    <path d="M31.2978516,19.1289062 L28.5361328,25.5 L27.2783203,25.5 L24.5029297,19.1289062 L25.6240234,19.1289062 L27.9072266,24.7138672 L30.1767578,19.1289062 L31.2978516,19.1289062 Z M32.34375,23.7773438 C32.34375,23.3763001 32.4440094,23.0402032 32.6445312,22.769043 C32.8450531,22.4978828 33.108234,22.2836922 33.434082,22.1264648 C33.75993,21.9692375 34.1336242,21.8553063 34.5551758,21.784668 C34.9767274,21.7140296 35.4062478,21.6787109 35.84375,21.6787109 C36.0123706,21.6787109 36.1638991,21.6809896 36.2983398,21.6855469 C36.4327806,21.6901042 36.5603835,21.6969401 36.6811523,21.7060547 C36.8019212,21.7151693 36.9238275,21.7265624 37.046875,21.7402344 C37.1699225,21.7539063 37.3043612,21.7698567 37.4501953,21.7880859 L37.4501953,21.3300781 C37.4501953,21.0201807 37.3829759,20.764975 37.2485352,20.5644531 C37.1140944,20.3639313 36.9488942,20.205567 36.7529297,20.0893555 C36.5569652,19.973144 36.3518891,19.8911135 36.1376953,19.8432617 C35.9235015,19.7954099 35.7412117,19.7714844 35.5908203,19.7714844 C35.1168596,19.7714844 34.679364,19.8352858 34.2783203,19.9628906 C33.8772766,20.0904954 33.5035825,20.2613922 33.1572266,20.4755859 L32.7333984,19.7714844 C33.1162129,19.5390613 33.5457333,19.3487963 34.0219727,19.2006836 C34.498212,19.0525709 35.021156,18.9785156 35.5908203,18.9785156 C35.9371762,18.9785156 36.2778304,19.0229488 36.612793,19.1118164 C36.9477556,19.200684 37.2485338,19.3374014 37.5151367,19.5219727 C37.7817396,19.7065439 37.9947909,19.9492172 38.1542969,20.25 C38.3138029,20.5507828 38.3935547,20.9108052 38.3935547,21.3300781 L38.3935547,25.5 L37.4501953,25.5 L37.4501953,24.4335938 C37.286132,24.6386729 37.1004242,24.8186841 36.8930664,24.9736328 C36.6857086,25.1285815 36.4681001,25.2550451 36.2402344,25.3530273 C36.0123687,25.4510096 35.7845063,25.5262042 35.5566406,25.5786133 C35.3287749,25.6310224 35.1123057,25.6572266 34.9072266,25.6572266 C34.0641234,25.6572266 33.4261089,25.4954443 32.9931641,25.171875 C32.5602192,24.8483057 32.34375,24.3834666 32.34375,23.7773438 Z M34.9072266,24.8574219 C35.2991556,24.8574219 35.6512029,24.799317 35.9633789,24.6831055 C36.2755549,24.566894 36.5410145,24.4222014 36.7597656,24.2490234 C36.9785167,24.0758455 37.1482741,23.891277 37.269043,23.6953125 C37.3898118,23.499348 37.4501953,23.3216154 37.4501953,23.1621094 L37.4501953,22.5605469 C37.1448552,22.5149737 36.8520522,22.4899089 36.5717773,22.4853516 C36.2915025,22.4807942 36.0488292,22.4785156 35.84375,22.4785156 C35.5065087,22.4785156 35.1818049,22.5013019 34.8696289,22.546875 C34.5574529,22.5924481 34.2851574,22.6665034 34.0527344,22.769043 C33.8203113,22.8715825 33.6334642,23.004882 33.4921875,23.1689453 C33.3509108,23.3330086 33.2802734,23.5358061 33.2802734,23.7773438 C33.2802734,24.0462253 33.4112943,24.2934559 33.6733398,24.519043 C33.9353854,24.74463 34.3466769,24.8574219 34.9072266,24.8574219 Z M46.0224609,20.0244141 C45.6852197,19.8557934 45.284182,19.7714844 44.8193359,19.7714844 C44.4365215,19.7714844 44.0947281,19.8535148 43.7939453,20.0175781 C43.4931626,20.1816414 43.2379568,20.3969713 43.0283203,20.6635742 C42.8186838,20.9301771 42.6580409,21.2355126 42.5463867,21.5795898 C42.4347325,21.9236671 42.3789062,22.277993 42.3789062,22.6425781 L42.3789062,24.7001953 L43.8212891,24.7001953 L43.8212891,25.5 L40,25.5 L40,24.7001953 L41.4423828,24.7001953 L41.4423828,19.9287109 L40,19.9287109 L40,19.1289062 L42.3789062,19.1289062 L42.3789062,20.7285156 C42.8072938,19.5618431 43.6207622,18.9785156 44.8193359,18.9785156 C45.1429053,18.9785156 45.4243152,18.9990232 45.6635742,19.0400391 C45.9028332,19.0810549 46.124999,19.1539708 46.3300781,19.2587891 L46.0224609,20.0244141 Z M53.8427734,23.7363281 C53.8427734,24.1100279 53.7493499,24.4199206 53.5625,24.6660156 C53.3756501,24.9121106 53.1352554,25.1080722 52.8413086,25.2539062 C52.5473618,25.3997403 52.2192401,25.5034177 51.8569336,25.5649414 C51.4946271,25.6264652 51.1403012,25.6572266 50.7939453,25.6572266 C50.2151664,25.6572266 49.6386747,25.5729175 49.0644531,25.4042969 C48.4902315,25.2356762 47.9934917,25.0146498 47.5742188,24.7412109 L47.9912109,23.9345703 C48.4606143,24.2307958 48.9231748,24.4586581 49.3789062,24.6181641 C49.8346377,24.7776701 50.3063127,24.8574219 50.7939453,24.8574219 C52.2021555,24.8574219 52.90625,24.4928422 52.90625,23.7636719 C52.90625,23.5859366 52.8481451,23.441244 52.7319336,23.3295898 C52.6157221,23.2179356 52.4596364,23.1267907 52.2636719,23.0561523 C52.0677074,22.985514 51.843263,22.9296877 51.590332,22.8886719 C51.3374011,22.847656 51.0719415,22.8089195 50.7939453,22.7724609 C50.4384748,22.7223305 50.0852882,22.6630863 49.734375,22.5947266 C49.3834618,22.5263668 49.0633152,22.4238288 48.7739258,22.2871094 C48.4845363,22.1503899 48.2521168,21.9681001 48.0766602,21.7402344 C47.9012035,21.5123687 47.8134766,21.2115904 47.8134766,20.8378906 C47.8134766,20.5188786 47.8943677,20.2431652 48.0561523,20.0107422 C48.217937,19.7783192 48.4344062,19.5846362 48.7055664,19.4296875 C48.9767266,19.2747388 49.2945945,19.1608077 49.6591797,19.0878906 C50.0237648,19.0149736 50.4020163,18.9785156 50.7939453,18.9785156 C51.354495,18.9785156 51.8557921,19.0434564 52.2978516,19.1733398 C52.7399111,19.3032233 53.1386701,19.4889311 53.4941406,19.7304688 L53.1181641,20.4619141 C52.7535789,20.2067045 52.384442,20.0278325 52.0107422,19.925293 C51.6370424,19.8227534 51.2314475,19.7714844 50.7939453,19.7714844 C50.5979808,19.7714844 50.3803723,19.788574 50.1411133,19.8227539 C49.9018543,19.8569338 49.6796885,19.916178 49.4746094,20.0004883 C49.2695302,20.0847986 49.0974942,20.1941725 48.9584961,20.3286133 C48.819498,20.4630541 48.75,20.6328115 48.75,20.8378906 C48.75,21.0156259 48.8081049,21.1580398 48.9243164,21.2651367 C49.0405279,21.3722336 49.1966136,21.4610999 49.3925781,21.5317383 C49.5885426,21.6023767 49.812987,21.6582029 50.065918,21.6992188 C50.3188489,21.7402346 50.5843085,21.7789712 50.8623047,21.8154297 C51.2086606,21.8655601 51.5584292,21.9248043 51.9116211,21.9931641 C52.264813,22.0615238 52.5860988,22.1617832 52.8754883,22.2939453 C53.1648777,22.4261074 53.3984366,22.6061187 53.5761719,22.8339844 C53.7539071,23.0618501 53.8427734,23.3626283 53.8427734,23.7363281 Z" id="vars" fill="#212121"></path>
                </g>
                <g id="config-base" transform="translate(130.000000, 48.000000)">
                    <use id="配置" stroke="#9E9E9E" mask="url(#mask-10)" stroke-width="2" xlink:href="#path-9"></use>
                    <path d="M31.0859375,22.3212891 C31.0859375,22.8089217 31.0107429,23.2578104 30.8603516,23.6679688 C30.7099602,24.0781271 30.4946303,24.4301743 30.2143555,24.7241211 C29.9340806,25.0180679 29.5957051,25.2470695 29.1992188,25.4111328 C28.8027324,25.5751961 28.3584009,25.6572266 27.8662109,25.6572266 C27.519855,25.6572266 27.1883154,25.5957037 26.871582,25.4726562 C26.5548487,25.3496088 26.259767,25.1673189 25.9863281,24.9257812 L25.9863281,25.5 L25.0498047,25.5 L25.0498047,16.5791016 L25.9863281,16.5791016 L25.9863281,19.7167969 C26.259767,19.4843738 26.5548487,19.3032233 26.871582,19.1733398 C27.1883154,19.0434564 27.519855,18.9785156 27.8662109,18.9785156 C28.3584009,18.9785156 28.8027324,19.0616854 29.1992188,19.2280273 C29.5957051,19.3943693 29.9340806,19.6245102 30.2143555,19.918457 C30.4946303,20.2124038 30.7099602,20.5655904 30.8603516,20.9780273 C31.0107429,21.3904643 31.0859375,21.8382137 31.0859375,22.3212891 Z M30.1357422,22.3212891 C30.1357422,21.9567039 30.0890304,21.620607 29.9956055,21.3129883 C29.9021805,21.0053696 29.7597666,20.7376313 29.5683594,20.5097656 C29.3769522,20.2818999 29.1388361,20.1018887 28.8540039,19.9697266 C28.5691718,19.8375644 28.2399107,19.7714844 27.8662109,19.7714844 C27.1461553,19.7714844 26.5195339,20.0563123 25.9863281,20.6259766 L25.9863281,24.0302734 C26.259767,24.3264989 26.5525701,24.5384108 26.8647461,24.6660156 C27.1769221,24.7936204 27.5107404,24.8574219 27.8662109,24.8574219 C28.2399107,24.8574219 28.5668931,24.7913418 28.847168,24.6591797 C29.1274428,24.5270176 29.3632803,24.3470063 29.5546875,24.1191406 C29.7460947,23.8912749 29.8907873,23.6235367 29.9887695,23.315918 C30.0867518,23.0082992 30.1357422,22.6767596 30.1357422,22.3212891 Z M32.34375,23.7773438 C32.34375,23.3763001 32.4440094,23.0402032 32.6445312,22.769043 C32.8450531,22.4978828 33.108234,22.2836922 33.434082,22.1264648 C33.75993,21.9692375 34.1336242,21.8553063 34.5551758,21.784668 C34.9767274,21.7140296 35.4062478,21.6787109 35.84375,21.6787109 C36.0123706,21.6787109 36.1638991,21.6809896 36.2983398,21.6855469 C36.4327806,21.6901042 36.5603835,21.6969401 36.6811523,21.7060547 C36.8019212,21.7151693 36.9238275,21.7265624 37.046875,21.7402344 C37.1699225,21.7539063 37.3043612,21.7698567 37.4501953,21.7880859 L37.4501953,21.3300781 C37.4501953,21.0201807 37.3829759,20.764975 37.2485352,20.5644531 C37.1140944,20.3639313 36.9488942,20.205567 36.7529297,20.0893555 C36.5569652,19.973144 36.3518891,19.8911135 36.1376953,19.8432617 C35.9235015,19.7954099 35.7412117,19.7714844 35.5908203,19.7714844 C35.1168596,19.7714844 34.679364,19.8352858 34.2783203,19.9628906 C33.8772766,20.0904954 33.5035825,20.2613922 33.1572266,20.4755859 L32.7333984,19.7714844 C33.1162129,19.5390613 33.5457333,19.3487963 34.0219727,19.2006836 C34.498212,19.0525709 35.021156,18.9785156 35.5908203,18.9785156 C35.9371762,18.9785156 36.2778304,19.0229488 36.612793,19.1118164 C36.9477556,19.200684 37.2485338,19.3374014 37.5151367,19.5219727 C37.7817396,19.7065439 37.9947909,19.9492172 38.1542969,20.25 C38.3138029,20.5507828 38.3935547,20.9108052 38.3935547,21.3300781 L38.3935547,25.5 L37.4501953,25.5 L37.4501953,24.4335938 C37.286132,24.6386729 37.1004242,24.8186841 36.8930664,24.9736328 C36.6857086,25.1285815 36.4681001,25.2550451 36.2402344,25.3530273 C36.0123687,25.4510096 35.7845063,25.5262042 35.5566406,25.5786133 C35.3287749,25.6310224 35.1123057,25.6572266 34.9072266,25.6572266 C34.0641234,25.6572266 33.4261089,25.4954443 32.9931641,25.171875 C32.5602192,24.8483057 32.34375,24.3834666 32.34375,23.7773438 Z M34.9072266,24.8574219 C35.2991556,24.8574219 35.6512029,24.799317 35.9633789,24.6831055 C36.2755549,24.566894 36.5410145,24.4222014 36.7597656,24.2490234 C36.9785167,24.0758455 37.1482741,23.891277 37.269043,23.6953125 C37.3898118,23.499348 37.4501953,23.3216154 37.4501953,23.1621094 L37.4501953,22.5605469 C37.1448552,22.5149737 36.8520522,22.4899089 36.5717773,22.4853516 C36.2915025,22.4807942 36.0488292,22.4785156 35.84375,22.4785156 C35.5065087,22.4785156 35.1818049,22.5013019 34.8696289,22.546875 C34.5574529,22.5924481 34.2851574,22.6665034 34.0527344,22.769043 C33.8203113,22.8715825 33.6334642,23.004882 33.4921875,23.1689453 C33.3509108,23.3330086 33.2802734,23.5358061 33.2802734,23.7773438 C33.2802734,24.0462253 33.4112943,24.2934559 33.6733398,24.519043 C33.9353854,24.74463 34.3466769,24.8574219 34.9072266,24.8574219 Z M46.2001953,23.7363281 C46.2001953,24.1100279 46.1067718,24.4199206 45.9199219,24.6660156 C45.733072,24.9121106 45.4926773,25.1080722 45.1987305,25.2539062 C44.9047837,25.3997403 44.576662,25.5034177 44.2143555,25.5649414 C43.852049,25.6264652 43.4977231,25.6572266 43.1513672,25.6572266 C42.5725883,25.6572266 41.9960966,25.5729175 41.421875,25.4042969 C40.8476534,25.2356762 40.3509136,25.0146498 39.9316406,24.7412109 L40.3486328,23.9345703 C40.8180362,24.2307958 41.2805967,24.4586581 41.7363281,24.6181641 C42.1920596,24.7776701 42.6637345,24.8574219 43.1513672,24.8574219 C44.5595774,24.8574219 45.2636719,24.4928422 45.2636719,23.7636719 C45.2636719,23.5859366 45.205567,23.441244 45.0893555,23.3295898 C44.973144,23.2179356 44.8170583,23.1267907 44.6210938,23.0561523 C44.4251292,22.985514 44.2006849,22.9296877 43.9477539,22.8886719 C43.694823,22.847656 43.4293634,22.8089195 43.1513672,22.7724609 C42.7958967,22.7223305 42.4427101,22.6630863 42.0917969,22.5947266 C41.7408837,22.5263668 41.4207371,22.4238288 41.1313477,22.2871094 C40.8419582,22.1503899 40.6095386,21.9681001 40.434082,21.7402344 C40.2586254,21.5123687 40.1708984,21.2115904 40.1708984,20.8378906 C40.1708984,20.5188786 40.2517896,20.2431652 40.4135742,20.0107422 C40.5753589,19.7783192 40.7918281,19.5846362 41.0629883,19.4296875 C41.3341485,19.2747388 41.6520164,19.1608077 42.0166016,19.0878906 C42.3811867,19.0149736 42.7594381,18.9785156 43.1513672,18.9785156 C43.7119169,18.9785156 44.2132139,19.0434564 44.6552734,19.1733398 C45.0973329,19.3032233 45.496092,19.4889311 45.8515625,19.7304688 L45.4755859,20.4619141 C45.1110008,20.2067045 44.7418638,20.0278325 44.3681641,19.925293 C43.9944643,19.8227534 43.5888694,19.7714844 43.1513672,19.7714844 C42.9554027,19.7714844 42.7377942,19.788574 42.4985352,19.8227539 C42.2592761,19.8569338 42.0371104,19.916178 41.8320312,20.0004883 C41.6269521,20.0847986 41.4549161,20.1941725 41.315918,20.3286133 C41.1769199,20.4630541 41.1074219,20.6328115 41.1074219,20.8378906 C41.1074219,21.0156259 41.1655268,21.1580398 41.2817383,21.2651367 C41.3979498,21.3722336 41.5540355,21.4610999 41.75,21.5317383 C41.9459645,21.6023767 42.1704089,21.6582029 42.4233398,21.6992188 C42.6762708,21.7402346 42.9417304,21.7789712 43.2197266,21.8154297 C43.5660825,21.8655601 43.9158511,21.9248043 44.269043,21.9931641 C44.6222348,22.0615238 44.9435207,22.1617832 45.2329102,22.2939453 C45.5222996,22.4261074 45.7558585,22.6061187 45.9335938,22.8339844 C46.111329,23.0618501 46.2001953,23.3626283 46.2001953,23.7363281 Z M48.5791016,22.6425781 C48.6474613,23.3170607 48.8935526,23.8548157 49.3173828,24.2558594 C49.7412131,24.656903 50.2926398,24.8574219 50.9716797,24.8574219 C51.4501977,24.8574219 51.8763002,24.7594411 52.25,24.5634766 C52.6236998,24.367512 52.9039704,24.1236994 53.0908203,23.8320312 L53.7470703,24.2832031 C53.4280583,24.7298199 53.0475283,25.0704741 52.6054688,25.3051758 C52.1634092,25.5398775 51.6188183,25.6572266 50.9716797,25.6572266 C50.4794897,25.6572266 50.0283224,25.5751961 49.6181641,25.4111328 C49.2080058,25.2470695 48.8536799,25.0180679 48.5551758,24.7241211 C48.2566717,24.4301743 48.0253914,24.0804057 47.8613281,23.6748047 C47.6972648,23.2692037 47.6152344,22.8180363 47.6152344,22.3212891 C47.6152344,21.8382137 47.6892896,21.3927429 47.8374023,20.9848633 C47.9855151,20.5769836 48.1997056,20.2237971 48.4799805,19.925293 C48.7602553,19.6267889 49.1009095,19.3943693 49.5019531,19.2280273 C49.9029968,19.0616854 50.3518855,18.9785156 50.8486328,18.9785156 C51.3909532,18.9785156 51.8649068,19.0696605 52.2705078,19.2519531 C52.6761088,19.4342457 53.0144843,19.6860335 53.2856445,20.0073242 C53.5568047,20.3286149 53.7573236,20.7125629 53.887207,21.1591797 C54.0170905,21.6057965 54.0820312,22.1002577 54.0820312,22.6425781 L48.5791016,22.6425781 Z M53.0908203,21.8427734 C52.9860021,21.1455043 52.7330749,20.6259783 52.3320312,20.2841797 C51.9309876,19.9423811 51.4365264,19.7714844 50.8486328,19.7714844 C50.5478501,19.7714844 50.269858,19.8204748 50.0146484,19.918457 C49.7594388,20.0164393 49.5338551,20.1565746 49.3378906,20.3388672 C49.1419261,20.5211598 48.9778652,20.7410469 48.8457031,20.9985352 C48.713541,21.2560234 48.629232,21.5374334 48.5927734,21.8427734 L53.0908203,21.8427734 Z" id="base" fill="#212121"></path>
                </g>
                <g id="URL" transform="translate(650.000000, 48.000000)">
                    <use id="BG" stroke="#9E9E9E" mask="url(#mask-12)" stroke-width="2" fill="#FFEB3B" xlink:href="#path-11"></use>
                    <path d="M35.3476562,22.2753906 C35.3476562,22.7089865 35.2998052,23.1015607 35.2041016,23.453125 C35.108398,23.8046893 34.9599619,24.1044909 34.7587891,24.3525391 C34.5576162,24.6005872 34.3027359,24.7929681 33.9941406,24.9296875 C33.6855453,25.0664069 33.3203146,25.1347656 32.8984375,25.1347656 C32.4726541,25.1347656 32.1084,25.0664069 31.8056641,24.9296875 C31.5029282,24.7929681 31.2509776,24.6005872 31.0498047,24.3525391 C30.8486318,24.1044909 30.7001958,23.8027362 30.6044922,23.4472656 C30.5087886,23.0917951 30.4609375,22.6972678 30.4609375,22.2636719 L30.4609375,17.3535156 L31.6738281,17.3535156 L31.6738281,22.2753906 C31.6738281,22.4667978 31.6874999,22.665038 31.7148438,22.8701172 C31.7421876,23.0751963 31.7978511,23.2656241 31.8818359,23.4414062 C31.9658207,23.6171884 32.0898429,23.7607416 32.2539062,23.8720703 C32.4179696,23.983399 32.6328112,24.0390625 32.8984375,24.0390625 C33.1601576,24.0390625 33.3730461,23.983399 33.5371094,23.8720703 C33.7011727,23.7607416 33.8281246,23.6191415 33.9179688,23.4472656 C34.0078129,23.2753898 34.0664061,23.084962 34.09375,22.8759766 C34.1210939,22.6669911 34.1347656,22.4667978 34.1347656,22.2753906 L34.1347656,17.3535156 L35.3476562,17.3535156 L35.3476562,22.2753906 Z M42.2910156,25 L40.7558594,25 L38.7753906,21.90625 L38.2246094,21.90625 L38.2246094,25 L37.0117188,25 L37.0117188,17.3535156 L39.53125,17.3535156 C40.3710979,17.3535156 41.0234352,17.5458965 41.4882812,17.9306641 C41.9531273,18.3154316 42.1855469,18.8847619 42.1855469,19.6386719 C42.1855469,19.9746111 42.1337896,20.2705065 42.0302734,20.5263672 C41.9267573,20.7822278 41.7802744,21.0019522 41.5908203,21.1855469 C41.4013662,21.3691415 41.1806653,21.5146479 40.9287109,21.6220703 C40.6767566,21.7294927 40.4042983,21.8027342 40.1113281,21.8417969 L42.2910156,25 Z M40.9726562,19.6210938 C40.9726562,19.2304668 40.8447278,18.937501 40.5888672,18.7421875 C40.3330065,18.546874 39.980471,18.4492188 39.53125,18.4492188 L38.2246094,18.4492188 L38.2246094,20.8105469 L39.53125,20.8105469 C39.980471,20.8105469 40.3330065,20.7128916 40.5888672,20.5175781 C40.8447278,20.3222646 40.9726562,20.0234395 40.9726562,19.6210938 Z M48.4492188,25 L43.5625,25 L43.5625,17.3535156 L44.7753906,17.3535156 L44.7753906,23.9101562 L48.4492188,23.9101562 L48.4492188,25 Z" fill="#212121"></path>
                </g>
                <g id="ID" transform="translate(0.000000, 48.000000)">
                    <use id="BG" stroke="#9E9E9E" mask="url(#mask-14)" stroke-width="2" fill="#FFEB3B" xlink:href="#path-13"></use>
                    <path d="M38.03125,25 L34.3632812,25 L34.3632812,23.9101562 L35.5703125,23.9101562 L35.5703125,18.4492188 L34.3632812,18.4492188 L34.3632812,17.3535156 L38.03125,17.3535156 L38.03125,18.4492188 L36.7832031,18.4492188 L36.7832031,23.9101562 L38.03125,23.9101562 L38.03125,25 Z M45.7128906,21.1738281 C45.7128906,21.6855494 45.6591802,22.1728492 45.5517578,22.6357422 C45.4443354,23.0986351 45.2724621,23.5048811 45.0361328,23.8544922 C44.7998035,24.2041033 44.4951191,24.4824208 44.1220703,24.6894531 C43.7490216,24.8964854 43.2988308,25 42.7714844,25 L40.2871094,25 L40.2871094,17.3535156 L42.7714844,17.3535156 C43.2910182,17.3535156 43.7373028,17.4580068 44.1103516,17.6669922 C44.4834003,17.8759776 44.7880848,18.1542951 45.0244141,18.5019531 C45.2607434,18.8496111 45.4345698,19.2539039 45.5458984,19.7148438 C45.6572271,20.1757836 45.7128906,20.6621068 45.7128906,21.1738281 Z M44.5,21.1738281 C44.5,20.2910112 44.3496109,19.6162133 44.0488281,19.1494141 C43.7480454,18.6826149 43.3222684,18.4492188 42.7714844,18.4492188 L41.5,18.4492188 L41.5,23.9101562 L42.7714844,23.9101562 C43.3222684,23.9101562 43.7480454,23.6718774 44.0488281,23.1953125 C44.3496109,22.7187476 44.5,22.0449262 44.5,21.1738281 Z" fill="#212121"></path>
                </g>
                <path d="M475,68.5 L514.5,68.5" id="Line" stroke="#E0E0E0" stroke-linecap="square"></path>
                <path d="M431,134 L689,134" id="Line" stroke="#E0E0E0" stroke-linecap="square"></path>
                <path d="M605,68.5 L644.5,68.5" id="Line" stroke="#E0E0E0" stroke-linecap="square"></path>
                <path d="M690,188.5 L690,93.5" id="Line" stroke="#E0E0E0" stroke-linecap="square"></path>
                <path d="M345,68.5 L384.5,68.5" id="Line" stroke="#E0E0E0" stroke-linecap="square"></path>
                <path d="M215,68.5 L254.5,68.5" id="Line" stroke="#E0E0E0" stroke-linecap="square"></path>
                <path d="M85,68.5 L124.5,68.5" id="Line" stroke="#E0E0E0" stroke-linecap="square"></path>
                <path d="M430,113 L430,134" id="Line" stroke="#E0E0E0" stroke-linecap="square"></path>
                <path d="M300,93 L300,161" id="Line" stroke="#E0E0E0" stroke-linecap="square"></path>
                <path d="M170,93 L170,188" id="Line" stroke="#E0E0E0" stroke-linecap="square"></path>
                <path d="M40,43 L40,1.5" id="Line" stroke="#E0E0E0" stroke-linecap="square"></path>
                <path d="M40,1.5 L689.5,1.5" id="Line" stroke="#E0E0E0" stroke-linecap="square"></path>
                <path d="M690,1.5 L690,42.5" id="Line" stroke="#E0E0E0" stroke-linecap="square"></path>
                <path d="M300,161.5 L689.5,161.5" id="Line" stroke="#E0E0E0" stroke-linecap="square"></path>
                <path d="M689.5,188.5 L170,188.5" id="Line" stroke="#E0E0E0" stroke-linecap="square"></path>
                <polygon id="Triangle" stroke="#E0E0E0" fill="#E0E0E0" transform="translate(381.000000, 68.500000) rotate(90.000000) translate(-381.000000, -68.500000) " points="381 64.5 385 72.5 377 72.5"></polygon>
                <polygon id="Triangle" stroke="#E0E0E0" fill="#E0E0E0" transform="translate(511.000000, 68.500000) rotate(90.000000) translate(-511.000000, -68.500000) " points="511 64.5 515 72.5 507 72.5"></polygon>
                <polygon id="Triangle" stroke="#E0E0E0" fill="#E0E0E0" points="690 93 694 101 686 101"></polygon>
                <polygon id="Triangle" stroke="#E0E0E0" fill="#E0E0E0" transform="translate(690.000000, 39.000000) rotate(180.000000) translate(-690.000000, -39.000000) " points="690 35 694 43 686 43"></polygon>
                <polygon id="Triangle" stroke="#E0E0E0" fill="#E0E0E0" transform="translate(641.000000, 68.500000) rotate(90.000000) translate(-641.000000, -68.500000) " points="641 64.5 645 72.5 637 72.5"></polygon>
                <polygon id="Triangle" stroke="#E0E0E0" fill="#E0E0E0" transform="translate(251.000000, 68.500000) rotate(90.000000) translate(-251.000000, -68.500000) " points="251 64.5 255 72.5 247 72.5"></polygon>
                <polygon id="Triangle" stroke="#E0E0E0" fill="#E0E0E0" transform="translate(121.000000, 68.500000) rotate(90.000000) translate(-121.000000, -68.500000) " points="121 64.5 125 72.5 117 72.5"></polygon>
            </g>
        </g>
    </g>
</svg>