<?xml version="1.0" encoding="UTF-8"?>
<svg width="600px" height="235px" viewBox="0 0 600 235" version="1.1" xmlns="http://www.w3.org/2000/svg" xmlns:xlink="http://www.w3.org/1999/xlink">
    <!-- Generator: Sketch 42 (36781) - http://www.bohemiancoding.com/sketch -->
    <title>AMD-Module-Lifecycle</title>
    <desc>Created with Sketch.</desc>
    <defs>
        <rect id="path-1" x="0" y="59" width="120" height="60"></rect>
        <mask id="mask-2" maskContentUnits="userSpaceOnUse" maskUnits="objectBoundingBox" x="0" y="0" width="120" height="60" fill="white">
            <use xlink:href="#path-1"></use>
        </mask>
        <rect id="path-3" x="0" y="0" width="120" height="60"></rect>
        <mask id="mask-4" maskContentUnits="userSpaceOnUse" maskUnits="objectBoundingBox" x="0" y="0" width="120" height="60" fill="white">
            <use xlink:href="#path-3"></use>
        </mask>
        <rect id="path-5" x="0" y="59" width="120" height="60"></rect>
        <mask id="mask-6" maskContentUnits="userSpaceOnUse" maskUnits="objectBoundingBox" x="0" y="0" width="120" height="60" fill="white">
            <use xlink:href="#path-5"></use>
        </mask>
        <rect id="path-7" x="0" y="0" width="120" height="60"></rect>
        <mask id="mask-8" maskContentUnits="userSpaceOnUse" maskUnits="objectBoundingBox" x="0" y="0" width="120" height="60" fill="white">
            <use xlink:href="#path-7"></use>
        </mask>
        <rect id="path-9" x="0" y="59" width="120" height="60"></rect>
        <mask id="mask-10" maskContentUnits="userSpaceOnUse" maskUnits="objectBoundingBox" x="0" y="0" width="120" height="60" fill="white">
            <use xlink:href="#path-9"></use>
        </mask>
        <rect id="path-11" x="0" y="0" width="120" height="60"></rect>
        <mask id="mask-12" maskContentUnits="userSpaceOnUse" maskUnits="objectBoundingBox" x="0" y="0" width="120" height="60" fill="white">
            <use xlink:href="#path-11"></use>
        </mask>
    </defs>
    <g id="AMD-Module-Lifecycle" stroke="none" stroke-width="1" fill="none" fill-rule="evenodd">
        <g>
            <g transform="translate(20.000000, 20.000000)">
                <path d="M242.582031,187.306641 C242.292967,187.162109 241.949221,187.089844 241.550781,187.089844 C241.222655,187.089844 240.929689,187.160156 240.671875,187.300781 C240.414061,187.441407 240.195313,187.625975 240.015625,187.854492 C239.835937,188.083009 239.698243,188.344725 239.602539,188.639648 C239.506835,188.934572 239.458984,189.23828 239.458984,189.550781 L239.458984,191.314453 L240.695312,191.314453 L240.695312,192 L237.419922,192 L237.419922,191.314453 L238.65625,191.314453 L238.65625,187.224609 L237.419922,187.224609 L237.419922,186.539062 L239.458984,186.539062 L239.458984,187.910156 C239.826174,186.910151 240.523432,186.410156 241.550781,186.410156 C241.828126,186.410156 242.069335,186.427734 242.274414,186.462891 C242.479493,186.498047 242.669921,186.560546 242.845703,186.650391 L242.582031,187.306641 Z M244.773438,189.550781 C244.832032,190.128909 245.042967,190.589842 245.40625,190.933594 C245.769533,191.277345 246.242185,191.449219 246.824219,191.449219 C247.234377,191.449219 247.599608,191.365235 247.919922,191.197266 C248.240236,191.029296 248.480468,190.820314 248.640625,190.570312 L249.203125,190.957031 C248.929686,191.339846 248.603518,191.631835 248.224609,191.833008 C247.845701,192.034181 247.378909,192.134766 246.824219,192.134766 C246.402342,192.134766 246.015627,192.064454 245.664062,191.923828 C245.312498,191.783202 245.00879,191.586915 244.75293,191.334961 C244.497069,191.083007 244.298829,190.783205 244.158203,190.435547 C244.017577,190.087889 243.947266,189.701174 243.947266,189.275391 C243.947266,188.861326 244.010742,188.479494 244.137695,188.129883 C244.264649,187.780272 244.448241,187.47754 244.688477,187.22168 C244.928712,186.965819 245.220701,186.766602 245.564453,186.624023 C245.908205,186.481445 246.292967,186.410156 246.71875,186.410156 C247.183596,186.410156 247.589842,186.48828 247.9375,186.644531 C248.285158,186.800782 248.575194,187.0166 248.807617,187.291992 C249.04004,187.567384 249.211914,187.896482 249.323242,188.279297 C249.434571,188.662111 249.490234,189.085935 249.490234,189.550781 L244.773438,189.550781 Z M248.640625,188.865234 C248.550781,188.267575 248.333986,187.822267 247.990234,187.529297 C247.646483,187.236327 247.222659,187.089844 246.71875,187.089844 C246.460936,187.089844 246.222657,187.131836 246.003906,187.21582 C245.785155,187.299805 245.591798,187.419921 245.423828,187.576172 C245.255859,187.732423 245.115235,187.920897 245.001953,188.141602 C244.888671,188.362306 244.816406,188.603514 244.785156,188.865234 L248.640625,188.865234 Z M250.521484,189.275391 C250.521484,188.861326 250.58789,188.477541 250.720703,188.124023 C250.853516,187.770506 251.039061,187.465822 251.277344,187.209961 C251.515626,186.9541 251.805662,186.756837 252.147461,186.618164 C252.48926,186.479491 252.871092,186.410156 253.292969,186.410156 C253.859378,186.410156 254.390623,186.621092 254.886719,187.042969 L254.886719,186.539062 L255.695312,186.539062 L255.695312,194.185547 L254.886719,194.185547 L254.886719,191.507812 C254.656249,191.714845 254.405275,191.871093 254.133789,191.976562 C253.862303,192.082032 253.582033,192.134766 253.292969,192.134766 C252.871092,192.134766 252.48926,192.064454 252.147461,191.923828 C251.805662,191.783202 251.515626,191.586915 251.277344,191.334961 C251.039061,191.083007 250.853516,190.783205 250.720703,190.435547 C250.58789,190.087889 250.521484,189.701174 250.521484,189.275391 Z M251.324219,189.275391 C251.324219,189.58008 251.366211,189.864256 251.450195,190.12793 C251.53418,190.391603 251.660155,190.621093 251.828125,190.816406 C251.996095,191.01172 252.202147,191.166015 252.446289,191.279297 C252.690431,191.392579 252.972655,191.449219 253.292969,191.449219 C253.597658,191.449219 253.881835,191.394532 254.145508,191.285156 C254.409181,191.175781 254.656249,190.994142 254.886719,190.740234 L254.886719,187.810547 C254.656249,187.556639 254.409181,187.373047 254.145508,187.259766 C253.881835,187.146484 253.597658,187.089844 253.292969,187.089844 C252.972655,187.089844 252.690431,187.146484 252.446289,187.259766 C252.202147,187.373047 251.996095,187.527343 251.828125,187.722656 C251.660155,187.91797 251.53418,188.149413 251.450195,188.416992 C251.366211,188.684572 251.324219,188.970702 251.324219,189.275391 Z M257.359375,186.539062 L258.162109,186.539062 L258.162109,189.914062 C258.162109,190.402346 258.268554,190.780272 258.481445,191.047852 C258.694337,191.315431 259.037107,191.449219 259.509766,191.449219 C259.806642,191.449219 260.074218,191.38086 260.3125,191.244141 C260.550782,191.107421 260.753905,190.924806 260.921875,190.696289 C261.089845,190.467772 261.217773,190.206056 261.305664,189.911133 C261.393555,189.616209 261.4375,189.308595 261.4375,188.988281 L261.4375,186.539062 L262.246094,186.539062 L262.246094,192 L261.4375,192 L261.4375,190.634766 C261.054686,191.634771 260.367192,192.134766 259.375,192.134766 C258.031243,192.134766 257.359375,191.394539 257.359375,189.914062 L257.359375,186.539062 Z M266.898438,185.449219 L265.808594,185.449219 L265.808594,184.353516 L266.898438,184.353516 L266.898438,185.449219 Z M267.988281,192 L264.712891,192 L264.712891,191.314453 L265.949219,191.314453 L265.949219,187.224609 L264.712891,187.224609 L264.712891,186.539062 L266.757812,186.539062 L266.757812,191.314453 L267.988281,191.314453 L267.988281,192 Z M275.335938,187.306641 C275.046874,187.162109 274.703127,187.089844 274.304688,187.089844 C273.976561,187.089844 273.683595,187.160156 273.425781,187.300781 C273.167967,187.441407 272.94922,187.625975 272.769531,187.854492 C272.589843,188.083009 272.452149,188.344725 272.356445,188.639648 C272.260742,188.934572 272.212891,189.23828 272.212891,189.550781 L272.212891,191.314453 L273.449219,191.314453 L273.449219,192 L270.173828,192 L270.173828,191.314453 L271.410156,191.314453 L271.410156,187.224609 L270.173828,187.224609 L270.173828,186.539062 L272.212891,186.539062 L272.212891,187.910156 C272.58008,186.910151 273.277339,186.410156 274.304688,186.410156 C274.582033,186.410156 274.823241,186.427734 275.02832,186.462891 C275.233399,186.498047 275.423827,186.560546 275.599609,186.650391 L275.335938,187.306641 Z M277.527344,189.550781 C277.585938,190.128909 277.796873,190.589842 278.160156,190.933594 C278.523439,191.277345 278.996091,191.449219 279.578125,191.449219 C279.988283,191.449219 280.353514,191.365235 280.673828,191.197266 C280.994142,191.029296 281.234374,190.820314 281.394531,190.570312 L281.957031,190.957031 C281.683592,191.339846 281.357424,191.631835 280.978516,191.833008 C280.599607,192.034181 280.132815,192.134766 279.578125,192.134766 C279.156248,192.134766 278.769533,192.064454 278.417969,191.923828 C278.066404,191.783202 277.762697,191.586915 277.506836,191.334961 C277.250975,191.083007 277.052735,190.783205 276.912109,190.435547 C276.771484,190.087889 276.701172,189.701174 276.701172,189.275391 C276.701172,188.861326 276.764648,188.479494 276.891602,188.129883 C277.018555,187.780272 277.202147,187.47754 277.442383,187.22168 C277.682618,186.965819 277.974608,186.766602 278.318359,186.624023 C278.662111,186.481445 279.046873,186.410156 279.472656,186.410156 C279.937502,186.410156 280.343748,186.48828 280.691406,186.644531 C281.039064,186.800782 281.3291,187.0166 281.561523,187.291992 C281.793946,187.567384 281.96582,187.896482 282.077148,188.279297 C282.188477,188.662111 282.244141,189.085935 282.244141,189.550781 L277.527344,189.550781 Z M281.394531,188.865234 C281.304687,188.267575 281.087892,187.822267 280.744141,187.529297 C280.400389,187.236327 279.976565,187.089844 279.472656,187.089844 C279.214842,187.089844 278.976564,187.131836 278.757812,187.21582 C278.539061,187.299805 278.345704,187.419921 278.177734,187.576172 C278.009765,187.732423 277.869141,187.920897 277.755859,188.141602 C277.642578,188.362306 277.570313,188.603514 277.539062,188.865234 L281.394531,188.865234 Z M286.550781,192 L285.460938,192 L285.460938,190.910156 L286.550781,190.910156 L286.550781,192 Z M290.113281,186.539062 L290.916016,186.539062 L290.916016,189.914062 C290.916016,190.402346 291.02246,190.780272 291.235352,191.047852 C291.448243,191.315431 291.791013,191.449219 292.263672,191.449219 C292.560548,191.449219 292.828124,191.38086 293.066406,191.244141 C293.304689,191.107421 293.507812,190.924806 293.675781,190.696289 C293.843751,190.467772 293.971679,190.206056 294.05957,189.911133 C294.147461,189.616209 294.191406,189.308595 294.191406,188.988281 L294.191406,186.539062 L295,186.539062 L295,192 L294.191406,192 L294.191406,190.634766 C293.808592,191.634771 293.121099,192.134766 292.128906,192.134766 C290.78515,192.134766 290.113281,191.394539 290.113281,189.914062 L290.113281,186.539062 Z M301.550781,192 L300.742188,192 L300.742188,188.630859 C300.742188,188.142576 300.63672,187.763673 300.425781,187.494141 C300.214843,187.224608 299.873049,187.089844 299.400391,187.089844 C299.103514,187.089844 298.834962,187.158202 298.594727,187.294922 C298.354491,187.431641 298.150391,187.614257 297.982422,187.842773 C297.814452,188.07129 297.686524,188.333006 297.598633,188.62793 C297.510742,188.922853 297.466797,189.230467 297.466797,189.550781 L297.466797,192 L296.664062,192 L296.664062,186.539062 L297.466797,186.539062 L297.466797,187.910156 C297.853518,186.910151 298.542964,186.410156 299.535156,186.410156 C300.878913,186.410156 301.550781,187.150383 301.550781,188.630859 L301.550781,192 Z M308.101562,192 L307.292969,192 L307.292969,191.496094 C307.062499,191.703126 306.809572,191.861328 306.53418,191.970703 C306.258788,192.080079 305.976564,192.134766 305.6875,192.134766 C305.253904,192.134766 304.865236,192.064454 304.521484,191.923828 C304.177733,191.783202 303.887696,191.586915 303.651367,191.334961 C303.415038,191.083007 303.233399,190.781252 303.106445,190.429688 C302.979492,190.078123 302.916016,189.693361 302.916016,189.275391 C302.916016,188.861326 302.979492,188.477541 303.106445,188.124023 C303.233399,187.770506 303.415038,187.467775 303.651367,187.21582 C303.887696,186.963866 304.177733,186.766602 304.521484,186.624023 C304.865236,186.481445 305.253904,186.410156 305.6875,186.410156 C305.976564,186.410156 306.258788,186.461914 306.53418,186.56543 C306.809572,186.668946 307.062499,186.824218 307.292969,187.03125 L307.292969,185.039062 L306.203125,185.039062 L306.203125,184.353516 L308.101562,184.353516 L308.101562,192 Z M307.292969,187.810547 C307.062499,187.556639 306.811525,187.373047 306.540039,187.259766 C306.268553,187.146484 305.98047,187.089844 305.675781,187.089844 C305.355467,187.089844 305.073243,187.146484 304.829102,187.259766 C304.58496,187.373047 304.38086,187.527343 304.216797,187.722656 C304.052734,187.91797 303.928711,188.14746 303.844727,188.411133 C303.760742,188.674806 303.71875,188.962889 303.71875,189.275391 C303.71875,189.587892 303.760742,189.875975 303.844727,190.139648 C303.928711,190.403322 304.052734,190.632812 304.216797,190.828125 C304.38086,191.023438 304.58496,191.177734 304.829102,191.291016 C305.073243,191.404297 305.355467,191.460938 305.675781,191.460938 C306.292972,191.460938 306.832029,191.216799 307.292969,190.728516 L307.292969,187.810547 Z M310.28125,189.550781 C310.339844,190.128909 310.550779,190.589842 310.914062,190.933594 C311.277346,191.277345 311.749997,191.449219 312.332031,191.449219 C312.74219,191.449219 313.10742,191.365235 313.427734,191.197266 C313.748048,191.029296 313.98828,190.820314 314.148438,190.570312 L314.710938,190.957031 C314.437499,191.339846 314.11133,191.631835 313.732422,191.833008 C313.353514,192.034181 312.886722,192.134766 312.332031,192.134766 C311.910154,192.134766 311.523439,192.064454 311.171875,191.923828 C310.820311,191.783202 310.516603,191.586915 310.260742,191.334961 C310.004882,191.083007 309.806641,190.783205 309.666016,190.435547 C309.52539,190.087889 309.455078,189.701174 309.455078,189.275391 C309.455078,188.861326 309.518554,188.479494 309.645508,188.129883 C309.772462,187.780272 309.956053,187.47754 310.196289,187.22168 C310.436525,186.965819 310.728514,186.766602 311.072266,186.624023 C311.416017,186.481445 311.800779,186.410156 312.226562,186.410156 C312.691409,186.410156 313.097655,186.48828 313.445312,186.644531 C313.79297,186.800782 314.083007,187.0166 314.31543,187.291992 C314.547853,187.567384 314.719726,187.896482 314.831055,188.279297 C314.942383,188.662111 314.998047,189.085935 314.998047,189.550781 L310.28125,189.550781 Z M314.148438,188.865234 C314.058593,188.267575 313.841799,187.822267 313.498047,187.529297 C313.154295,187.236327 312.730471,187.089844 312.226562,187.089844 C311.968749,187.089844 311.73047,187.131836 311.511719,187.21582 C311.292968,187.299805 311.09961,187.419921 310.931641,187.576172 C310.763671,187.732423 310.623047,187.920897 310.509766,188.141602 C310.396484,188.362306 310.324219,188.603514 310.292969,188.865234 L314.148438,188.865234 Z M321.490234,187.224609 L319.164062,187.224609 L319.164062,191.314453 L320.394531,191.314453 L320.394531,192 L317.119141,192 L317.119141,191.314453 L318.355469,191.314453 L318.355469,187.224609 L317.119141,187.224609 L317.119141,186.539062 L318.355469,186.539062 C318.355469,185.789059 318.549803,185.215822 318.938477,184.819336 C319.32715,184.42285 319.914059,184.224609 320.699219,184.224609 C320.882813,184.224609 321.038085,184.230469 321.165039,184.242188 C321.291993,184.253906 321.40039,184.267578 321.490234,184.283203 L321.490234,184.96875 C321.376953,184.953125 321.25879,184.939453 321.135742,184.927734 C321.012695,184.916016 320.867188,184.910156 320.699219,184.910156 C320.187497,184.910156 319.803712,185.040038 319.547852,185.299805 C319.291991,185.559572 319.164062,185.972653 319.164062,186.539062 L321.490234,186.539062 L321.490234,187.224609 Z" id="require.undef" fill="#BDBDBD"></path>
                <path d="M155.521484,71 L154.712891,71 L154.712891,70.4960938 C154.482421,70.703126 154.229494,70.8613276 153.954102,70.9707031 C153.67871,71.0800787 153.396486,71.1347656 153.107422,71.1347656 C152.673826,71.1347656 152.285158,71.0644538 151.941406,70.9238281 C151.597655,70.7832024 151.307618,70.5869153 151.071289,70.3349609 C150.83496,70.0830066 150.653321,69.7812518 150.526367,69.4296875 C150.399413,69.0781232 150.335938,68.6933615 150.335938,68.2753906 C150.335938,67.8613261 150.399413,67.4775408 150.526367,67.1240234 C150.653321,66.770506 150.83496,66.4677747 151.071289,66.2158203 C151.307618,65.9638659 151.597655,65.7666023 151.941406,65.6240234 C152.285158,65.4814446 152.673826,65.4101562 153.107422,65.4101562 C153.396486,65.4101562 153.67871,65.4619135 153.954102,65.5654297 C154.229494,65.6689458 154.482421,65.8242177 154.712891,66.03125 L154.712891,64.0390625 L153.623047,64.0390625 L153.623047,63.3535156 L155.521484,63.3535156 L155.521484,71 Z M154.712891,66.8105469 C154.482421,66.5566394 154.231447,66.3730474 153.959961,66.2597656 C153.688475,66.1464838 153.400392,66.0898438 153.095703,66.0898438 C152.775389,66.0898438 152.493165,66.1464838 152.249023,66.2597656 C152.004882,66.3730474 151.800782,66.5273428 151.636719,66.7226562 C151.472655,66.9179697 151.348633,67.1474596 151.264648,67.4111328 C151.180664,67.674806 151.138672,67.9628891 151.138672,68.2753906 C151.138672,68.5878922 151.180664,68.8759752 151.264648,69.1396484 C151.348633,69.4033216 151.472655,69.6328115 151.636719,69.828125 C151.800782,70.0234385 152.004882,70.1777338 152.249023,70.2910156 C152.493165,70.4042974 152.775389,70.4609375 153.095703,70.4609375 C153.712894,70.4609375 154.251951,70.2167993 154.712891,69.7285156 L154.712891,66.8105469 Z M157.701172,68.5507812 C157.759766,69.1289091 157.970701,69.589842 158.333984,69.9335938 C158.697267,70.2773455 159.169919,70.4492188 159.751953,70.4492188 C160.162111,70.4492188 160.527342,70.3652352 160.847656,70.1972656 C161.16797,70.029296 161.408202,69.8203137 161.568359,69.5703125 L162.130859,69.9570312 C161.857421,70.3398457 161.531252,70.6318349 161.152344,70.8330078 C160.773436,71.0341807 160.306643,71.1347656 159.751953,71.1347656 C159.330076,71.1347656 158.943361,71.0644538 158.591797,70.9238281 C158.240233,70.7832024 157.936525,70.5869153 157.680664,70.3349609 C157.424803,70.0830066 157.226563,69.7832049 157.085938,69.4355469 C156.945312,69.0878889 156.875,68.701174 156.875,68.2753906 C156.875,67.8613261 156.938476,67.4794939 157.06543,67.1298828 C157.192383,66.7802717 157.375975,66.4775403 157.616211,66.2216797 C157.856447,65.965819 158.148436,65.7666023 158.492188,65.6240234 C158.835939,65.4814446 159.220701,65.4101562 159.646484,65.4101562 C160.11133,65.4101562 160.517576,65.4882805 160.865234,65.6445312 C161.212892,65.800782 161.502929,66.0166002 161.735352,66.2919922 C161.967775,66.5673842 162.139648,66.8964825 162.250977,67.2792969 C162.362305,67.6621113 162.417969,68.0859352 162.417969,68.5507812 L157.701172,68.5507812 Z M161.568359,67.8652344 C161.478515,67.2675751 161.26172,66.8222671 160.917969,66.5292969 C160.574217,66.2363267 160.150393,66.0898438 159.646484,66.0898438 C159.388671,66.0898438 159.150392,66.1318355 158.931641,66.2158203 C158.71289,66.2998051 158.519532,66.4199211 158.351562,66.5761719 C158.183593,66.7324227 158.042969,66.9208973 157.929688,67.1416016 C157.816406,67.3623058 157.744141,67.6035143 157.712891,67.8652344 L161.568359,67.8652344 Z M168.910156,66.2246094 L166.583984,66.2246094 L166.583984,70.3144531 L167.814453,70.3144531 L167.814453,71 L164.539062,71 L164.539062,70.3144531 L165.775391,70.3144531 L165.775391,66.2246094 L164.539062,66.2246094 L164.539062,65.5390625 L165.775391,65.5390625 C165.775391,64.7890587 165.969725,64.2158223 166.358398,63.8193359 C166.747072,63.4228496 167.33398,63.2246094 168.119141,63.2246094 C168.302735,63.2246094 168.458007,63.2304687 168.584961,63.2421875 C168.711915,63.2539063 168.820312,63.267578 168.910156,63.2832031 L168.910156,63.96875 C168.796874,63.9531249 168.678712,63.9394532 168.555664,63.9277344 C168.432617,63.9160156 168.28711,63.9101562 168.119141,63.9101562 C167.607419,63.9101562 167.223634,64.0400378 166.967773,64.2998047 C166.711913,64.5595716 166.583984,64.9726534 166.583984,65.5390625 L168.910156,65.5390625 L168.910156,66.2246094 Z M173.275391,64.4492188 L172.185547,64.4492188 L172.185547,63.3535156 L173.275391,63.3535156 L173.275391,64.4492188 Z M174.365234,71 L171.089844,71 L171.089844,70.3144531 L172.326172,70.3144531 L172.326172,66.2246094 L171.089844,66.2246094 L171.089844,65.5390625 L173.134766,65.5390625 L173.134766,70.3144531 L174.365234,70.3144531 L174.365234,71 Z M181.724609,71 L180.916016,71 L180.916016,67.6308594 C180.916016,67.1425757 180.810548,66.7636732 180.599609,66.4941406 C180.388671,66.224608 180.046877,66.0898438 179.574219,66.0898438 C179.277342,66.0898438 179.00879,66.1582024 178.768555,66.2949219 C178.528319,66.4316413 178.32422,66.6142567 178.15625,66.8427734 C177.98828,67.0712902 177.860352,67.3330063 177.772461,67.6279297 C177.68457,67.922853 177.640625,68.2304671 177.640625,68.5507812 L177.640625,71 L176.837891,71 L176.837891,65.5390625 L177.640625,65.5390625 L177.640625,66.9101562 C178.027346,65.9101512 178.716792,65.4101562 179.708984,65.4101562 C181.052741,65.4101562 181.724609,66.1503832 181.724609,67.6308594 L181.724609,71 Z M183.904297,68.5507812 C183.962891,69.1289091 184.173826,69.589842 184.537109,69.9335938 C184.900392,70.2773455 185.373044,70.4492188 185.955078,70.4492188 C186.365236,70.4492188 186.730467,70.3652352 187.050781,70.1972656 C187.371095,70.029296 187.611327,69.8203137 187.771484,69.5703125 L188.333984,69.9570312 C188.060546,70.3398457 187.734377,70.6318349 187.355469,70.8330078 C186.976561,71.0341807 186.509768,71.1347656 185.955078,71.1347656 C185.533201,71.1347656 185.146486,71.0644538 184.794922,70.9238281 C184.443358,70.7832024 184.13965,70.5869153 183.883789,70.3349609 C183.627928,70.0830066 183.429688,69.7832049 183.289062,69.4355469 C183.148437,69.0878889 183.078125,68.701174 183.078125,68.2753906 C183.078125,67.8613261 183.141601,67.4794939 183.268555,67.1298828 C183.395508,66.7802717 183.5791,66.4775403 183.819336,66.2216797 C184.059572,65.965819 184.351561,65.7666023 184.695312,65.6240234 C185.039064,65.4814446 185.423826,65.4101562 185.849609,65.4101562 C186.314455,65.4101562 186.720701,65.4882805 187.068359,65.6445312 C187.416017,65.800782 187.706054,66.0166002 187.938477,66.2919922 C188.1709,66.5673842 188.342773,66.8964825 188.454102,67.2792969 C188.56543,67.6621113 188.621094,68.0859352 188.621094,68.5507812 L183.904297,68.5507812 Z M187.771484,67.8652344 C187.68164,67.2675751 187.464845,66.8222671 187.121094,66.5292969 C186.777342,66.2363267 186.353518,66.0898438 185.849609,66.0898438 C185.591796,66.0898438 185.353517,66.1318355 185.134766,66.2158203 C184.916015,66.2998051 184.722657,66.4199211 184.554688,66.5761719 C184.386718,66.7324227 184.246094,66.9208973 184.132812,67.1416016 C184.019531,67.3623058 183.947266,67.6035143 183.916016,67.8652344 L187.771484,67.8652344 Z" id="define" fill="#BDBDBD"></path>
                <path d="M372.234375,66.3066406 C371.945311,66.1621087 371.601564,66.0898438 371.203125,66.0898438 C370.874998,66.0898438 370.582033,66.1601555 370.324219,66.3007812 C370.066405,66.441407 369.847657,66.6259754 369.667969,66.8544922 C369.48828,67.083009 369.350586,67.3447251 369.254883,67.6396484 C369.159179,67.9345718 369.111328,68.2382797 369.111328,68.5507812 L369.111328,70.3144531 L370.347656,70.3144531 L370.347656,71 L367.072266,71 L367.072266,70.3144531 L368.308594,70.3144531 L368.308594,66.2246094 L367.072266,66.2246094 L367.072266,65.5390625 L369.111328,65.5390625 L369.111328,66.9101562 C369.478517,65.9101512 370.175776,65.4101562 371.203125,65.4101562 C371.48047,65.4101562 371.721679,65.4277342 371.926758,65.4628906 C372.131837,65.4980471 372.322265,65.5605464 372.498047,65.6503906 L372.234375,66.3066406 Z M374.425781,68.5507812 C374.484375,69.1289091 374.695311,69.589842 375.058594,69.9335938 C375.421877,70.2773455 375.894528,70.4492188 376.476562,70.4492188 C376.886721,70.4492188 377.251952,70.3652352 377.572266,70.1972656 C377.89258,70.029296 378.132812,69.8203137 378.292969,69.5703125 L378.855469,69.9570312 C378.58203,70.3398457 378.255861,70.6318349 377.876953,70.8330078 C377.498045,71.0341807 377.031253,71.1347656 376.476562,71.1347656 C376.054685,71.1347656 375.667971,71.0644538 375.316406,70.9238281 C374.964842,70.7832024 374.661134,70.5869153 374.405273,70.3349609 C374.149413,70.0830066 373.951173,69.7832049 373.810547,69.4355469 C373.669921,69.0878889 373.599609,68.701174 373.599609,68.2753906 C373.599609,67.8613261 373.663085,67.4794939 373.790039,67.1298828 C373.916993,66.7802717 374.100585,66.4775403 374.34082,66.2216797 C374.581056,65.965819 374.873045,65.7666023 375.216797,65.6240234 C375.560549,65.4814446 375.94531,65.4101562 376.371094,65.4101562 C376.83594,65.4101562 377.242186,65.4882805 377.589844,65.6445312 C377.937502,65.800782 378.227538,66.0166002 378.459961,66.2919922 C378.692384,66.5673842 378.864257,66.8964825 378.975586,67.2792969 C379.086915,67.6621113 379.142578,68.0859352 379.142578,68.5507812 L374.425781,68.5507812 Z M378.292969,67.8652344 C378.203125,67.2675751 377.98633,66.8222671 377.642578,66.5292969 C377.298826,66.2363267 376.875003,66.0898438 376.371094,66.0898438 C376.11328,66.0898438 375.875001,66.1318355 375.65625,66.2158203 C375.437499,66.2998051 375.244141,66.4199211 375.076172,66.5761719 C374.908202,66.7324227 374.767579,66.9208973 374.654297,67.1416016 C374.541015,67.3623058 374.46875,67.6035143 374.4375,67.8652344 L378.292969,67.8652344 Z M380.173828,68.2753906 C380.173828,67.8613261 380.240234,67.4775408 380.373047,67.1240234 C380.50586,66.770506 380.691405,66.4658216 380.929688,66.2099609 C381.16797,65.9541003 381.458006,65.7568366 381.799805,65.6181641 C382.141603,65.4794915 382.523435,65.4101562 382.945312,65.4101562 C383.511722,65.4101562 384.042966,65.6210916 384.539062,66.0429688 L384.539062,65.5390625 L385.347656,65.5390625 L385.347656,73.1855469 L384.539062,73.1855469 L384.539062,70.5078125 C384.308593,70.7148448 384.057619,70.8710932 383.786133,70.9765625 C383.514647,71.0820318 383.234376,71.1347656 382.945312,71.1347656 C382.523435,71.1347656 382.141603,71.0644538 381.799805,70.9238281 C381.458006,70.7832024 381.16797,70.5869153 380.929688,70.3349609 C380.691405,70.0830066 380.50586,69.7832049 380.373047,69.4355469 C380.240234,69.0878889 380.173828,68.701174 380.173828,68.2753906 Z M380.976562,68.2753906 C380.976562,68.5800796 381.018554,68.8642565 381.102539,69.1279297 C381.186524,69.3916029 381.312499,69.6210928 381.480469,69.8164062 C381.648438,70.0117197 381.854491,70.1660151 382.098633,70.2792969 C382.342775,70.3925787 382.624998,70.4492188 382.945312,70.4492188 C383.250002,70.4492188 383.534178,70.3945318 383.797852,70.2851562 C384.061525,70.1757807 384.308593,69.9941419 384.539062,69.7402344 L384.539062,66.8105469 C384.308593,66.5566394 384.061525,66.3730474 383.797852,66.2597656 C383.534178,66.1464838 383.250002,66.0898438 382.945312,66.0898438 C382.624998,66.0898438 382.342775,66.1464838 382.098633,66.2597656 C381.854491,66.3730474 381.648438,66.5273428 381.480469,66.7226562 C381.312499,66.9179697 381.186524,67.1494127 381.102539,67.4169922 C381.018554,67.6845717 380.976562,67.9707016 380.976562,68.2753906 Z M387.011719,65.5390625 L387.814453,65.5390625 L387.814453,68.9140625 C387.814453,69.4023462 387.920897,69.7802721 388.133789,70.0478516 C388.346681,70.315431 388.689451,70.4492188 389.162109,70.4492188 C389.458986,70.4492188 389.726561,70.3808601 389.964844,70.2441406 C390.203126,70.1074212 390.406249,69.9248058 390.574219,69.6962891 C390.742188,69.4677723 390.870117,69.2060562 390.958008,68.9111328 C391.045899,68.6162095 391.089844,68.3085954 391.089844,67.9882812 L391.089844,65.5390625 L391.898438,65.5390625 L391.898438,71 L391.089844,71 L391.089844,69.6347656 C390.707029,70.6347706 390.019536,71.1347656 389.027344,71.1347656 C387.683587,71.1347656 387.011719,70.3945387 387.011719,68.9140625 L387.011719,65.5390625 Z M396.550781,64.4492188 L395.460938,64.4492188 L395.460938,63.3535156 L396.550781,63.3535156 L396.550781,64.4492188 Z M397.640625,71 L394.365234,71 L394.365234,70.3144531 L395.601562,70.3144531 L395.601562,66.2246094 L394.365234,66.2246094 L394.365234,65.5390625 L396.410156,65.5390625 L396.410156,70.3144531 L397.640625,70.3144531 L397.640625,71 Z M404.988281,66.3066406 C404.699217,66.1621087 404.355471,66.0898438 403.957031,66.0898438 C403.628905,66.0898438 403.335939,66.1601555 403.078125,66.3007812 C402.820311,66.441407 402.601563,66.6259754 402.421875,66.8544922 C402.242187,67.083009 402.104493,67.3447251 402.008789,67.6396484 C401.913085,67.9345718 401.865234,68.2382797 401.865234,68.5507812 L401.865234,70.3144531 L403.101562,70.3144531 L403.101562,71 L399.826172,71 L399.826172,70.3144531 L401.0625,70.3144531 L401.0625,66.2246094 L399.826172,66.2246094 L399.826172,65.5390625 L401.865234,65.5390625 L401.865234,66.9101562 C402.232424,65.9101512 402.929682,65.4101562 403.957031,65.4101562 C404.234376,65.4101562 404.475585,65.4277342 404.680664,65.4628906 C404.885743,65.4980471 405.076171,65.5605464 405.251953,65.6503906 L404.988281,66.3066406 Z M407.179688,68.5507812 C407.238282,69.1289091 407.449217,69.589842 407.8125,69.9335938 C408.175783,70.2773455 408.648435,70.4492188 409.230469,70.4492188 C409.640627,70.4492188 410.005858,70.3652352 410.326172,70.1972656 C410.646486,70.029296 410.886718,69.8203137 411.046875,69.5703125 L411.609375,69.9570312 C411.335936,70.3398457 411.009768,70.6318349 410.630859,70.8330078 C410.251951,71.0341807 409.785159,71.1347656 409.230469,71.1347656 C408.808592,71.1347656 408.421877,71.0644538 408.070312,70.9238281 C407.718748,70.7832024 407.41504,70.5869153 407.15918,70.3349609 C406.903319,70.0830066 406.705079,69.7832049 406.564453,69.4355469 C406.423827,69.0878889 406.353516,68.701174 406.353516,68.2753906 C406.353516,67.8613261 406.416992,67.4794939 406.543945,67.1298828 C406.670899,66.7802717 406.854491,66.4775403 407.094727,66.2216797 C407.334962,65.965819 407.626951,65.7666023 407.970703,65.6240234 C408.314455,65.4814446 408.699217,65.4101562 409.125,65.4101562 C409.589846,65.4101562 409.996092,65.4882805 410.34375,65.6445312 C410.691408,65.800782 410.981444,66.0166002 411.213867,66.2919922 C411.44629,66.5673842 411.618164,66.8964825 411.729492,67.2792969 C411.840821,67.6621113 411.896484,68.0859352 411.896484,68.5507812 L407.179688,68.5507812 Z M411.046875,67.8652344 C410.957031,67.2675751 410.740236,66.8222671 410.396484,66.5292969 C410.052733,66.2363267 409.628909,66.0898438 409.125,66.0898438 C408.867186,66.0898438 408.628907,66.1318355 408.410156,66.2158203 C408.191405,66.2998051 407.998048,66.4199211 407.830078,66.5761719 C407.662109,66.7324227 407.521485,66.9208973 407.408203,67.1416016 C407.294921,67.3623058 407.222656,67.6035143 407.191406,67.8652344 L411.046875,67.8652344 Z" id="require" fill="#BDBDBD"></path>
                <path d="M447.316,0.568 L447.316,9.364 C446.764,9.484 446.188,9.604 445.588,9.724 L445.588,2.584 L444.94,2.584 L444.94,9.844 C444.556,9.916 444.172,9.976 443.788,10.036 L443.884,10.684 C446.164,10.324 448.192,9.856 449.968,9.268 L449.968,8.608 C449.332,8.824 448.66,9.016 447.952,9.208 L447.952,4.792 L449.908,4.792 L449.908,4.168 L447.952,4.168 L447.952,0.568 L447.316,0.568 Z M454.372,2.56 C453.472,3.304 452.464,3.928 451.348,4.42 L451.348,0.376 L450.7,0.376 L450.7,9.616 C450.7,10.384 451.06,10.768 451.804,10.768 L453.112,10.768 C453.628,10.768 454,10.636 454.228,10.372 C454.516,10.024 454.696,9.124 454.792,7.684 L454.18,7.492 C454.108,8.776 453.964,9.556 453.772,9.82 C453.616,10.024 453.352,10.132 452.98,10.132 L452.008,10.132 C451.564,10.132 451.348,9.904 451.348,9.472 L451.348,5.08 C452.644,4.54 453.772,3.88 454.756,3.088 L454.372,2.56 Z M459.76,1.168 L456.46,1.168 L456.46,10.192 L457.108,10.192 L457.108,9.076 L459.136,9.076 L459.136,9.916 L459.76,9.916 L459.76,1.168 Z M457.108,8.464 L457.108,5.344 L459.136,5.344 L459.136,8.464 L457.108,8.464 Z M457.108,4.732 L457.108,1.768 L459.136,1.768 L459.136,4.732 L457.108,4.732 Z M461.44,4.72 L460.912,5.056 C461.644,6.16 462.22,7.156 462.652,8.068 L463.192,7.696 C462.784,6.844 462.208,5.848 461.44,4.72 Z M464.272,11.044 C464.968,11.044 465.328,10.684 465.328,9.988 L465.328,3.136 L466.888,3.136 L466.888,2.5 L465.328,2.5 L465.328,0.328 L464.668,0.328 L464.668,2.5 L460.384,2.5 L460.384,3.136 L464.668,3.136 L464.668,9.82 C464.668,10.252 464.452,10.468 464.044,10.468 C463.42,10.468 462.748,10.444 462.052,10.42 L462.196,11.044 L464.272,11.044 Z M468.088,1 L468.088,1.636 L476.44,1.636 L476.44,9.796 C476.44,10.264 476.212,10.504 475.768,10.504 C475.168,10.504 474.532,10.48 473.872,10.456 L474.016,11.08 L475.996,11.08 C476.728,11.08 477.1,10.708 477.1,9.964 L477.1,1.636 L478.732,1.636 L478.732,1 L468.088,1 Z M474.028,3.676 L469.54,3.676 L469.54,9.016 L470.164,9.016 L470.164,7.924 L474.028,7.924 L474.028,3.676 Z M470.164,7.324 L470.164,4.264 L473.404,4.264 L473.404,7.324 L470.164,7.324 Z M483.796,1.564 L483.244,1.912 C484.348,3.124 485.2,4.228 485.824,5.236 L486.364,4.852 C485.764,3.916 484.912,2.812 483.796,1.564 Z M488.02,7.228 C488.992,8.536 489.772,9.784 490.372,10.96 L490.864,10.468 C490.168,9.196 489.316,7.912 488.308,6.616 C488.392,6.424 488.476,6.208 488.548,5.992 C489.028,4.432 489.28,2.512 489.28,0.244 L488.62,0.244 C488.608,2.572 488.344,4.516 487.828,6.052 C487.132,7.876 485.74,9.364 483.664,10.528 L484.108,11.068 C485.908,10.036 487.216,8.752 488.02,7.228 Z M481,9.688 C482.368,9.184 483.664,8.584 484.864,7.888 L484.672,7.252 C483.712,7.852 482.74,8.344 481.756,8.728 L481.756,0.652 L481.084,0.652 L481.084,8.548 C481.084,8.776 480.988,8.956 480.796,9.076 L481,9.688 Z M501.172,11.128 C501.808,11.128 502.132,10.78 502.132,10.084 L502.132,0.748 L492.652,0.748 L492.652,11.164 L493.312,11.164 L493.312,1.384 L501.472,1.384 L501.472,9.94 C501.472,10.312 501.292,10.504 500.956,10.504 L499.372,10.468 L499.552,11.128 L501.172,11.128 Z M494.296,2.944 L494.296,3.568 L500.5,3.568 L500.5,2.944 L494.296,2.944 Z M495.028,5.008 L495.028,8.764 L499.768,8.764 L499.768,5.008 L495.028,5.008 Z M499.144,8.164 L495.652,8.164 L495.652,5.608 L499.144,5.608 L499.144,8.164 Z M509.164,0.208 L509.164,4.24 L506.692,4.24 L506.692,1.144 L506.032,1.144 L506.032,4.24 L504.1,4.24 L504.1,4.876 L509.2,4.876 L509.2,8.572 L509.848,8.572 L509.848,4.876 L514.684,4.876 L514.684,4.24 L509.812,4.24 L509.812,2.344 L513.508,2.344 L513.508,1.732 L509.812,1.732 L509.812,0.208 L509.164,0.208 Z M513.028,5.884 C511.672,9.016 508.912,10.588 504.736,10.588 L504.976,11.2 C509.236,11.188 512.116,9.52 513.616,6.196 L513.028,5.884 Z M507.04,5.536 C506.332,6.616 505.456,7.552 504.412,8.356 L504.82,8.896 C505.888,8.056 506.788,7.072 507.508,5.944 L507.04,5.536 Z M522.748,3.628 C522.292,3.628 521.884,3.772 521.548,4.06 C521.26,4.288 521.032,4.6 520.864,4.984 L520.864,3.796 L520.144,3.796 L520.144,10 L520.864,10 L520.864,6.724 C520.864,6.1 521.02,5.56 521.356,5.104 C521.692,4.6 522.148,4.36 522.7,4.36 C523.012,4.36 523.324,4.396 523.648,4.492 L523.648,3.76 C523.408,3.664 523.108,3.628 522.748,3.628 Z M526.972,3.628 C526.096,3.628 525.4,3.952 524.872,4.6 C524.356,5.224 524.104,5.98 524.104,6.892 C524.104,7.876 524.368,8.68 524.908,9.28 C525.424,9.868 526.12,10.168 526.996,10.168 C527.788,10.168 528.424,9.94 528.928,9.484 C529.336,9.1 529.612,8.608 529.756,8.008 L529.024,8.008 C528.868,8.488 528.652,8.848 528.364,9.1 C528.016,9.388 527.56,9.544 526.996,9.544 C526.348,9.544 525.844,9.328 525.46,8.896 C525.088,8.464 524.884,7.864 524.848,7.108 L529.888,7.108 C529.852,6.04 529.612,5.212 529.18,4.624 C528.688,3.952 527.956,3.628 526.972,3.628 Z M526.984,4.252 C528.292,4.252 529.012,5.008 529.132,6.52 L524.86,6.52 C524.92,5.848 525.136,5.308 525.508,4.888 C525.88,4.456 526.372,4.252 526.984,4.252 Z M533.584,3.628 C532.696,3.628 532,3.952 531.496,4.624 C531.028,5.224 530.8,5.98 530.8,6.916 C530.8,7.828 531.028,8.584 531.484,9.184 C531.964,9.832 532.66,10.168 533.548,10.168 C534.532,10.168 535.264,9.676 535.72,8.704 L535.72,12.376 L536.44,12.376 L536.44,3.796 L535.756,3.796 L535.756,5.02 C535.3,4.084 534.568,3.628 533.584,3.628 Z M533.656,4.24 C534.328,4.24 534.844,4.504 535.228,5.032 C535.564,5.5 535.744,6.112 535.744,6.868 L535.744,7 C535.744,7.744 535.552,8.356 535.192,8.836 C534.82,9.316 534.316,9.556 533.68,9.556 C532.96,9.556 532.42,9.292 532.06,8.788 C531.712,8.32 531.544,7.696 531.544,6.916 C531.544,6.136 531.7,5.512 532.036,5.044 C532.408,4.504 532.948,4.24 533.656,4.24 Z M537.952,3.796 L537.952,7.624 C537.952,9.316 538.708,10.168 540.22,10.168 C541.108,10.168 541.804,9.76 542.284,8.956 L542.284,10 L543.004,10 L543.004,3.796 L542.284,3.796 L542.284,7.564 C542.236,8.152 542.032,8.632 541.672,8.992 C541.312,9.352 540.892,9.544 540.412,9.544 C539.812,9.544 539.368,9.376 539.08,9.04 C538.804,8.716 538.672,8.236 538.672,7.588 L538.672,3.796 L537.952,3.796 Z M545.236,1.564 C545.056,1.564 544.912,1.624 544.804,1.744 C544.684,1.84 544.624,1.984 544.624,2.164 C544.624,2.332 544.684,2.476 544.804,2.596 C544.912,2.704 545.056,2.764 545.236,2.764 C545.404,2.764 545.536,2.704 545.656,2.596 C545.776,2.476 545.848,2.332 545.848,2.164 C545.848,1.984 545.788,1.84 545.668,1.744 C545.548,1.624 545.404,1.564 545.236,1.564 Z M544.876,3.796 L544.876,10 L545.596,10 L545.596,3.796 L544.876,3.796 Z M550.072,3.628 C549.616,3.628 549.208,3.772 548.872,4.06 C548.584,4.288 548.356,4.6 548.188,4.984 L548.188,3.796 L547.468,3.796 L547.468,10 L548.188,10 L548.188,6.724 C548.188,6.1 548.344,5.56 548.68,5.104 C549.016,4.6 549.472,4.36 550.024,4.36 C550.336,4.36 550.648,4.396 550.972,4.492 L550.972,3.76 C550.732,3.664 550.432,3.628 550.072,3.628 Z M554.296,3.628 C553.42,3.628 552.724,3.952 552.196,4.6 C551.68,5.224 551.428,5.98 551.428,6.892 C551.428,7.876 551.692,8.68 552.232,9.28 C552.748,9.868 553.444,10.168 554.32,10.168 C555.112,10.168 555.748,9.94 556.252,9.484 C556.66,9.1 556.936,8.608 557.08,8.008 L556.348,8.008 C556.192,8.488 555.976,8.848 555.688,9.1 C555.34,9.388 554.884,9.544 554.32,9.544 C553.672,9.544 553.168,9.328 552.784,8.896 C552.412,8.464 552.208,7.864 552.172,7.108 L557.212,7.108 C557.176,6.04 556.936,5.212 556.504,4.624 C556.012,3.952 555.28,3.628 554.296,3.628 Z M554.308,4.252 C555.616,4.252 556.336,5.008 556.456,6.52 L552.184,6.52 C552.244,5.848 552.46,5.308 552.832,4.888 C553.204,4.456 553.696,4.252 554.308,4.252 Z" id="此时可以同步-require" fill="#E0E0E0"></path>
                <g id="#3" transform="translate(440.000000, 19.000000)">
                    <use id="下半部" stroke="#9E9E9E" mask="url(#mask-2)" stroke-width="2" xlink:href="#path-1"></use>
                    <path d="M50.592,88.806 L50.592,83.416 L40.414,83.416 L40.414,84.144 L49.836,84.144 L49.836,88.064 L41.716,88.064 L41.716,85.88 L40.946,85.88 L40.946,93.272 C40.946,94.364 41.492,94.91 42.598,94.91 L50.088,94.91 C50.676,94.91 51.124,94.756 51.432,94.462 C51.796,94.07 52.034,93.02 52.174,91.326 L51.432,91.088 C51.348,92.684 51.152,93.622 50.816,93.93 C50.592,94.098 50.27,94.182 49.878,94.182 L42.822,94.182 C42.08,94.182 41.716,93.832 41.716,93.132 L41.716,88.806 L50.592,88.806 Z M65.124,95.302 C65.39,95.302 65.628,95.092 65.852,94.672 C66.09,94.21 66.3,93.342 66.468,92.054 L65.838,91.746 C65.726,92.502 65.628,93.104 65.516,93.58 C65.39,94.126 65.236,94.406 65.04,94.406 C64.746,94.406 64.536,94.112 64.424,93.524 C64.256,92.936 64.172,91.606 64.172,89.506 L64.172,85.054 L61.19,85.054 L61.19,82.618 L60.448,82.618 L60.448,85.054 L58.558,85.054 L58.558,85.81 L60.448,85.81 L60.448,87.462 C60.434,88.05 60.392,88.638 60.336,89.226 C59.832,88.876 59.3,88.554 58.768,88.26 L58.348,88.876 C58.964,89.198 59.594,89.59 60.224,90.038 C59.832,92.138 58.964,93.748 57.606,94.868 L58.18,95.372 C59.524,94.224 60.434,92.6 60.882,90.528 C61.414,90.948 61.974,91.424 62.548,91.984 L62.982,91.326 C62.366,90.738 61.708,90.206 61.022,89.702 C61.12,89.002 61.176,88.26 61.19,87.462 L61.19,85.81 L63.43,85.81 L63.43,89.506 C63.43,91.83 63.556,93.384 63.836,94.14 C64.116,94.896 64.536,95.288 65.124,95.302 Z M55.254,95.232 C56.038,95.232 56.43,94.854 56.43,94.112 L56.43,89.884 C56.948,89.674 57.452,89.45 57.942,89.212 L57.942,88.456 C57.438,88.708 56.934,88.932 56.43,89.156 L56.43,86.104 L57.844,86.104 L57.844,85.362 L56.43,85.362 L56.43,82.646 L55.674,82.646 L55.674,85.362 L53.784,85.362 L53.784,86.104 L55.674,86.104 L55.674,89.45 C54.974,89.702 54.26,89.926 53.532,90.094 L53.714,90.822 C54.372,90.626 55.03,90.416 55.674,90.178 L55.674,93.916 C55.674,94.336 55.436,94.56 54.988,94.56 C54.596,94.56 54.19,94.532 53.77,94.504 L53.938,95.232 L55.254,95.232 Z M72.992,83.584 L72.992,84.326 L79.6,84.326 L79.6,83.584 L72.992,83.584 Z M72.586,87.182 L72.586,87.924 L77.15,87.924 L77.15,94 C77.15,94.42 76.898,94.63 76.394,94.63 C75.764,94.63 75.106,94.602 74.42,94.574 L74.588,95.302 L76.646,95.302 C77.486,95.302 77.92,94.924 77.92,94.182 L77.92,87.924 L80.244,87.924 L80.244,87.182 L72.586,87.182 Z M70.92,82.73 C70.248,84.102 69.142,85.32 67.616,86.398 L67.854,87.154 C69.562,85.992 70.808,84.62 71.606,83.052 L70.92,82.73 Z M71.592,85.922 C70.794,87.518 69.492,88.932 67.686,90.192 L67.924,90.948 C68.638,90.458 69.296,89.926 69.912,89.366 L69.912,95.372 L70.654,95.372 L70.654,88.596 C71.298,87.868 71.83,87.084 72.264,86.244 L71.592,85.922 Z" id="执行状态" fill="#212121"></path>
                    <use id="上半部" stroke="#9E9E9E" mask="url(#mask-4)" stroke-width="2" xlink:href="#path-3"></use>
                    <path d="M50.592,29.806 L50.592,24.416 L40.414,24.416 L40.414,25.144 L49.836,25.144 L49.836,29.064 L41.716,29.064 L41.716,26.88 L40.946,26.88 L40.946,34.272 C40.946,35.364 41.492,35.91 42.598,35.91 L50.088,35.91 C50.676,35.91 51.124,35.756 51.432,35.462 C51.796,35.07 52.034,34.02 52.174,32.326 L51.432,32.088 C51.348,33.684 51.152,34.622 50.816,34.93 C50.592,35.098 50.27,35.182 49.878,35.182 L42.822,35.182 C42.08,35.182 41.716,34.832 41.716,34.132 L41.716,29.806 L50.592,29.806 Z M55.94,27.832 L55.94,28.56 L59.692,28.56 L59.692,35 C59.468,34.944 59.258,34.888 59.062,34.832 C58.026,34.496 57.158,33.684 56.486,32.382 C56.738,31.64 56.962,30.828 57.144,29.946 L56.416,29.806 C55.94,32.298 55.016,34.286 53.644,35.756 L54.134,36.358 C54.96,35.49 55.646,34.426 56.192,33.152 C56.766,34.146 57.536,34.874 58.502,35.336 C59.678,35.84 61.652,36.092 64.396,36.092 L66.132,36.092 L66.286,35.35 C65.516,35.378 64.774,35.406 64.06,35.406 C62.632,35.392 61.428,35.308 60.448,35.154 L60.448,32.018 L64.732,32.018 L64.732,31.29 L60.448,31.29 L60.448,28.56 L64.088,28.56 L64.088,27.832 L55.94,27.832 Z M65.628,25.088 L60.56,25.088 C60.336,24.472 60.098,23.94 59.86,23.464 L59.062,23.604 C59.314,24.038 59.566,24.528 59.79,25.088 L54.372,25.088 L54.372,28 L55.128,28 L55.128,25.816 L64.872,25.816 L64.872,27.944 L65.628,27.944 L65.628,25.088 Z M72.726,23.618 L72.012,23.926 C72.908,24.92 73.72,26.054 74.448,27.342 L75.134,26.992 C74.434,25.76 73.622,24.626 72.726,23.618 Z M77.892,24.248 C77.29,27.384 76.016,29.932 74.084,31.92 C72.264,30.226 70.85,28.112 69.842,25.564 L69.156,25.956 C70.22,28.518 71.676,30.688 73.524,32.452 C71.984,33.838 70.08,34.902 67.784,35.644 L68.204,36.33 C70.556,35.56 72.516,34.44 74.112,32.984 C75.736,34.384 77.668,35.504 79.88,36.33 L80.342,35.644 C78.186,34.874 76.296,33.81 74.672,32.438 C76.674,30.38 77.99,27.706 78.634,24.402 L77.892,24.248 Z" id="定义状态" fill="#212121"></path>
                </g>
                <g id="#2" transform="translate(220.000000, 19.000000)">
                    <use id="下半部" stroke="#9E9E9E" mask="url(#mask-6)" stroke-width="2" xlink:href="#path-5"></use>
                    <path d="M45.622,82.646 L45.622,84.648 L40.806,84.648 L40.806,85.404 L45.622,85.404 L45.622,88.106 L39.966,88.106 L39.966,88.862 L44.824,88.862 C43.802,90.892 42.108,92.544 39.756,93.832 L40.19,94.546 C42.668,93.062 44.418,91.172 45.44,88.862 L45.622,88.862 L45.622,95.33 L46.378,95.33 L46.378,88.862 L46.56,88.862 C47.512,90.934 49.206,92.81 51.67,94.49 L52.216,93.804 C49.808,92.348 48.128,90.71 47.19,88.862 L52.034,88.862 L52.034,88.106 L46.378,88.106 L46.378,85.404 L51.292,85.404 L51.292,84.648 L46.378,84.648 L46.378,82.646 L45.622,82.646 Z M65.124,95.302 C65.39,95.302 65.628,95.092 65.852,94.672 C66.09,94.21 66.3,93.342 66.468,92.054 L65.838,91.746 C65.726,92.502 65.628,93.104 65.516,93.58 C65.39,94.126 65.236,94.406 65.04,94.406 C64.746,94.406 64.536,94.112 64.424,93.524 C64.256,92.936 64.172,91.606 64.172,89.506 L64.172,85.054 L61.19,85.054 L61.19,82.618 L60.448,82.618 L60.448,85.054 L58.558,85.054 L58.558,85.81 L60.448,85.81 L60.448,87.462 C60.434,88.05 60.392,88.638 60.336,89.226 C59.832,88.876 59.3,88.554 58.768,88.26 L58.348,88.876 C58.964,89.198 59.594,89.59 60.224,90.038 C59.832,92.138 58.964,93.748 57.606,94.868 L58.18,95.372 C59.524,94.224 60.434,92.6 60.882,90.528 C61.414,90.948 61.974,91.424 62.548,91.984 L62.982,91.326 C62.366,90.738 61.708,90.206 61.022,89.702 C61.12,89.002 61.176,88.26 61.19,87.462 L61.19,85.81 L63.43,85.81 L63.43,89.506 C63.43,91.83 63.556,93.384 63.836,94.14 C64.116,94.896 64.536,95.288 65.124,95.302 Z M55.254,95.232 C56.038,95.232 56.43,94.854 56.43,94.112 L56.43,89.884 C56.948,89.674 57.452,89.45 57.942,89.212 L57.942,88.456 C57.438,88.708 56.934,88.932 56.43,89.156 L56.43,86.104 L57.844,86.104 L57.844,85.362 L56.43,85.362 L56.43,82.646 L55.674,82.646 L55.674,85.362 L53.784,85.362 L53.784,86.104 L55.674,86.104 L55.674,89.45 C54.974,89.702 54.26,89.926 53.532,90.094 L53.714,90.822 C54.372,90.626 55.03,90.416 55.674,90.178 L55.674,93.916 C55.674,94.336 55.436,94.56 54.988,94.56 C54.596,94.56 54.19,94.532 53.77,94.504 L53.938,95.232 L55.254,95.232 Z M72.992,83.584 L72.992,84.326 L79.6,84.326 L79.6,83.584 L72.992,83.584 Z M72.586,87.182 L72.586,87.924 L77.15,87.924 L77.15,94 C77.15,94.42 76.898,94.63 76.394,94.63 C75.764,94.63 75.106,94.602 74.42,94.574 L74.588,95.302 L76.646,95.302 C77.486,95.302 77.92,94.924 77.92,94.182 L77.92,87.924 L80.244,87.924 L80.244,87.182 L72.586,87.182 Z M70.92,82.73 C70.248,84.102 69.142,85.32 67.616,86.398 L67.854,87.154 C69.562,85.992 70.808,84.62 71.606,83.052 L70.92,82.73 Z M71.592,85.922 C70.794,87.518 69.492,88.932 67.686,90.192 L67.924,90.948 C68.638,90.458 69.296,89.926 69.912,89.366 L69.912,95.372 L70.654,95.372 L70.654,88.596 C71.298,87.868 71.83,87.084 72.264,86.244 L71.592,85.922 Z" id="执行状态" fill="#212121"></path>
                    <use id="上半部" stroke="#9E9E9E" mask="url(#mask-8)" stroke-width="2" xlink:href="#path-7"></use>
                    <path d="M50.592,29.806 L50.592,24.416 L40.414,24.416 L40.414,25.144 L49.836,25.144 L49.836,29.064 L41.716,29.064 L41.716,26.88 L40.946,26.88 L40.946,34.272 C40.946,35.364 41.492,35.91 42.598,35.91 L50.088,35.91 C50.676,35.91 51.124,35.756 51.432,35.462 C51.796,35.07 52.034,34.02 52.174,32.326 L51.432,32.088 C51.348,33.684 51.152,34.622 50.816,34.93 C50.592,35.098 50.27,35.182 49.878,35.182 L42.822,35.182 C42.08,35.182 41.716,34.832 41.716,34.132 L41.716,29.806 L50.592,29.806 Z M55.94,27.832 L55.94,28.56 L59.692,28.56 L59.692,35 C59.468,34.944 59.258,34.888 59.062,34.832 C58.026,34.496 57.158,33.684 56.486,32.382 C56.738,31.64 56.962,30.828 57.144,29.946 L56.416,29.806 C55.94,32.298 55.016,34.286 53.644,35.756 L54.134,36.358 C54.96,35.49 55.646,34.426 56.192,33.152 C56.766,34.146 57.536,34.874 58.502,35.336 C59.678,35.84 61.652,36.092 64.396,36.092 L66.132,36.092 L66.286,35.35 C65.516,35.378 64.774,35.406 64.06,35.406 C62.632,35.392 61.428,35.308 60.448,35.154 L60.448,32.018 L64.732,32.018 L64.732,31.29 L60.448,31.29 L60.448,28.56 L64.088,28.56 L64.088,27.832 L55.94,27.832 Z M65.628,25.088 L60.56,25.088 C60.336,24.472 60.098,23.94 59.86,23.464 L59.062,23.604 C59.314,24.038 59.566,24.528 59.79,25.088 L54.372,25.088 L54.372,28 L55.128,28 L55.128,25.816 L64.872,25.816 L64.872,27.944 L65.628,27.944 L65.628,25.088 Z M72.726,23.618 L72.012,23.926 C72.908,24.92 73.72,26.054 74.448,27.342 L75.134,26.992 C74.434,25.76 73.622,24.626 72.726,23.618 Z M77.892,24.248 C77.29,27.384 76.016,29.932 74.084,31.92 C72.264,30.226 70.85,28.112 69.842,25.564 L69.156,25.956 C70.22,28.518 71.676,30.688 73.524,32.452 C71.984,33.838 70.08,34.902 67.784,35.644 L68.204,36.33 C70.556,35.56 72.516,34.44 74.112,32.984 C75.736,34.384 77.668,35.504 79.88,36.33 L80.342,35.644 C78.186,34.874 76.296,33.81 74.672,32.438 C76.674,30.38 77.99,27.706 78.634,24.402 L77.892,24.248 Z" id="定义状态" fill="#212121"></path>
                </g>
                <g id="#1" transform="translate(0.000000, 19.000000)">
                    <use id="下半部" stroke="#9E9E9E" mask="url(#mask-10)" stroke-width="2" xlink:href="#path-9"></use>
                    <path d="M45.622,82.646 L45.622,84.648 L40.806,84.648 L40.806,85.404 L45.622,85.404 L45.622,88.106 L39.966,88.106 L39.966,88.862 L44.824,88.862 C43.802,90.892 42.108,92.544 39.756,93.832 L40.19,94.546 C42.668,93.062 44.418,91.172 45.44,88.862 L45.622,88.862 L45.622,95.33 L46.378,95.33 L46.378,88.862 L46.56,88.862 C47.512,90.934 49.206,92.81 51.67,94.49 L52.216,93.804 C49.808,92.348 48.128,90.71 47.19,88.862 L52.034,88.862 L52.034,88.106 L46.378,88.106 L46.378,85.404 L51.292,85.404 L51.292,84.648 L46.378,84.648 L46.378,82.646 L45.622,82.646 Z M65.124,95.302 C65.39,95.302 65.628,95.092 65.852,94.672 C66.09,94.21 66.3,93.342 66.468,92.054 L65.838,91.746 C65.726,92.502 65.628,93.104 65.516,93.58 C65.39,94.126 65.236,94.406 65.04,94.406 C64.746,94.406 64.536,94.112 64.424,93.524 C64.256,92.936 64.172,91.606 64.172,89.506 L64.172,85.054 L61.19,85.054 L61.19,82.618 L60.448,82.618 L60.448,85.054 L58.558,85.054 L58.558,85.81 L60.448,85.81 L60.448,87.462 C60.434,88.05 60.392,88.638 60.336,89.226 C59.832,88.876 59.3,88.554 58.768,88.26 L58.348,88.876 C58.964,89.198 59.594,89.59 60.224,90.038 C59.832,92.138 58.964,93.748 57.606,94.868 L58.18,95.372 C59.524,94.224 60.434,92.6 60.882,90.528 C61.414,90.948 61.974,91.424 62.548,91.984 L62.982,91.326 C62.366,90.738 61.708,90.206 61.022,89.702 C61.12,89.002 61.176,88.26 61.19,87.462 L61.19,85.81 L63.43,85.81 L63.43,89.506 C63.43,91.83 63.556,93.384 63.836,94.14 C64.116,94.896 64.536,95.288 65.124,95.302 Z M55.254,95.232 C56.038,95.232 56.43,94.854 56.43,94.112 L56.43,89.884 C56.948,89.674 57.452,89.45 57.942,89.212 L57.942,88.456 C57.438,88.708 56.934,88.932 56.43,89.156 L56.43,86.104 L57.844,86.104 L57.844,85.362 L56.43,85.362 L56.43,82.646 L55.674,82.646 L55.674,85.362 L53.784,85.362 L53.784,86.104 L55.674,86.104 L55.674,89.45 C54.974,89.702 54.26,89.926 53.532,90.094 L53.714,90.822 C54.372,90.626 55.03,90.416 55.674,90.178 L55.674,93.916 C55.674,94.336 55.436,94.56 54.988,94.56 C54.596,94.56 54.19,94.532 53.77,94.504 L53.938,95.232 L55.254,95.232 Z M72.992,83.584 L72.992,84.326 L79.6,84.326 L79.6,83.584 L72.992,83.584 Z M72.586,87.182 L72.586,87.924 L77.15,87.924 L77.15,94 C77.15,94.42 76.898,94.63 76.394,94.63 C75.764,94.63 75.106,94.602 74.42,94.574 L74.588,95.302 L76.646,95.302 C77.486,95.302 77.92,94.924 77.92,94.182 L77.92,87.924 L80.244,87.924 L80.244,87.182 L72.586,87.182 Z M70.92,82.73 C70.248,84.102 69.142,85.32 67.616,86.398 L67.854,87.154 C69.562,85.992 70.808,84.62 71.606,83.052 L70.92,82.73 Z M71.592,85.922 C70.794,87.518 69.492,88.932 67.686,90.192 L67.924,90.948 C68.638,90.458 69.296,89.926 69.912,89.366 L69.912,95.372 L70.654,95.372 L70.654,88.596 C71.298,87.868 71.83,87.084 72.264,86.244 L71.592,85.922 Z" id="执行状态" fill="#212121"></path>
                    <use id="上半部" stroke="#9E9E9E" mask="url(#mask-12)" stroke-width="2" xlink:href="#path-11"></use>
                    <path d="M45.622,23.646 L45.622,25.648 L40.806,25.648 L40.806,26.404 L45.622,26.404 L45.622,29.106 L39.966,29.106 L39.966,29.862 L44.824,29.862 C43.802,31.892 42.108,33.544 39.756,34.832 L40.19,35.546 C42.668,34.062 44.418,32.172 45.44,29.862 L45.622,29.862 L45.622,36.33 L46.378,36.33 L46.378,29.862 L46.56,29.862 C47.512,31.934 49.206,33.81 51.67,35.49 L52.216,34.804 C49.808,33.348 48.128,31.71 47.19,29.862 L52.034,29.862 L52.034,29.106 L46.378,29.106 L46.378,26.404 L51.292,26.404 L51.292,25.648 L46.378,25.648 L46.378,23.646 L45.622,23.646 Z M55.94,27.832 L55.94,28.56 L59.692,28.56 L59.692,35 C59.468,34.944 59.258,34.888 59.062,34.832 C58.026,34.496 57.158,33.684 56.486,32.382 C56.738,31.64 56.962,30.828 57.144,29.946 L56.416,29.806 C55.94,32.298 55.016,34.286 53.644,35.756 L54.134,36.358 C54.96,35.49 55.646,34.426 56.192,33.152 C56.766,34.146 57.536,34.874 58.502,35.336 C59.678,35.84 61.652,36.092 64.396,36.092 L66.132,36.092 L66.286,35.35 C65.516,35.378 64.774,35.406 64.06,35.406 C62.632,35.392 61.428,35.308 60.448,35.154 L60.448,32.018 L64.732,32.018 L64.732,31.29 L60.448,31.29 L60.448,28.56 L64.088,28.56 L64.088,27.832 L55.94,27.832 Z M65.628,25.088 L60.56,25.088 C60.336,24.472 60.098,23.94 59.86,23.464 L59.062,23.604 C59.314,24.038 59.566,24.528 59.79,25.088 L54.372,25.088 L54.372,28 L55.128,28 L55.128,25.816 L64.872,25.816 L64.872,27.944 L65.628,27.944 L65.628,25.088 Z M72.726,23.618 L72.012,23.926 C72.908,24.92 73.72,26.054 74.448,27.342 L75.134,26.992 C74.434,25.76 73.622,24.626 72.726,23.618 Z M77.892,24.248 C77.29,27.384 76.016,29.932 74.084,31.92 C72.264,30.226 70.85,28.112 69.842,25.564 L69.156,25.956 C70.22,28.518 71.676,30.688 73.524,32.452 C71.984,33.838 70.08,34.902 67.784,35.644 L68.204,36.33 C70.556,35.56 72.516,34.44 74.112,32.984 C75.736,34.384 77.668,35.504 79.88,36.33 L80.342,35.644 C78.186,34.874 76.296,33.81 74.672,32.438 C76.674,30.38 77.99,27.706 78.634,24.402 L77.892,24.248 Z" id="定义状态" fill="#212121"></path>
                </g>
                <g id="箭头#3" transform="translate(55.000000, 148.000000)" stroke="#9E9E9E">
                    <g id="箭头" transform="translate(5.000000, 15.500000) rotate(-90.000000) translate(-5.000000, -15.500000) translate(-10.500000, 10.500000)">
                        <polygon id="Triangle" fill="#9E9E9E" transform="translate(26.000000, 5.000000) rotate(90.000000) translate(-26.000000, -5.000000) " points="26 0 31 10 21 10"></polygon>
                        <path d="M20.5,5.00390625 L0.5,5.00390625" id="Path-2"></path>
                    </g>
                    <path d="M445,0 L445,30" id="Line" stroke-linecap="square"></path>
                    <path d="M444.5,30 L5,30" id="Line" stroke-linecap="square"></path>
                </g>
                <g id="箭头#2" transform="translate(350.000000, 73.500000)" stroke="#9E9E9E">
                    <polygon id="Triangle" fill="#9E9E9E" transform="translate(75.000000, 5.000000) rotate(90.000000) translate(-75.000000, -5.000000) " points="75 0 80 10 70 10"></polygon>
                    <path d="M69.5,5.00390625 L0,5" id="Path-2"></path>
                </g>
                <g id="箭头#1" transform="translate(130.000000, 73.500000)" stroke="#9E9E9E">
                    <polygon id="Triangle" fill="#9E9E9E" transform="translate(75.000000, 5.000000) rotate(90.000000) translate(-75.000000, -5.000000) " points="75 0 80 10 70 10"></polygon>
                    <path d="M69.5,5.00390625 L0,5" id="Path-2"></path>
                </g>
            </g>
        </g>
    </g>
</svg>