<?xml version="1.0" encoding="UTF-8"?>
<svg width="640px" height="203px" viewBox="0 0 640 203" version="1.1" xmlns="http://www.w3.org/2000/svg" xmlns:xlink="http://www.w3.org/1999/xlink">
    <!-- Generator: Sketch 42 (36781) - http://www.bohemiancoding.com/sketch -->
    <title>resolve.AMD</title>
    <desc>Created with Sketch.</desc>
    <defs>
        <rect id="path-1" x="0" y="0" width="80" height="40"></rect>
        <mask id="mask-2" maskContentUnits="userSpaceOnUse" maskUnits="objectBoundingBox" x="0" y="0" width="80" height="40" fill="white">
            <use xlink:href="#path-1"></use>
        </mask>
        <rect id="path-3" x="0" y="0" width="80" height="40"></rect>
        <mask id="mask-4" maskContentUnits="userSpaceOnUse" maskUnits="objectBoundingBox" x="0" y="0" width="80" height="40" fill="white">
            <use xlink:href="#path-3"></use>
        </mask>
        <rect id="path-5" x="0" y="0" width="80" height="40"></rect>
        <mask id="mask-6" maskContentUnits="userSpaceOnUse" maskUnits="objectBoundingBox" x="0" y="0" width="80" height="40" fill="white">
            <use xlink:href="#path-5"></use>
        </mask>
        <rect id="path-7" x="0" y="0" width="80" height="40"></rect>
        <mask id="mask-8" maskContentUnits="userSpaceOnUse" maskUnits="objectBoundingBox" x="0" y="0" width="80" height="40" fill="white">
            <use xlink:href="#path-7"></use>
        </mask>
        <rect id="path-9" x="0" y="0" width="80" height="40"></rect>
        <mask id="mask-10" maskContentUnits="userSpaceOnUse" maskUnits="objectBoundingBox" x="0" y="0" width="80" height="40" fill="white">
            <use xlink:href="#path-9"></use>
        </mask>
        <rect id="path-11" x="0" y="0" width="80" height="40"></rect>
        <mask id="mask-12" maskContentUnits="userSpaceOnUse" maskUnits="objectBoundingBox" x="0" y="0" width="80" height="40" fill="white">
            <use xlink:href="#path-11"></use>
        </mask>
    </defs>
    <g id="resolve" stroke="none" stroke-width="1" fill="none" fill-rule="evenodd">
        <g id="resolve.AMD">
            <g id="resolve" transform="translate(20.000000, 20.000000)">
                <g id="config-urlArgs" transform="translate(390.000000, 48.000000)">
                    <use id="配置" stroke="#9E9E9E" mask="url(#mask-2)" stroke-width="2" xlink:href="#path-1"></use>
                    <path d="M13.5859375,19.1289062 L14.5224609,19.1289062 L14.5224609,23.0664062 C14.5224609,23.6360706 14.6466459,24.0769841 14.8950195,24.3891602 C15.1433932,24.7013362 15.5432915,24.8574219 16.0947266,24.8574219 C16.4410825,24.8574219 16.7532538,24.7776701 17.03125,24.6181641 C17.3092462,24.4586581 17.546223,24.2456068 17.7421875,23.9790039 C17.938152,23.712401 18.0874018,23.4070655 18.1899414,23.0629883 C18.292481,22.718911 18.34375,22.3600279 18.34375,21.9863281 L18.34375,19.1289062 L19.2871094,19.1289062 L19.2871094,25.5 L18.34375,25.5 L18.34375,23.9072266 C17.8971332,25.0738991 17.0950579,25.6572266 15.9375,25.6572266 C14.3697838,25.6572266 13.5859375,24.7936284 13.5859375,23.0664062 L13.5859375,19.1289062 Z M26.9160156,20.0244141 C26.5787744,19.8557934 26.1777367,19.7714844 25.7128906,19.7714844 C25.3300762,19.7714844 24.9882828,19.8535148 24.6875,20.0175781 C24.3867172,20.1816414 24.1315115,20.3969713 23.921875,20.6635742 C23.7122385,20.9301771 23.5515956,21.2355126 23.4399414,21.5795898 C23.3282872,21.9236671 23.2724609,22.277993 23.2724609,22.6425781 L23.2724609,24.7001953 L24.7148438,24.7001953 L24.7148438,25.5 L20.8935547,25.5 L20.8935547,24.7001953 L22.3359375,24.7001953 L22.3359375,19.9287109 L20.8935547,19.9287109 L20.8935547,19.1289062 L23.2724609,19.1289062 L23.2724609,20.7285156 C23.7008485,19.5618431 24.5143169,18.9785156 25.7128906,18.9785156 C26.03646,18.9785156 26.3178699,18.9990232 26.5571289,19.0400391 C26.7963879,19.0810549 27.0185537,19.1539708 27.2236328,19.2587891 L26.9160156,20.0244141 Z M33.6289062,25.5 L29.8076172,25.5 L29.8076172,24.7001953 L31.25,24.7001953 L31.25,17.3789062 L29.8076172,17.3789062 L29.8076172,16.5791016 L32.1933594,16.5791016 L32.1933594,24.7001953 L33.6289062,24.7001953 L33.6289062,25.5 Z M42.9804688,25.5 L41.9755859,25.5 L41.1347656,22.9501953 L37.6074219,22.9501953 L36.7802734,25.5 L35.7753906,25.5 L38.7421875,16.5791016 L40.0136719,16.5791016 L42.9804688,25.5 Z M40.8681641,22.1230469 L39.3710938,17.5224609 L37.8740234,22.1230469 L40.8681641,22.1230469 Z M49.84375,20.0244141 C49.5065087,19.8557934 49.1054711,19.7714844 48.640625,19.7714844 C48.2578106,19.7714844 47.9160171,19.8535148 47.6152344,20.0175781 C47.3144516,20.1816414 47.0592458,20.3969713 46.8496094,20.6635742 C46.6399729,20.9301771 46.47933,21.2355126 46.3676758,21.5795898 C46.2560216,21.9236671 46.2001953,22.277993 46.2001953,22.6425781 L46.2001953,24.7001953 L47.6425781,24.7001953 L47.6425781,25.5 L43.8212891,25.5 L43.8212891,24.7001953 L45.2636719,24.7001953 L45.2636719,19.9287109 L43.8212891,19.9287109 L43.8212891,19.1289062 L46.2001953,19.1289062 L46.2001953,20.7285156 C46.6285829,19.5618431 47.4420513,18.9785156 48.640625,18.9785156 C48.9641943,18.9785156 49.2456043,18.9990232 49.4848633,19.0400391 C49.7241223,19.0810549 49.946288,19.1539708 50.1513672,19.2587891 L49.84375,20.0244141 Z M57.5,25.4316406 C57.5,25.8691428 57.4248054,26.2587874 57.2744141,26.6005859 C57.1240227,26.9423845 56.9132501,27.2317696 56.6420898,27.46875 C56.3709296,27.7057304 56.0519224,27.8868809 55.6850586,28.012207 C55.3181948,28.1375332 54.9091819,28.2001953 54.4580078,28.2001953 C53.8245411,28.2001953 53.2856468,28.0817069 52.8413086,27.8447266 C52.3969704,27.6077462 52.0130225,27.2659528 51.6894531,26.8193359 L52.3457031,26.3134766 C52.5416676,26.609702 52.8242169,26.8580719 53.1933594,27.0585938 C53.5625018,27.2591156 53.9840471,27.359375 54.4580078,27.359375 C55.1051465,27.359375 55.6166973,27.1964535 55.9926758,26.8706055 C56.3686542,26.5447575 56.5566406,26.0742218 56.5566406,25.4589844 L56.5566406,24.7753906 C56.0006483,25.2675806 55.3671911,25.5136719 54.65625,25.5136719 C53.6581981,25.5136719 52.8743518,25.228844 52.3046875,24.6591797 C51.7350232,24.0895154 51.4501953,23.3102263 51.4501953,22.3212891 C51.4501953,21.8382137 51.5242506,21.3927429 51.6723633,20.9848633 C51.820476,20.5769836 52.0323879,20.2237971 52.3081055,19.925293 C52.583823,19.6267889 52.9199199,19.3943693 53.3164062,19.2280273 C53.7128926,19.0616854 54.1595027,18.9785156 54.65625,18.9785156 C55.0026059,18.9785156 55.3387028,19.0388991 55.6645508,19.159668 C55.9903988,19.2804368 56.2877591,19.4615873 56.5566406,19.703125 L56.5566406,19.1289062 L57.5,19.1289062 L57.5,25.4316406 Z M56.5566406,20.6123047 C56.2877591,20.3160792 55.9926774,20.1018887 55.6713867,19.9697266 C55.350096,19.8375644 55.0117205,19.7714844 54.65625,19.7714844 C54.2825502,19.7714844 53.9532892,19.8375644 53.668457,19.9697266 C53.3836249,20.1018887 53.1477874,20.2818999 52.9609375,20.5097656 C52.7740876,20.7376313 52.6316737,21.0076482 52.5336914,21.3198242 C52.4357091,21.6320003 52.3867188,21.9658185 52.3867188,22.3212891 C52.3867188,23.0504594 52.5758445,23.6315083 52.9541016,24.0644531 C53.3323587,24.497398 53.8997358,24.7138672 54.65625,24.7138672 C55.0117205,24.7138672 55.350096,24.6466478 55.6713867,24.512207 C55.9926774,24.3777663 56.2877591,24.1601578 56.5566406,23.859375 L56.5566406,20.6123047 Z M65.3066406,23.7363281 C65.3066406,24.1100279 65.2132171,24.4199206 65.0263672,24.6660156 C64.8395173,24.9121106 64.5991226,25.1080722 64.3051758,25.2539062 C64.011229,25.3997403 63.6831073,25.5034177 63.3208008,25.5649414 C62.9584943,25.6264652 62.6041684,25.6572266 62.2578125,25.6572266 C61.6790336,25.6572266 61.1025419,25.5729175 60.5283203,25.4042969 C59.9540987,25.2356762 59.4573589,25.0146498 59.0380859,24.7412109 L59.4550781,23.9345703 C59.9244815,24.2307958 60.387042,24.4586581 60.8427734,24.6181641 C61.2985049,24.7776701 61.7701799,24.8574219 62.2578125,24.8574219 C63.6660227,24.8574219 64.3701172,24.4928422 64.3701172,23.7636719 C64.3701172,23.5859366 64.3120123,23.441244 64.1958008,23.3295898 C64.0795893,23.2179356 63.9235036,23.1267907 63.7275391,23.0561523 C63.5315745,22.985514 63.3071302,22.9296877 63.0541992,22.8886719 C62.8012683,22.847656 62.5358087,22.8089195 62.2578125,22.7724609 C61.902342,22.7223305 61.5491554,22.6630863 61.1982422,22.5947266 C60.847329,22.5263668 60.5271824,22.4238288 60.237793,22.2871094 C59.9484035,22.1503899 59.715984,21.9681001 59.5405273,21.7402344 C59.3650707,21.5123687 59.2773438,21.2115904 59.2773438,20.8378906 C59.2773438,20.5188786 59.3582349,20.2431652 59.5200195,20.0107422 C59.6818042,19.7783192 59.8982734,19.5846362 60.1694336,19.4296875 C60.4405938,19.2747388 60.7584617,19.1608077 61.1230469,19.0878906 C61.487632,19.0149736 61.8658835,18.9785156 62.2578125,18.9785156 C62.8183622,18.9785156 63.3196592,19.0434564 63.7617188,19.1733398 C64.2037783,19.3032233 64.6025373,19.4889311 64.9580078,19.7304688 L64.5820312,20.4619141 C64.2174461,20.2067045 63.8483092,20.0278325 63.4746094,19.925293 C63.1009096,19.8227534 62.6953147,19.7714844 62.2578125,19.7714844 C62.061848,19.7714844 61.8442395,19.788574 61.6049805,19.8227539 C61.3657215,19.8569338 61.1435557,19.916178 60.9384766,20.0004883 C60.7333974,20.0847986 60.5613614,20.1941725 60.4223633,20.3286133 C60.2833652,20.4630541 60.2138672,20.6328115 60.2138672,20.8378906 C60.2138672,21.0156259 60.2719721,21.1580398 60.3881836,21.2651367 C60.5043951,21.3722336 60.6604808,21.4610999 60.8564453,21.5317383 C61.0524098,21.6023767 61.2768542,21.6582029 61.5297852,21.6992188 C61.7827161,21.7402346 62.0481757,21.7789712 62.3261719,21.8154297 C62.6725278,21.8655601 63.0222964,21.9248043 63.3754883,21.9931641 C63.7286802,22.0615238 64.049966,22.1617832 64.3393555,22.2939453 C64.6287449,22.4261074 64.8623038,22.6061187 65.0400391,22.8339844 C65.2177743,23.0618501 65.3066406,23.3626283 65.3066406,23.7363281 Z" id="urlArgs" fill="#212121"></path>
                </g>
                <g id="config-paths-&amp;-config-map" transform="translate(260.000000, 29.000000)">
                    <g id="config-map" transform="translate(0.000000, 39.000000)">
                        <use id="配置" stroke="#9E9E9E" mask="url(#mask-4)" stroke-width="2" xlink:href="#path-3"></use>
                        <path d="M34.9072266,25.5 L33.9707031,25.5 L33.9707031,20.9199219 C33.9707031,20.5553367 33.9069017,20.2727875 33.7792969,20.0722656 C33.6516921,19.8717438 33.4671236,19.7714844 33.2255859,19.7714844 C32.8701154,19.7714844 32.6092131,19.9583315 32.4428711,20.3320312 C32.2765291,20.705731 32.1933594,21.2298143 32.1933594,21.9042969 L32.1933594,25.5 L31.25,25.5 L31.25,20.9199219 C31.25,20.5553367 31.1850592,20.2727875 31.0551758,20.0722656 C30.9252923,19.8717438 30.7395845,19.7714844 30.4980469,19.7714844 C30.2747385,19.7714844 30.0970059,19.8375644 29.9648438,19.9697266 C29.8326816,20.1018887 29.7290043,20.2705068 29.6538086,20.4755859 C29.5786129,20.6806651 29.5296225,20.9085274 29.5068359,21.1591797 C29.4840494,21.409832 29.4726562,21.6582019 29.4726562,21.9042969 L29.4726562,25.5 L28.5361328,25.5 L28.5361328,19.1289062 L29.4726562,19.1289062 L29.4726562,20.0517578 C29.6686208,19.3362594 30.0947233,18.9785156 30.7509766,18.9785156 C31.3753286,18.9785156 31.7991525,19.290687 32.0224609,19.9150391 C32.3323583,19.290687 32.7698539,18.9785156 33.3349609,18.9785156 C33.8772814,18.9785156 34.2749011,19.1391585 34.527832,19.4604492 C34.780763,19.7817399 34.9072266,20.2682259 34.9072266,20.9199219 L34.9072266,25.5 Z M36.1650391,23.7773438 C36.1650391,23.3763001 36.2652985,23.0402032 36.4658203,22.769043 C36.6663421,22.4978828 36.9295231,22.2836922 37.2553711,22.1264648 C37.5812191,21.9692375 37.9549133,21.8553063 38.3764648,21.784668 C38.7980164,21.7140296 39.2275369,21.6787109 39.6650391,21.6787109 C39.8336597,21.6787109 39.9851881,21.6809896 40.1196289,21.6855469 C40.2540697,21.6901042 40.3816726,21.6969401 40.5024414,21.7060547 C40.6232102,21.7151693 40.7451166,21.7265624 40.8681641,21.7402344 C40.9912116,21.7539063 41.1256503,21.7698567 41.2714844,21.7880859 L41.2714844,21.3300781 C41.2714844,21.0201807 41.204265,20.764975 41.0698242,20.5644531 C40.9353834,20.3639313 40.7701833,20.205567 40.5742188,20.0893555 C40.3782542,19.973144 40.1731782,19.8911135 39.9589844,19.8432617 C39.7447906,19.7954099 39.5625008,19.7714844 39.4121094,19.7714844 C38.9381487,19.7714844 38.500653,19.8352858 38.0996094,19.9628906 C37.6985657,20.0904954 37.3248715,20.2613922 36.9785156,20.4755859 L36.5546875,19.7714844 C36.9375019,19.5390613 37.3670224,19.3487963 37.8432617,19.2006836 C38.3195011,19.0525709 38.8424451,18.9785156 39.4121094,18.9785156 C39.7584653,18.9785156 40.0991194,19.0229488 40.434082,19.1118164 C40.7690446,19.200684 41.0698229,19.3374014 41.3364258,19.5219727 C41.6030287,19.7065439 41.8160799,19.9492172 41.9755859,20.25 C42.1350919,20.5507828 42.2148438,20.9108052 42.2148438,21.3300781 L42.2148438,25.5 L41.2714844,25.5 L41.2714844,24.4335938 C41.1074211,24.6386729 40.9217133,24.8186841 40.7143555,24.9736328 C40.5069977,25.1285815 40.2893892,25.2550451 40.0615234,25.3530273 C39.8336577,25.4510096 39.6057954,25.5262042 39.3779297,25.5786133 C39.150064,25.6310224 38.9335948,25.6572266 38.7285156,25.6572266 C37.8854125,25.6572266 37.247398,25.4954443 36.8144531,25.171875 C36.3815083,24.8483057 36.1650391,24.3834666 36.1650391,23.7773438 Z M38.7285156,24.8574219 C39.1204447,24.8574219 39.4724919,24.799317 39.784668,24.6831055 C40.096844,24.566894 40.3623036,24.4222014 40.5810547,24.2490234 C40.7998058,24.0758455 40.9695632,23.891277 41.090332,23.6953125 C41.2111009,23.499348 41.2714844,23.3216154 41.2714844,23.1621094 L41.2714844,22.5605469 C40.9661443,22.5149737 40.6733412,22.4899089 40.3930664,22.4853516 C40.1127916,22.4807942 39.8701182,22.4785156 39.6650391,22.4785156 C39.3277978,22.4785156 39.003094,22.5013019 38.690918,22.546875 C38.3787419,22.5924481 38.1064465,22.6665034 37.8740234,22.769043 C37.6416004,22.8715825 37.4547533,23.004882 37.3134766,23.1689453 C37.1721998,23.3330086 37.1015625,23.5358061 37.1015625,23.7773438 C37.1015625,24.0462253 37.2325833,24.2934559 37.4946289,24.519043 C37.7566745,24.74463 38.1679659,24.8574219 38.7285156,24.8574219 Z M50.1923828,22.3212891 C50.1923828,22.8180363 50.1149096,23.2692037 49.9599609,23.6748047 C49.8050122,24.0804057 49.5874037,24.4301743 49.3071289,24.7241211 C49.0268541,25.0180679 48.6884785,25.2470695 48.2919922,25.4111328 C47.8955058,25.5751961 47.4511743,25.6572266 46.9589844,25.6572266 C46.6217431,25.6572266 46.2947607,25.5957037 45.9780273,25.4726562 C45.661294,25.3496088 45.3662123,25.1673189 45.0927734,24.9257812 L45.0927734,28.0498047 L44.15625,28.0498047 L44.15625,19.1289062 L45.0927734,19.1289062 L45.0927734,19.7167969 C45.6715524,19.2246069 46.2936165,18.9785156 46.9589844,18.9785156 C47.4511743,18.9785156 47.8955058,19.0594067 48.2919922,19.2211914 C48.6884785,19.3829761 49.0268541,19.613117 49.3071289,19.9116211 C49.5874037,20.2101252 49.8050122,20.5655904 49.9599609,20.9780273 C50.1149096,21.3904643 50.1923828,21.8382137 50.1923828,22.3212891 Z M49.2558594,22.3212891 C49.2558594,21.9658185 49.206869,21.6320003 49.1088867,21.3198242 C49.0109045,21.0076482 48.8639333,20.7376313 48.6679688,20.5097656 C48.4720042,20.2818999 48.2316095,20.1018887 47.9467773,19.9697266 C47.6619452,19.8375644 47.3326842,19.7714844 46.9589844,19.7714844 C46.6035138,19.7714844 46.2719742,19.8375644 45.9643555,19.9697266 C45.6567367,20.1018887 45.3662123,20.3160792 45.0927734,20.6123047 L45.0927734,24.0302734 C45.3662123,24.3264989 45.6567367,24.5384108 45.9643555,24.6660156 C46.2719742,24.7936204 46.6035138,24.8574219 46.9589844,24.8574219 C47.3326842,24.8574219 47.6619452,24.7913418 47.9467773,24.6591797 C48.2316095,24.5270176 48.4720042,24.3470063 48.6679688,24.1191406 C48.8639333,23.8912749 49.0109045,23.6235367 49.1088867,23.315918 C49.206869,23.0082992 49.2558594,22.6767596 49.2558594,22.3212891 Z" id="map" fill="#212121"></path>
                    </g>
                    <g id="config-paths">
                        <use id="配置" stroke="#9E9E9E" mask="url(#mask-6)" stroke-width="2" xlink:href="#path-5"></use>
                        <path d="M27.2646484,22.3212891 C27.2646484,22.8180363 27.1871753,23.2692037 27.0322266,23.6748047 C26.8772779,24.0804057 26.6596694,24.4301743 26.3793945,24.7241211 C26.0991197,25.0180679 25.7607442,25.2470695 25.3642578,25.4111328 C24.9677715,25.5751961 24.52344,25.6572266 24.03125,25.6572266 C23.6940087,25.6572266 23.3670263,25.5957037 23.050293,25.4726562 C22.7335596,25.3496088 22.4384779,25.1673189 22.1650391,24.9257812 L22.1650391,28.0498047 L21.2285156,28.0498047 L21.2285156,19.1289062 L22.1650391,19.1289062 L22.1650391,19.7167969 C22.743818,19.2246069 23.3658821,18.9785156 24.03125,18.9785156 C24.52344,18.9785156 24.9677715,19.0594067 25.3642578,19.2211914 C25.7607442,19.3829761 26.0991197,19.613117 26.3793945,19.9116211 C26.6596694,20.2101252 26.8772779,20.5655904 27.0322266,20.9780273 C27.1871753,21.3904643 27.2646484,21.8382137 27.2646484,22.3212891 Z M26.328125,22.3212891 C26.328125,21.9658185 26.2791346,21.6320003 26.1811523,21.3198242 C26.0831701,21.0076482 25.9361989,20.7376313 25.7402344,20.5097656 C25.5442699,20.2818999 25.3038751,20.1018887 25.019043,19.9697266 C24.7342108,19.8375644 24.4049498,19.7714844 24.03125,19.7714844 C23.6757795,19.7714844 23.3442398,19.8375644 23.0366211,19.9697266 C22.7290024,20.1018887 22.4384779,20.3160792 22.1650391,20.6123047 L22.1650391,24.0302734 C22.4384779,24.3264989 22.7290024,24.5384108 23.0366211,24.6660156 C23.3442398,24.7936204 23.6757795,24.8574219 24.03125,24.8574219 C24.4049498,24.8574219 24.7342108,24.7913418 25.019043,24.6591797 C25.3038751,24.5270176 25.5442699,24.3470063 25.7402344,24.1191406 C25.9361989,23.8912749 26.0831701,23.6235367 26.1811523,23.315918 C26.2791346,23.0082992 26.328125,22.6767596 26.328125,22.3212891 Z M28.5224609,23.7773438 C28.5224609,23.3763001 28.6227204,23.0402032 28.8232422,22.769043 C29.023764,22.4978828 29.286945,22.2836922 29.612793,22.1264648 C29.938641,21.9692375 30.3123351,21.8553063 30.7338867,21.784668 C31.1554383,21.7140296 31.5849587,21.6787109 32.0224609,21.6787109 C32.1910816,21.6787109 32.34261,21.6809896 32.4770508,21.6855469 C32.6114916,21.6901042 32.7390944,21.6969401 32.8598633,21.7060547 C32.9806321,21.7151693 33.1025384,21.7265624 33.2255859,21.7402344 C33.3486334,21.7539063 33.4830722,21.7698567 33.6289062,21.7880859 L33.6289062,21.3300781 C33.6289062,21.0201807 33.5616869,20.764975 33.4272461,20.5644531 C33.2928053,20.3639313 33.1276051,20.205567 32.9316406,20.0893555 C32.7356761,19.973144 32.5306,19.8911135 32.3164062,19.8432617 C32.1022125,19.7954099 31.9199226,19.7714844 31.7695312,19.7714844 C31.2955705,19.7714844 30.8580749,19.8352858 30.4570312,19.9628906 C30.0559876,20.0904954 29.6822934,20.2613922 29.3359375,20.4755859 L28.9121094,19.7714844 C29.2949238,19.5390613 29.7244442,19.3487963 30.2006836,19.2006836 C30.676923,19.0525709 31.1998669,18.9785156 31.7695312,18.9785156 C32.1158871,18.9785156 32.4565413,19.0229488 32.7915039,19.1118164 C33.1264665,19.200684 33.4272448,19.3374014 33.6938477,19.5219727 C33.9604506,19.7065439 34.1735018,19.9492172 34.3330078,20.25 C34.4925138,20.5507828 34.5722656,20.9108052 34.5722656,21.3300781 L34.5722656,25.5 L33.6289062,25.5 L33.6289062,24.4335938 C33.4648429,24.6386729 33.2791352,24.8186841 33.0717773,24.9736328 C32.8644195,25.1285815 32.646811,25.2550451 32.4189453,25.3530273 C32.1910796,25.4510096 31.9632173,25.5262042 31.7353516,25.5786133 C31.5074858,25.6310224 31.2910167,25.6572266 31.0859375,25.6572266 C30.2428343,25.6572266 29.6048199,25.4954443 29.171875,25.171875 C28.7389301,24.8483057 28.5224609,24.3834666 28.5224609,23.7773438 Z M31.0859375,24.8574219 C31.4778665,24.8574219 31.8299138,24.799317 32.1420898,24.6831055 C32.4542659,24.566894 32.7197255,24.4222014 32.9384766,24.2490234 C33.1572277,24.0758455 33.3269851,23.891277 33.4477539,23.6953125 C33.5685227,23.499348 33.6289062,23.3216154 33.6289062,23.1621094 L33.6289062,22.5605469 C33.3235662,22.5149737 33.0307631,22.4899089 32.7504883,22.4853516 C32.4702134,22.4807942 32.2275401,22.4785156 32.0224609,22.4785156 C31.6852197,22.4785156 31.3605159,22.5013019 31.0483398,22.546875 C30.7361638,22.5924481 30.4638683,22.6665034 30.2314453,22.769043 C29.9990223,22.8715825 29.8121752,23.004882 29.6708984,23.1689453 C29.5296217,23.3330086 29.4589844,23.5358061 29.4589844,23.7773438 C29.4589844,24.0462253 29.5900052,24.2934559 29.8520508,24.519043 C30.1140964,24.74463 30.5253878,24.8574219 31.0859375,24.8574219 Z M42.6181641,23.4697266 C42.545247,24.1396518 42.2820661,24.6717103 41.8286133,25.065918 C41.3751605,25.4601257 40.8089227,25.6572266 40.1298828,25.6572266 C39.756183,25.6572266 39.4143896,25.5957037 39.1044922,25.4726562 C38.7945948,25.3496088 38.5302745,25.178712 38.3115234,24.9599609 C38.0927723,24.7412098 37.9230149,24.4780289 37.8022461,24.1704102 C37.6814773,23.8627914 37.6210938,23.5266945 37.6210938,23.1621094 L37.6210938,19.9287109 L36.1787109,19.9287109 L36.1787109,19.1289062 L37.6210938,19.1289062 L37.6210938,16.5791016 L38.5576172,16.5791016 L38.5576172,19.1289062 L41.2714844,19.1289062 L41.2714844,19.9287109 L38.5576172,19.9287109 L38.5576172,23.1621094 C38.5576172,23.3945324 38.5952145,23.6132802 38.6704102,23.8183594 C38.7456058,24.0234385 38.8504225,24.2034497 38.9848633,24.3583984 C39.1193041,24.5133471 39.2822256,24.6352535 39.4736328,24.7241211 C39.66504,24.8129887 39.8837878,24.8574219 40.1298828,24.8574219 C40.5947289,24.8574219 40.9832341,24.7127293 41.2954102,24.4233398 C41.6075862,24.1339504 41.7864581,23.7591169 41.8320312,23.2988281 L42.6181641,23.4697266 Z M49.8574219,25.5 L48.9140625,25.5 L48.9140625,21.5693359 C48.9140625,20.9996716 48.7910169,20.5576188 48.5449219,20.2431641 C48.2988269,19.9287094 47.9000679,19.7714844 47.3486328,19.7714844 C47.0022769,19.7714844 46.6889662,19.8512362 46.4086914,20.0107422 C46.1284166,20.1702482 45.8903005,20.3832994 45.6943359,20.6499023 C45.4983714,20.9165052 45.3491216,21.2218407 45.246582,21.565918 C45.1440425,21.9099952 45.0927734,22.2688783 45.0927734,22.6425781 L45.0927734,25.5 L44.15625,25.5 L44.15625,16.5791016 L45.0927734,16.5791016 L45.0927734,20.7285156 C45.5439476,19.5618431 46.3483015,18.9785156 47.5058594,18.9785156 C49.0735755,18.9785156 49.8574219,19.8421138 49.8574219,21.5693359 L49.8574219,25.5 Z M57.6640625,23.7363281 C57.6640625,24.1100279 57.570639,24.4199206 57.3837891,24.6660156 C57.1969392,24.9121106 56.9565444,25.1080722 56.6625977,25.2539062 C56.3686509,25.3997403 56.0405292,25.5034177 55.6782227,25.5649414 C55.3159162,25.6264652 54.9615903,25.6572266 54.6152344,25.6572266 C54.0364554,25.6572266 53.4599638,25.5729175 52.8857422,25.4042969 C52.3115206,25.2356762 51.8147807,25.0146498 51.3955078,24.7412109 L51.8125,23.9345703 C52.2819034,24.2307958 52.7444639,24.4586581 53.2001953,24.6181641 C53.6559268,24.7776701 54.1276017,24.8574219 54.6152344,24.8574219 C56.0234445,24.8574219 56.7275391,24.4928422 56.7275391,23.7636719 C56.7275391,23.5859366 56.6694342,23.441244 56.5532227,23.3295898 C56.4370111,23.2179356 56.2809255,23.1267907 56.0849609,23.0561523 C55.8889964,22.985514 55.664552,22.9296877 55.4116211,22.8886719 C55.1586901,22.847656 54.8932306,22.8089195 54.6152344,22.7724609 C54.2597638,22.7223305 53.9065773,22.6630863 53.5556641,22.5947266 C53.2047508,22.5263668 52.8846043,22.4238288 52.5952148,22.2871094 C52.3058254,22.1503899 52.0734058,21.9681001 51.8979492,21.7402344 C51.7224926,21.5123687 51.6347656,21.2115904 51.6347656,20.8378906 C51.6347656,20.5188786 51.7156567,20.2431652 51.8774414,20.0107422 C52.0392261,19.7783192 52.2556953,19.5846362 52.5268555,19.4296875 C52.7980157,19.2747388 53.1158836,19.1608077 53.4804688,19.0878906 C53.8450539,19.0149736 54.2233053,18.9785156 54.6152344,18.9785156 C55.1757841,18.9785156 55.6770811,19.0434564 56.1191406,19.1733398 C56.5612001,19.3032233 56.9599592,19.4889311 57.3154297,19.7304688 L56.9394531,20.4619141 C56.574868,20.2067045 56.205731,20.0278325 55.8320312,19.925293 C55.4583315,19.8227534 55.0527366,19.7714844 54.6152344,19.7714844 C54.4192699,19.7714844 54.2016614,19.788574 53.9624023,19.8227539 C53.7231433,19.8569338 53.5009776,19.916178 53.2958984,20.0004883 C53.0908193,20.0847986 52.9187832,20.1941725 52.7797852,20.3286133 C52.6407871,20.4630541 52.5712891,20.6328115 52.5712891,20.8378906 C52.5712891,21.0156259 52.629394,21.1580398 52.7456055,21.2651367 C52.861817,21.3722336 53.0179027,21.4610999 53.2138672,21.5317383 C53.4098317,21.6023767 53.6342761,21.6582029 53.887207,21.6992188 C54.140138,21.7402346 54.4055976,21.7789712 54.6835938,21.8154297 C55.0299496,21.8655601 55.3797183,21.9248043 55.7329102,21.9931641 C56.086102,22.0615238 56.4073879,22.1617832 56.6967773,22.2939453 C56.9861668,22.4261074 57.2197257,22.6061187 57.3974609,22.8339844 C57.5751962,23.0618501 57.6640625,23.3626283 57.6640625,23.7363281 Z" id="paths" fill="#212121"></path>
                    </g>
                </g>
                <g id="config-baseUrl" transform="translate(130.000000, 48.000000)">
                    <use id="配置" stroke="#9E9E9E" mask="url(#mask-8)" stroke-width="2" xlink:href="#path-7"></use>
                    <path d="M19.6220703,22.3212891 C19.6220703,22.8089217 19.5468758,23.2578104 19.3964844,23.6679688 C19.246093,24.0781271 19.0307631,24.4301743 18.7504883,24.7241211 C18.4702134,25.0180679 18.1318379,25.2470695 17.7353516,25.4111328 C17.3388652,25.5751961 16.8945337,25.6572266 16.4023438,25.6572266 C16.0559879,25.6572266 15.7244482,25.5957037 15.4077148,25.4726562 C15.0909815,25.3496088 14.7958998,25.1673189 14.5224609,24.9257812 L14.5224609,25.5 L13.5859375,25.5 L13.5859375,16.5791016 L14.5224609,16.5791016 L14.5224609,19.7167969 C14.7958998,19.4843738 15.0909815,19.3032233 15.4077148,19.1733398 C15.7244482,19.0434564 16.0559879,18.9785156 16.4023438,18.9785156 C16.8945337,18.9785156 17.3388652,19.0616854 17.7353516,19.2280273 C18.1318379,19.3943693 18.4702134,19.6245102 18.7504883,19.918457 C19.0307631,20.2124038 19.246093,20.5655904 19.3964844,20.9780273 C19.5468758,21.3904643 19.6220703,21.8382137 19.6220703,22.3212891 Z M18.671875,22.3212891 C18.671875,21.9567039 18.6251632,21.620607 18.5317383,21.3129883 C18.4383133,21.0053696 18.2958994,20.7376313 18.1044922,20.5097656 C17.913085,20.2818999 17.6749689,20.1018887 17.3901367,19.9697266 C17.1053046,19.8375644 16.7760435,19.7714844 16.4023438,19.7714844 C15.6822881,19.7714844 15.0556667,20.0563123 14.5224609,20.6259766 L14.5224609,24.0302734 C14.7958998,24.3264989 15.0887029,24.5384108 15.4008789,24.6660156 C15.7130549,24.7936204 16.0468732,24.8574219 16.4023438,24.8574219 C16.7760435,24.8574219 17.1030259,24.7913418 17.3833008,24.6591797 C17.6635756,24.5270176 17.8994131,24.3470063 18.0908203,24.1191406 C18.2822275,23.8912749 18.4269201,23.6235367 18.5249023,23.315918 C18.6228846,23.0082992 18.671875,22.6767596 18.671875,22.3212891 Z M20.8798828,23.7773438 C20.8798828,23.3763001 20.9801422,23.0402032 21.1806641,22.769043 C21.3811859,22.4978828 21.6443669,22.2836922 21.9702148,22.1264648 C22.2960628,21.9692375 22.669757,21.8553063 23.0913086,21.784668 C23.5128602,21.7140296 23.9423806,21.6787109 24.3798828,21.6787109 C24.5485034,21.6787109 24.7000319,21.6809896 24.8344727,21.6855469 C24.9689134,21.6901042 25.0965163,21.6969401 25.2172852,21.7060547 C25.338054,21.7151693 25.4599603,21.7265624 25.5830078,21.7402344 C25.7060553,21.7539063 25.8404941,21.7698567 25.9863281,21.7880859 L25.9863281,21.3300781 C25.9863281,21.0201807 25.9191087,20.764975 25.784668,20.5644531 C25.6502272,20.3639313 25.485027,20.205567 25.2890625,20.0893555 C25.093098,19.973144 24.8880219,19.8911135 24.6738281,19.8432617 C24.4596343,19.7954099 24.2773445,19.7714844 24.1269531,19.7714844 C23.6529924,19.7714844 23.2154968,19.8352858 22.8144531,19.9628906 C22.4134095,20.0904954 22.0397153,20.2613922 21.6933594,20.4755859 L21.2695312,19.7714844 C21.6523457,19.5390613 22.0818661,19.3487963 22.5581055,19.2006836 C23.0343448,19.0525709 23.5572888,18.9785156 24.1269531,18.9785156 C24.473309,18.9785156 24.8139632,19.0229488 25.1489258,19.1118164 C25.4838884,19.200684 25.7846666,19.3374014 26.0512695,19.5219727 C26.3178724,19.7065439 26.5309237,19.9492172 26.6904297,20.25 C26.8499357,20.5507828 26.9296875,20.9108052 26.9296875,21.3300781 L26.9296875,25.5 L25.9863281,25.5 L25.9863281,24.4335938 C25.8222648,24.6386729 25.636557,24.8186841 25.4291992,24.9736328 C25.2218414,25.1285815 25.0042329,25.2550451 24.7763672,25.3530273 C24.5485015,25.4510096 24.3206392,25.5262042 24.0927734,25.5786133 C23.8649077,25.6310224 23.6484385,25.6572266 23.4433594,25.6572266 C22.6002562,25.6572266 21.9622417,25.4954443 21.5292969,25.171875 C21.096352,24.8483057 20.8798828,24.3834666 20.8798828,23.7773438 Z M23.4433594,24.8574219 C23.8352884,24.8574219 24.1873357,24.799317 24.4995117,24.6831055 C24.8116878,24.566894 25.0771473,24.4222014 25.2958984,24.2490234 C25.5146495,24.0758455 25.6844069,23.891277 25.8051758,23.6953125 C25.9259446,23.499348 25.9863281,23.3216154 25.9863281,23.1621094 L25.9863281,22.5605469 C25.6809881,22.5149737 25.388185,22.4899089 25.1079102,22.4853516 C24.8276353,22.4807942 24.584962,22.4785156 24.3798828,22.4785156 C24.0426415,22.4785156 23.7179378,22.5013019 23.4057617,22.546875 C23.0935857,22.5924481 22.8212902,22.6665034 22.5888672,22.769043 C22.3564442,22.8715825 22.1695971,23.004882 22.0283203,23.1689453 C21.8870436,23.3330086 21.8164062,23.5358061 21.8164062,23.7773438 C21.8164062,24.0462253 21.9474271,24.2934559 22.2094727,24.519043 C22.4715182,24.74463 22.8828097,24.8574219 23.4433594,24.8574219 Z M34.7363281,23.7363281 C34.7363281,24.1100279 34.6429046,24.4199206 34.4560547,24.6660156 C34.2692048,24.9121106 34.0288101,25.1080722 33.7348633,25.2539062 C33.4409165,25.3997403 33.1127948,25.5034177 32.7504883,25.5649414 C32.3881818,25.6264652 32.0338559,25.6572266 31.6875,25.6572266 C31.1087211,25.6572266 30.5322294,25.5729175 29.9580078,25.4042969 C29.3837862,25.2356762 28.8870464,25.0146498 28.4677734,24.7412109 L28.8847656,23.9345703 C29.354169,24.2307958 29.8167295,24.4586581 30.2724609,24.6181641 C30.7281924,24.7776701 31.1998674,24.8574219 31.6875,24.8574219 C33.0957102,24.8574219 33.7998047,24.4928422 33.7998047,23.7636719 C33.7998047,23.5859366 33.7416998,23.441244 33.6254883,23.3295898 C33.5092768,23.2179356 33.3531911,23.1267907 33.1572266,23.0561523 C32.961262,22.985514 32.7368177,22.9296877 32.4838867,22.8886719 C32.2309558,22.847656 31.9654962,22.8089195 31.6875,22.7724609 C31.3320295,22.7223305 30.9788429,22.6630863 30.6279297,22.5947266 C30.2770165,22.5263668 29.9568699,22.4238288 29.6674805,22.2871094 C29.378091,22.1503899 29.1456715,21.9681001 28.9702148,21.7402344 C28.7947582,21.5123687 28.7070313,21.2115904 28.7070313,20.8378906 C28.7070313,20.5188786 28.7879224,20.2431652 28.949707,20.0107422 C29.1114917,19.7783192 29.3279609,19.5846362 29.5991211,19.4296875 C29.8702813,19.2747388 30.1881492,19.1608077 30.5527344,19.0878906 C30.9173195,19.0149736 31.295571,18.9785156 31.6875,18.9785156 C32.2480497,18.9785156 32.7493467,19.0434564 33.1914062,19.1733398 C33.6334658,19.3032233 34.0322248,19.4889311 34.3876953,19.7304688 L34.0117188,20.4619141 C33.6471336,20.2067045 33.2779967,20.0278325 32.9042969,19.925293 C32.5305971,19.8227534 32.1250022,19.7714844 31.6875,19.7714844 C31.4915355,19.7714844 31.273927,19.788574 31.034668,19.8227539 C30.795409,19.8569338 30.5732432,19.916178 30.3681641,20.0004883 C30.1630849,20.0847986 29.9910489,20.1941725 29.8520508,20.3286133 C29.7130527,20.4630541 29.6435547,20.6328115 29.6435547,20.8378906 C29.6435547,21.0156259 29.7016596,21.1580398 29.8178711,21.2651367 C29.9340826,21.3722336 30.0901683,21.4610999 30.2861328,21.5317383 C30.4820973,21.6023767 30.7065417,21.6582029 30.9594727,21.6992188 C31.2124036,21.7402346 31.4778632,21.7789712 31.7558594,21.8154297 C32.1022153,21.8655601 32.4519839,21.9248043 32.8051758,21.9931641 C33.1583677,22.0615238 33.4796535,22.1617832 33.769043,22.2939453 C34.0584324,22.4261074 34.2919913,22.6061187 34.4697266,22.8339844 C34.6474618,23.0618501 34.7363281,23.3626283 34.7363281,23.7363281 Z M37.1152344,22.6425781 C37.1835941,23.3170607 37.4296854,23.8548157 37.8535156,24.2558594 C38.2773459,24.656903 38.8287726,24.8574219 39.5078125,24.8574219 C39.9863305,24.8574219 40.412433,24.7594411 40.7861328,24.5634766 C41.1598326,24.367512 41.4401032,24.1236994 41.6269531,23.8320312 L42.2832031,24.2832031 C41.9641911,24.7298199 41.5836611,25.0704741 41.1416016,25.3051758 C40.6995421,25.5398775 40.1549512,25.6572266 39.5078125,25.6572266 C39.0156225,25.6572266 38.5644552,25.5751961 38.1542969,25.4111328 C37.7441386,25.2470695 37.3898127,25.0180679 37.0913086,24.7241211 C36.7928045,24.4301743 36.5615243,24.0804057 36.3974609,23.6748047 C36.2333976,23.2692037 36.1513672,22.8180363 36.1513672,22.3212891 C36.1513672,21.8382137 36.2254224,21.3927429 36.3735352,20.9848633 C36.5216479,20.5769836 36.7358384,20.2237971 37.0161133,19.925293 C37.2963881,19.6267889 37.6370423,19.3943693 38.0380859,19.2280273 C38.4391296,19.0616854 38.8880183,18.9785156 39.3847656,18.9785156 C39.927086,18.9785156 40.4010396,19.0696605 40.8066406,19.2519531 C41.2122416,19.4342457 41.5506171,19.6860335 41.8217773,20.0073242 C42.0929376,20.3286149 42.2934564,20.7125629 42.4233398,21.1591797 C42.5532233,21.6057965 42.6181641,22.1002577 42.6181641,22.6425781 L37.1152344,22.6425781 Z M41.6269531,21.8427734 C41.5221349,21.1455043 41.2692077,20.6259783 40.8681641,20.2841797 C40.4671204,19.9423811 39.9726592,19.7714844 39.3847656,19.7714844 C39.0839829,19.7714844 38.8059909,19.8204748 38.5507812,19.918457 C38.2955716,20.0164393 38.069988,20.1565746 37.8740234,20.3388672 C37.6780589,20.5211598 37.5139981,20.7410469 37.3818359,20.9985352 C37.2496738,21.2560234 37.1653648,21.5374334 37.1289062,21.8427734 L41.6269531,21.8427734 Z M49.8574219,22.3212891 C49.8574219,22.827151 49.8015956,23.2851542 49.6899414,23.6953125 C49.5782872,24.1054708 49.4051119,24.4552394 49.1704102,24.7446289 C48.9357085,25.0340184 48.6383482,25.2584627 48.2783203,25.4179688 C47.9182925,25.5774748 47.49219,25.6572266 47,25.6572266 C46.5032527,25.6572266 46.0760109,25.5774748 45.7182617,25.4179688 C45.3605125,25.2584627 45.0665702,25.0340184 44.8364258,24.7446289 C44.6062814,24.4552394 44.4353847,24.1031922 44.3237305,23.6884766 C44.2120763,23.2737609 44.15625,22.8134791 44.15625,22.3076172 L44.15625,16.5791016 L45.0927734,16.5791016 L45.0927734,22.3212891 C45.0927734,22.5901706 45.116699,22.8749985 45.1645508,23.1757812 C45.2124026,23.476564 45.3058261,23.7499988 45.4448242,23.9960938 C45.5838223,24.2421887 45.7775053,24.4472648 46.0258789,24.6113281 C46.2742525,24.7753914 46.5989563,24.8574219 47,24.8574219 C47.4010437,24.8574219 47.7280261,24.7753914 47.980957,24.6113281 C48.233888,24.4472648 48.4298496,24.2421887 48.5688477,23.9960938 C48.7078457,23.7499988 48.80013,23.476564 48.8457031,23.1757812 C48.8912763,22.8749985 48.9140625,22.5901706 48.9140625,22.3212891 L48.9140625,16.5791016 L49.8574219,16.5791016 L49.8574219,22.3212891 Z M57.4863281,20.0244141 C57.1490869,19.8557934 56.7480492,19.7714844 56.2832031,19.7714844 C55.9003887,19.7714844 55.5585953,19.8535148 55.2578125,20.0175781 C54.9570297,20.1816414 54.701824,20.3969713 54.4921875,20.6635742 C54.282551,20.9301771 54.1219081,21.2355126 54.0102539,21.5795898 C53.8985997,21.9236671 53.8427734,22.277993 53.8427734,22.6425781 L53.8427734,24.7001953 L55.2851562,24.7001953 L55.2851562,25.5 L51.4638672,25.5 L51.4638672,24.7001953 L52.90625,24.7001953 L52.90625,19.9287109 L51.4638672,19.9287109 L51.4638672,19.1289062 L53.8427734,19.1289062 L53.8427734,20.7285156 C54.271161,19.5618431 55.0846294,18.9785156 56.2832031,18.9785156 C56.6067725,18.9785156 56.8881824,18.9990232 57.1274414,19.0400391 C57.3667004,19.0810549 57.5888662,19.1539708 57.7939453,19.2587891 L57.4863281,20.0244141 Z M64.1992188,25.5 L60.3779297,25.5 L60.3779297,24.7001953 L61.8203125,24.7001953 L61.8203125,17.3789062 L60.3779297,17.3789062 L60.3779297,16.5791016 L62.7636719,16.5791016 L62.7636719,24.7001953 L64.1992188,24.7001953 L64.1992188,25.5 Z" id="baseUrl" fill="#212121"></path>
                </g>
                <g id="URL" transform="translate(520.000000, 48.000000)">
                    <use id="BG" stroke="#9E9E9E" mask="url(#mask-10)" stroke-width="2" fill="#FFEB3B" xlink:href="#path-9"></use>
                    <path d="M35.3476562,22.2753906 C35.3476562,22.7089865 35.2998052,23.1015607 35.2041016,23.453125 C35.108398,23.8046893 34.9599619,24.1044909 34.7587891,24.3525391 C34.5576162,24.6005872 34.3027359,24.7929681 33.9941406,24.9296875 C33.6855453,25.0664069 33.3203146,25.1347656 32.8984375,25.1347656 C32.4726541,25.1347656 32.1084,25.0664069 31.8056641,24.9296875 C31.5029282,24.7929681 31.2509776,24.6005872 31.0498047,24.3525391 C30.8486318,24.1044909 30.7001958,23.8027362 30.6044922,23.4472656 C30.5087886,23.0917951 30.4609375,22.6972678 30.4609375,22.2636719 L30.4609375,17.3535156 L31.6738281,17.3535156 L31.6738281,22.2753906 C31.6738281,22.4667978 31.6874999,22.665038 31.7148438,22.8701172 C31.7421876,23.0751963 31.7978511,23.2656241 31.8818359,23.4414062 C31.9658207,23.6171884 32.0898429,23.7607416 32.2539062,23.8720703 C32.4179696,23.983399 32.6328112,24.0390625 32.8984375,24.0390625 C33.1601576,24.0390625 33.3730461,23.983399 33.5371094,23.8720703 C33.7011727,23.7607416 33.8281246,23.6191415 33.9179688,23.4472656 C34.0078129,23.2753898 34.0664061,23.084962 34.09375,22.8759766 C34.1210939,22.6669911 34.1347656,22.4667978 34.1347656,22.2753906 L34.1347656,17.3535156 L35.3476562,17.3535156 L35.3476562,22.2753906 Z M42.2910156,25 L40.7558594,25 L38.7753906,21.90625 L38.2246094,21.90625 L38.2246094,25 L37.0117188,25 L37.0117188,17.3535156 L39.53125,17.3535156 C40.3710979,17.3535156 41.0234352,17.5458965 41.4882812,17.9306641 C41.9531273,18.3154316 42.1855469,18.8847619 42.1855469,19.6386719 C42.1855469,19.9746111 42.1337896,20.2705065 42.0302734,20.5263672 C41.9267573,20.7822278 41.7802744,21.0019522 41.5908203,21.1855469 C41.4013662,21.3691415 41.1806653,21.5146479 40.9287109,21.6220703 C40.6767566,21.7294927 40.4042983,21.8027342 40.1113281,21.8417969 L42.2910156,25 Z M40.9726562,19.6210938 C40.9726562,19.2304668 40.8447278,18.937501 40.5888672,18.7421875 C40.3330065,18.546874 39.980471,18.4492188 39.53125,18.4492188 L38.2246094,18.4492188 L38.2246094,20.8105469 L39.53125,20.8105469 C39.980471,20.8105469 40.3330065,20.7128916 40.5888672,20.5175781 C40.8447278,20.3222646 40.9726562,20.0234395 40.9726562,19.6210938 Z M48.4492188,25 L43.5625,25 L43.5625,17.3535156 L44.7753906,17.3535156 L44.7753906,23.9101562 L48.4492188,23.9101562 L48.4492188,25 Z" fill="#212121"></path>
                </g>
                <g id="ID" transform="translate(0.000000, 48.000000)">
                    <use id="BG" stroke="#9E9E9E" mask="url(#mask-12)" stroke-width="2" fill="#FFEB3B" xlink:href="#path-11"></use>
                    <path d="M38.03125,25 L34.3632812,25 L34.3632812,23.9101562 L35.5703125,23.9101562 L35.5703125,18.4492188 L34.3632812,18.4492188 L34.3632812,17.3535156 L38.03125,17.3535156 L38.03125,18.4492188 L36.7832031,18.4492188 L36.7832031,23.9101562 L38.03125,23.9101562 L38.03125,25 Z M45.7128906,21.1738281 C45.7128906,21.6855494 45.6591802,22.1728492 45.5517578,22.6357422 C45.4443354,23.0986351 45.2724621,23.5048811 45.0361328,23.8544922 C44.7998035,24.2041033 44.4951191,24.4824208 44.1220703,24.6894531 C43.7490216,24.8964854 43.2988308,25 42.7714844,25 L40.2871094,25 L40.2871094,17.3535156 L42.7714844,17.3535156 C43.2910182,17.3535156 43.7373028,17.4580068 44.1103516,17.6669922 C44.4834003,17.8759776 44.7880848,18.1542951 45.0244141,18.5019531 C45.2607434,18.8496111 45.4345698,19.2539039 45.5458984,19.7148438 C45.6572271,20.1757836 45.7128906,20.6621068 45.7128906,21.1738281 Z M44.5,21.1738281 C44.5,20.2910112 44.3496109,19.6162133 44.0488281,19.1494141 C43.7480454,18.6826149 43.3222684,18.4492188 42.7714844,18.4492188 L41.5,18.4492188 L41.5,23.9101562 L42.7714844,23.9101562 C43.3222684,23.9101562 43.7480454,23.6718774 44.0488281,23.1953125 C44.3496109,22.7187476 44.5,22.0449262 44.5,21.1738281 Z" fill="#212121"></path>
                </g>
                <path d="M345,68.5 L384.5,68.5" id="Line" stroke="#E0E0E0" stroke-linecap="square"></path>
                <path d="M301,134 L559,134" id="Line" stroke="#E0E0E0" stroke-linecap="square"></path>
                <path d="M475,68.5 L514.5,68.5" id="Line" stroke="#E0E0E0" stroke-linecap="square"></path>
                <path d="M560,161.5 L560,93.5" id="Line" stroke="#E0E0E0" stroke-linecap="square"></path>
                <path d="M215,68.5 L254.5,68.5" id="Line" stroke="#E0E0E0" stroke-linecap="square"></path>
                <path d="M85,68.5 L124.5,68.5" id="Line" stroke="#E0E0E0" stroke-linecap="square"></path>
                <path d="M300,113 L300,134" id="Line" stroke="#E0E0E0" stroke-linecap="square"></path>
                <path d="M170,93 L170,161" id="Line" stroke="#E0E0E0" stroke-linecap="square"></path>
                <path d="M40,43 L40,2" id="Line" stroke="#E0E0E0" stroke-linecap="square"></path>
                <path d="M40,1.5 L559.5,1.5" id="Line" stroke="#E0E0E0" stroke-linecap="square"></path>
                <path d="M560,1.5 L560,42.5" id="Line" stroke="#E0E0E0" stroke-linecap="square"></path>
                <path d="M170,161.5 L559.5,161.5" id="Line" stroke="#E0E0E0" stroke-linecap="square"></path>
                <polygon id="Triangle" stroke="#E0E0E0" fill="#E0E0E0" transform="translate(251.000000, 68.500000) rotate(90.000000) translate(-251.000000, -68.500000) " points="251 64.5 255 72.5 247 72.5"></polygon>
                <polygon id="Triangle" stroke="#E0E0E0" fill="#E0E0E0" transform="translate(381.000000, 68.500000) rotate(90.000000) translate(-381.000000, -68.500000) " points="381 64.5 385 72.5 377 72.5"></polygon>
                <polygon id="Triangle" stroke="#E0E0E0" fill="#E0E0E0" points="560 93 564 101 556 101"></polygon>
                <polygon id="Triangle" stroke="#E0E0E0" fill="#E0E0E0" transform="translate(560.000000, 39.000000) rotate(180.000000) translate(-560.000000, -39.000000) " points="560 35 564 43 556 43"></polygon>
                <polygon id="Triangle" stroke="#E0E0E0" fill="#E0E0E0" transform="translate(511.000000, 68.500000) rotate(90.000000) translate(-511.000000, -68.500000) " points="511 64.5 515 72.5 507 72.5"></polygon>
                <polygon id="Triangle" stroke="#E0E0E0" fill="#E0E0E0" transform="translate(121.000000, 68.500000) rotate(90.000000) translate(-121.000000, -68.500000) " points="121 64.5 125 72.5 117 72.5"></polygon>
            </g>
        </g>
    </g>
</svg>