<?xml version="1.0" encoding="UTF-8"?>
<svg width="400px" height="337px" viewBox="0 0 400 337" version="1.1" xmlns="http://www.w3.org/2000/svg" xmlns:xlink="http://www.w3.org/1999/xlink">
    <!-- Generator: Sketch 42 (36781) - http://www.bohemiancoding.com/sketch -->
    <title>rjs-relative-path</title>
    <desc>Created with Sketch.</desc>
    <defs>
        <rect id="path-1" x="0" y="0" width="140" height="50"></rect>
        <mask id="mask-2" maskContentUnits="userSpaceOnUse" maskUnits="objectBoundingBox" x="0" y="0" width="140" height="50" fill="white">
            <use xlink:href="#path-1"></use>
        </mask>
        <rect id="path-3" x="0" y="0" width="140" height="50"></rect>
        <mask id="mask-4" maskContentUnits="userSpaceOnUse" maskUnits="objectBoundingBox" x="0" y="0" width="140" height="50" fill="white">
            <use xlink:href="#path-3"></use>
        </mask>
        <rect id="path-5" x="0" y="0" width="140" height="50"></rect>
        <mask id="mask-6" maskContentUnits="userSpaceOnUse" maskUnits="objectBoundingBox" x="0" y="0" width="140" height="50" fill="white">
            <use xlink:href="#path-5"></use>
        </mask>
        <rect id="path-7" x="0" y="0" width="140" height="50"></rect>
        <mask id="mask-8" maskContentUnits="userSpaceOnUse" maskUnits="objectBoundingBox" x="0" y="0" width="140" height="50" fill="white">
            <use xlink:href="#path-7"></use>
        </mask>
        <rect id="path-9" x="0" y="0" width="100" height="50"></rect>
        <mask id="mask-10" maskContentUnits="userSpaceOnUse" maskUnits="objectBoundingBox" x="0" y="0" width="100" height="50" fill="white">
            <use xlink:href="#path-9"></use>
        </mask>
        <rect id="path-11" x="0" y="0" width="100" height="50"></rect>
        <mask id="mask-12" maskContentUnits="userSpaceOnUse" maskUnits="objectBoundingBox" x="0" y="0" width="100" height="50" fill="white">
            <use xlink:href="#path-11"></use>
        </mask>
        <rect id="path-13" x="0" y="0" width="140" height="50"></rect>
        <mask id="mask-14" maskContentUnits="userSpaceOnUse" maskUnits="objectBoundingBox" x="0" y="0" width="140" height="50" fill="white">
            <use xlink:href="#path-13"></use>
        </mask>
    </defs>
    <g id="rjs-relative-path" stroke="none" stroke-width="1" fill="none" fill-rule="evenodd">
        <g id="Group">
            <g transform="translate(20.000000, 20.000000)">
                <g id="appDir" transform="translate(0.000000, 147.000000)">
                    <use id="Rectangle" stroke="#9E9E9E" mask="url(#mask-2)" stroke-width="2" fill="#FFEB3B" xlink:href="#path-1"></use>
                    <path d="M50.3359375,28.5234375 C50.3359375,28.1796858 50.4218741,27.8916027 50.59375,27.6591797 C50.7656259,27.4267567 50.9912095,27.2431647 51.2705078,27.1083984 C51.5498061,26.9736321 51.8701154,26.8759769 52.2314453,26.8154297 C52.5927752,26.7548825 52.9609356,26.7246094 53.3359375,26.7246094 C53.4804695,26.7246094 53.610351,26.7265625 53.7255859,26.7304688 C53.8408209,26.734375 53.9501948,26.7402343 54.0537109,26.7480469 C54.1572271,26.7558594 54.2617182,26.7656249 54.3671875,26.7773438 C54.4726568,26.7890626 54.58789,26.8027343 54.7128906,26.8183594 L54.7128906,26.4257812 C54.7128906,26.1601549 54.655274,25.9414071 54.5400391,25.7695312 C54.4248041,25.5976554 54.283204,25.4619146 54.1152344,25.3623047 C53.9472648,25.2626948 53.7714853,25.192383 53.5878906,25.1513672 C53.404296,25.1103514 53.2480475,25.0898438 53.1191406,25.0898438 C52.7128886,25.0898438 52.3378923,25.1445307 51.9941406,25.2539062 C51.6503889,25.3632818 51.3300796,25.5097647 51.0332031,25.6933594 L50.6699219,25.0898438 C50.9980485,24.890624 51.3662089,24.7275397 51.7744141,24.6005859 C52.1826192,24.4736322 52.6308569,24.4101562 53.1191406,24.4101562 C53.4160171,24.4101562 53.7080064,24.4482418 53.9951172,24.5244141 C54.282228,24.6005863 54.5400379,24.7177726 54.7685547,24.8759766 C54.9970715,25.0341805 55.1796868,25.2421862 55.3164062,25.5 C55.4531257,25.7578138 55.5214844,26.0664045 55.5214844,26.4257812 L55.5214844,30 L54.7128906,30 L54.7128906,29.0859375 C54.5722649,29.2617196 54.4130868,29.416015 54.2353516,29.5488281 C54.0576163,29.6816413 53.8710947,29.7900386 53.6757812,29.8740234 C53.4804678,29.9580082 53.2851572,30.0224607 53.0898438,30.0673828 C52.8945303,30.1123049 52.7089853,30.1347656 52.5332031,30.1347656 C51.8105433,30.1347656 51.2636737,29.9960951 50.8925781,29.71875 C50.5214825,29.4414049 50.3359375,29.0429713 50.3359375,28.5234375 Z M52.5332031,29.4492188 C52.8691423,29.4492188 53.1708971,29.3994146 53.4384766,29.2998047 C53.706056,29.2001948 53.9335928,29.0761726 54.1210938,28.9277344 C54.3085947,28.7792961 54.454101,28.6210946 54.5576172,28.453125 C54.6611333,28.2851554 54.7128906,28.1328132 54.7128906,27.9960938 L54.7128906,27.4804688 C54.4511706,27.4414061 54.2001965,27.4199219 53.9599609,27.4160156 C53.7197254,27.4121094 53.5117196,27.4101562 53.3359375,27.4101562 C53.0468736,27.4101562 52.768556,27.4296873 52.5009766,27.46875 C52.2333971,27.5078127 52.000001,27.5712886 51.8007812,27.6591797 C51.6015615,27.7470708 51.4414069,27.8613274 51.3203125,28.0019531 C51.1992181,28.1425788 51.1386719,28.3164052 51.1386719,28.5234375 C51.1386719,28.7539074 51.2509754,28.9658193 51.4755859,29.1591797 C51.7001964,29.35254 52.052732,29.4492188 52.5332031,29.4492188 Z M62.359375,27.2753906 C62.359375,27.701174 62.2929694,28.0878889 62.1601562,28.4355469 C62.0273431,28.7832049 61.8408215,29.0830066 61.6005859,29.3349609 C61.3603504,29.5869153 61.0703142,29.7832024 60.7304688,29.9238281 C60.3906233,30.0644538 60.0097677,30.1347656 59.5878906,30.1347656 C59.2988267,30.1347656 59.018556,30.0820318 58.7470703,29.9765625 C58.4755846,29.8710932 58.2226574,29.7148448 57.9882812,29.5078125 L57.9882812,32.1855469 L57.1855469,32.1855469 L57.1855469,24.5390625 L57.9882812,24.5390625 L57.9882812,25.0429688 C58.4843775,24.6210916 59.0175753,24.4101562 59.5878906,24.4101562 C60.0097677,24.4101562 60.3906233,24.4794915 60.7304688,24.6181641 C61.0703142,24.7568366 61.3603504,24.9541003 61.6005859,25.2099609 C61.8408215,25.4658216 62.0273431,25.770506 62.1601562,26.1240234 C62.2929694,26.4775408 62.359375,26.8613261 62.359375,27.2753906 Z M61.5566406,27.2753906 C61.5566406,26.9707016 61.5146489,26.6845717 61.4306641,26.4169922 C61.3466793,26.1494127 61.220704,25.9179697 61.0527344,25.7226562 C60.8847648,25.5273428 60.6787122,25.3730474 60.4345703,25.2597656 C60.1904285,25.1464838 59.9082047,25.0898438 59.5878906,25.0898438 C59.2832016,25.0898438 58.9990248,25.1464838 58.7353516,25.2597656 C58.4716784,25.3730474 58.2226574,25.5566394 57.9882812,25.8105469 L57.9882812,28.7402344 C58.2226574,28.9941419 58.4716784,29.1757807 58.7353516,29.2851562 C58.9990248,29.3945318 59.2832016,29.4492188 59.5878906,29.4492188 C59.9082047,29.4492188 60.1904285,29.3925787 60.4345703,29.2792969 C60.6787122,29.1660151 60.8847648,29.0117197 61.0527344,28.8164062 C61.220704,28.6210928 61.3466793,28.3916029 61.4306641,28.1279297 C61.5146489,27.8642565 61.5566406,27.5800796 61.5566406,27.2753906 Z M68.9101562,27.2753906 C68.9101562,27.701174 68.8437507,28.0878889 68.7109375,28.4355469 C68.5781243,28.7832049 68.3916028,29.0830066 68.1513672,29.3349609 C67.9111316,29.5869153 67.6210954,29.7832024 67.28125,29.9238281 C66.9414046,30.0644538 66.560549,30.1347656 66.1386719,30.1347656 C65.8496079,30.1347656 65.5693373,30.0820318 65.2978516,29.9765625 C65.0263658,29.8710932 64.7734387,29.7148448 64.5390625,29.5078125 L64.5390625,32.1855469 L63.7363281,32.1855469 L63.7363281,24.5390625 L64.5390625,24.5390625 L64.5390625,25.0429688 C65.0351587,24.6210916 65.5683565,24.4101562 66.1386719,24.4101562 C66.560549,24.4101562 66.9414046,24.4794915 67.28125,24.6181641 C67.6210954,24.7568366 67.9111316,24.9541003 68.1513672,25.2099609 C68.3916028,25.4658216 68.5781243,25.770506 68.7109375,26.1240234 C68.8437507,26.4775408 68.9101562,26.8613261 68.9101562,27.2753906 Z M68.1074219,27.2753906 C68.1074219,26.9707016 68.0654301,26.6845717 67.9814453,26.4169922 C67.8974605,26.1494127 67.7714852,25.9179697 67.6035156,25.7226562 C67.435546,25.5273428 67.2294934,25.3730474 66.9853516,25.2597656 C66.7412097,25.1464838 66.458986,25.0898438 66.1386719,25.0898438 C65.8339829,25.0898438 65.549806,25.1464838 65.2861328,25.2597656 C65.0224596,25.3730474 64.7734387,25.5566394 64.5390625,25.8105469 L64.5390625,28.7402344 C64.7734387,28.9941419 65.0224596,29.1757807 65.2861328,29.2851562 C65.549806,29.3945318 65.8339829,29.4492188 66.1386719,29.4492188 C66.458986,29.4492188 66.7412097,29.3925787 66.9853516,29.2792969 C67.2294934,29.1660151 67.435546,29.0117197 67.6035156,28.8164062 C67.7714852,28.6210928 67.8974605,28.3916029 67.9814453,28.1279297 C68.0654301,27.8642565 68.1074219,27.5800796 68.1074219,27.2753906 Z M75.7128906,26.1855469 C75.7128906,26.6972682 75.6591802,27.184568 75.5517578,27.6474609 C75.4443354,28.1103539 75.2724621,28.5165998 75.0361328,28.8662109 C74.7998035,29.2158221 74.4951191,29.4921865 74.1220703,29.6953125 C73.7490216,29.8984385 73.2988308,30 72.7714844,30 L70.2871094,30 L70.2871094,22.3535156 L72.7714844,22.3535156 C73.2910182,22.3535156 73.7373028,22.4580068 74.1103516,22.6669922 C74.4834003,22.8759776 74.7880848,23.1562482 75.0244141,23.5078125 C75.2607434,23.8593768 75.4345698,24.2656227 75.5458984,24.7265625 C75.6572271,25.1875023 75.7128906,25.6738256 75.7128906,26.1855469 Z M74.9101562,26.1855469 C74.9101562,25.1855419 74.7216816,24.4111356 74.3447266,23.8623047 C73.9677716,23.3134738 73.4433627,23.0390625 72.7714844,23.0390625 L71.0898438,23.0390625 L71.0898438,29.3144531 L72.7714844,29.3144531 C73.4433627,29.3144531 73.9677716,29.0429715 74.3447266,28.5 C74.7216816,27.9570285 74.9101562,27.1855519 74.9101562,26.1855469 Z M79.8261719,23.4492188 L78.7363281,23.4492188 L78.7363281,22.3535156 L79.8261719,22.3535156 L79.8261719,23.4492188 Z M80.9160156,30 L77.640625,30 L77.640625,29.3144531 L78.8769531,29.3144531 L78.8769531,25.2246094 L77.640625,25.2246094 L77.640625,24.5390625 L79.6855469,24.5390625 L79.6855469,29.3144531 L80.9160156,29.3144531 L80.9160156,30 Z M88.2636719,25.3066406 C87.9746079,25.1621087 87.6308614,25.0898438 87.2324219,25.0898438 C86.9042952,25.0898438 86.6113294,25.1601555 86.3535156,25.3007812 C86.0957018,25.441407 85.876954,25.6259754 85.6972656,25.8544922 C85.5175772,26.083009 85.3798833,26.3447251 85.2841797,26.6396484 C85.1884761,26.9345718 85.140625,27.2382797 85.140625,27.5507812 L85.140625,29.3144531 L86.3769531,29.3144531 L86.3769531,30 L83.1015625,30 L83.1015625,29.3144531 L84.3378906,29.3144531 L84.3378906,25.2246094 L83.1015625,25.2246094 L83.1015625,24.5390625 L85.140625,24.5390625 L85.140625,25.9101562 C85.5078143,24.9101512 86.205073,24.4101562 87.2324219,24.4101562 C87.509767,24.4101562 87.7509755,24.4277342 87.9560547,24.4628906 C88.1611338,24.4980471 88.3515616,24.5605464 88.5273438,24.6503906 L88.2636719,25.3066406 Z" fill="#212121"></path>
                </g>
                <g id="dir-|-out" transform="translate(0.000000, 98.000000)">
                    <use id="Rectangle" stroke="#9E9E9E" mask="url(#mask-4)" stroke-width="2" xlink:href="#path-3"></use>
                    <path d="M45.6953125,30 L44.8867188,30 L44.8867188,29.4960938 C44.6562488,29.703126 44.4033217,29.8613276 44.1279297,29.9707031 C43.8525377,30.0800787 43.5703139,30.1347656 43.28125,30.1347656 C42.8476541,30.1347656 42.4589861,30.0644538 42.1152344,29.9238281 C41.7714827,29.7832024 41.4814465,29.5869153 41.2451172,29.3349609 C41.0087879,29.0830066 40.8271491,28.7812518 40.7001953,28.4296875 C40.5732416,28.0781232 40.5097656,27.6933615 40.5097656,27.2753906 C40.5097656,26.8613261 40.5732416,26.4775408 40.7001953,26.1240234 C40.8271491,25.770506 41.0087879,25.4677747 41.2451172,25.2158203 C41.4814465,24.9638659 41.7714827,24.7666023 42.1152344,24.6240234 C42.4589861,24.4814446 42.8476541,24.4101562 43.28125,24.4101562 C43.5703139,24.4101562 43.8525377,24.4619135 44.1279297,24.5654297 C44.4033217,24.6689458 44.6562488,24.8242177 44.8867188,25.03125 L44.8867188,23.0390625 L43.796875,23.0390625 L43.796875,22.3535156 L45.6953125,22.3535156 L45.6953125,30 Z M44.8867188,25.8105469 C44.6562488,25.5566394 44.4052748,25.3730474 44.1337891,25.2597656 C43.8623033,25.1464838 43.5742203,25.0898438 43.2695312,25.0898438 C42.9492171,25.0898438 42.6669934,25.1464838 42.4228516,25.2597656 C42.1787097,25.3730474 41.9746102,25.5273428 41.8105469,25.7226562 C41.6464836,25.9179697 41.5224614,26.1474596 41.4384766,26.4111328 C41.3544918,26.674806 41.3125,26.9628891 41.3125,27.2753906 C41.3125,27.5878922 41.3544918,27.8759752 41.4384766,28.1396484 C41.5224614,28.4033216 41.6464836,28.6328115 41.8105469,28.828125 C41.9746102,29.0234385 42.1787097,29.1777338 42.4228516,29.2910156 C42.6669934,29.4042974 42.9492171,29.4609375 43.2695312,29.4609375 C43.8867218,29.4609375 44.4257789,29.2167993 44.8867188,28.7285156 L44.8867188,25.8105469 Z M50.3476562,23.4492188 L49.2578125,23.4492188 L49.2578125,22.3535156 L50.3476562,22.3535156 L50.3476562,23.4492188 Z M51.4375,30 L48.1621094,30 L48.1621094,29.3144531 L49.3984375,29.3144531 L49.3984375,25.2246094 L48.1621094,25.2246094 L48.1621094,24.5390625 L50.2070312,24.5390625 L50.2070312,29.3144531 L51.4375,29.3144531 L51.4375,30 Z M58.7851562,25.3066406 C58.4960923,25.1621087 58.1523457,25.0898438 57.7539062,25.0898438 C57.4257796,25.0898438 57.1328138,25.1601555 56.875,25.3007812 C56.6171862,25.441407 56.3984384,25.6259754 56.21875,25.8544922 C56.0390616,26.083009 55.9013677,26.3447251 55.8056641,26.6396484 C55.7099605,26.9345718 55.6621094,27.2382797 55.6621094,27.5507812 L55.6621094,29.3144531 L56.8984375,29.3144531 L56.8984375,30 L53.6230469,30 L53.6230469,29.3144531 L54.859375,29.3144531 L54.859375,25.2246094 L53.6230469,25.2246094 L53.6230469,24.5390625 L55.6621094,24.5390625 L55.6621094,25.9101562 C56.0292987,24.9101512 56.7265574,24.4101562 57.7539062,24.4101562 C58.0312514,24.4101562 58.2724599,24.4277342 58.4775391,24.4628906 C58.6826182,24.4980471 58.873046,24.5605464 59.0488281,24.6503906 L58.7851562,25.3066406 Z M69.859375,31.0898438 L69.0507812,31.0898438 L69.0507812,21.2636719 L69.859375,21.2636719 L69.859375,31.0898438 Z M85.4277344,27.2871094 C85.4277344,27.7128928 85.3603522,28.0996076 85.2255859,28.4472656 C85.0908196,28.7949236 84.8974622,29.0927722 84.6455078,29.3408203 C84.3935534,29.5888684 84.0917986,29.7832024 83.7402344,29.9238281 C83.3886701,30.0644538 82.9960959,30.1347656 82.5625,30.1347656 C82.1367166,30.1347656 81.7480486,30.0644538 81.3964844,29.9238281 C81.0449201,29.7832024 80.7431653,29.5888684 80.4912109,29.3408203 C80.2392566,29.0927722 80.0458991,28.7949236 79.9111328,28.4472656 C79.7763665,28.0996076 79.7089844,27.7128928 79.7089844,27.2871094 C79.7089844,26.8730448 79.7763665,26.4873065 79.9111328,26.1298828 C80.0458991,25.7724592 80.2392566,25.4677747 80.4912109,25.2158203 C80.7431653,24.9638659 81.0449201,24.7666023 81.3964844,24.6240234 C81.7480486,24.4814446 82.1367166,24.4101562 82.5625,24.4101562 C82.9960959,24.4101562 83.3886701,24.4814446 83.7402344,24.6240234 C84.0917986,24.7666023 84.3935534,24.9638659 84.6455078,25.2158203 C84.8974622,25.4677747 85.0908196,25.7724592 85.2255859,26.1298828 C85.3603522,26.4873065 85.4277344,26.8730448 85.4277344,27.2871094 Z M84.625,27.2871094 C84.625,26.9746078 84.579102,26.6865248 84.4873047,26.4228516 C84.3955074,26.1591784 84.2597665,25.9277354 84.0800781,25.7285156 C83.9003897,25.5292959 83.6826185,25.3730474 83.4267578,25.2597656 C83.1708972,25.1464838 82.8828141,25.0898438 82.5625,25.0898438 C82.2421859,25.0898438 81.9541028,25.1464838 81.6982422,25.2597656 C81.4423815,25.3730474 81.2265634,25.5292959 81.0507812,25.7285156 C80.8749991,25.9277354 80.7412114,26.1591784 80.6494141,26.4228516 C80.5576167,26.6865248 80.5117188,26.9746078 80.5117188,27.2871094 C80.5117188,27.5996109 80.5576167,27.887694 80.6494141,28.1513672 C80.7412114,28.4150404 80.8749991,28.6425772 81.0507812,28.8339844 C81.2265634,29.0253916 81.4423815,29.1757807 81.6982422,29.2851562 C81.9541028,29.3945318 82.2421859,29.4492188 82.5625,29.4492188 C82.8828141,29.4492188 83.1708972,29.3945318 83.4267578,29.2851562 C83.6826185,29.1757807 83.9003897,29.0253916 84.0800781,28.8339844 C84.2597665,28.6425772 84.3955074,28.4150404 84.4873047,28.1513672 C84.579102,27.887694 84.625,27.5996109 84.625,27.2871094 Z M86.6640625,24.5390625 L87.4667969,24.5390625 L87.4667969,27.9140625 C87.4667969,28.4023462 87.5732411,28.7802721 87.7861328,29.0478516 C87.9990245,29.315431 88.3417945,29.4492188 88.8144531,29.4492188 C89.1113296,29.4492188 89.3789051,29.3808601 89.6171875,29.2441406 C89.8554699,29.1074212 90.0585929,28.9248058 90.2265625,28.6962891 C90.3945321,28.4677723 90.5224605,28.2060562 90.6103516,27.9111328 C90.6982426,27.6162095 90.7421875,27.3085954 90.7421875,26.9882812 L90.7421875,24.5390625 L91.5507812,24.5390625 L91.5507812,30 L90.7421875,30 L90.7421875,28.6347656 C90.3593731,29.6347706 89.67188,30.1347656 88.6796875,30.1347656 C87.3359308,30.1347656 86.6640625,29.3945387 86.6640625,27.9140625 L86.6640625,24.5390625 Z M98.4472656,28.2597656 C98.3847653,28.8339872 98.1591816,29.2900374 97.7705078,29.6279297 C97.381834,29.965822 96.8964873,30.1347656 96.3144531,30.1347656 C95.994139,30.1347656 95.7011732,30.0820318 95.4355469,29.9765625 C95.1699205,29.8710932 94.9433603,29.7246103 94.7558594,29.5371094 C94.5683584,29.3496084 94.4228521,29.1240248 94.3193359,28.8603516 C94.2158198,28.5966784 94.1640625,28.3085953 94.1640625,27.9960938 L94.1640625,25.2246094 L92.9277344,25.2246094 L92.9277344,24.5390625 L94.1640625,24.5390625 L94.1640625,22.3535156 L94.9667969,22.3535156 L94.9667969,24.5390625 L97.2929688,24.5390625 L97.2929688,25.2246094 L94.9667969,25.2246094 L94.9667969,27.9960938 C94.9667969,28.1953135 94.9990231,28.3828116 95.0634766,28.5585938 C95.12793,28.7343759 95.2177729,28.8886712 95.3330078,29.0214844 C95.4482428,29.1542975 95.5878898,29.2587887 95.7519531,29.3349609 C95.9160164,29.4111332 96.1035146,29.4492188 96.3144531,29.4492188 C96.7128926,29.4492188 97.0458971,29.3251966 97.3134766,29.0771484 C97.581056,28.8291003 97.7343748,28.5078145 97.7734375,28.1132812 L98.4472656,28.2597656 Z" fill="#212121"></path>
                </g>
                <g id="mainConfigFile" transform="translate(0.000000, 49.000000)">
                    <use id="Rectangle" stroke="#9E9E9E" mask="url(#mask-6)" stroke-width="2" xlink:href="#path-5"></use>
                    <path d="M29.6054688,30 L28.8027344,30 L28.8027344,26.0742188 C28.8027344,25.7617172 28.7480474,25.5195321 28.6386719,25.3476562 C28.5292963,25.1757804 28.3710948,25.0898438 28.1640625,25.0898438 C27.8593735,25.0898438 27.6357429,25.2499984 27.4931641,25.5703125 C27.3505852,25.8906266 27.2792969,26.3398409 27.2792969,26.9179688 L27.2792969,30 L26.4707031,30 L26.4707031,26.0742188 C26.4707031,25.7617172 26.4150396,25.5195321 26.3037109,25.3476562 C26.1923823,25.1757804 26.0332042,25.0898438 25.8261719,25.0898438 C25.6347647,25.0898438 25.4824224,25.1464838 25.3691406,25.2597656 C25.2558588,25.3730474 25.1669925,25.5175772 25.1025391,25.6933594 C25.0380856,25.8691415 24.9960938,26.0644521 24.9765625,26.2792969 C24.9570312,26.4941417 24.9472656,26.7070302 24.9472656,26.9179688 L24.9472656,30 L24.1445312,30 L24.1445312,24.5390625 L24.9472656,24.5390625 L24.9472656,25.3300781 C25.1152352,24.7167938 25.4804659,24.4101562 26.0429688,24.4101562 C26.5781277,24.4101562 26.9414053,24.6777317 27.1328125,25.2128906 C27.3984388,24.6777317 27.7734351,24.4101562 28.2578125,24.4101562 C28.7226586,24.4101562 29.0634755,24.5478502 29.2802734,24.8232422 C29.4970714,25.0986342 29.6054688,25.5156222 29.6054688,26.0742188 L29.6054688,30 Z M30.6835938,28.5234375 C30.6835938,28.1796858 30.7695304,27.8916027 30.9414062,27.6591797 C31.1132821,27.4267567 31.3388658,27.2431647 31.6181641,27.1083984 C31.8974623,26.9736321 32.2177716,26.8759769 32.5791016,26.8154297 C32.9404315,26.7548825 33.3085919,26.7246094 33.6835938,26.7246094 C33.8281257,26.7246094 33.9580072,26.7265625 34.0732422,26.7304688 C34.1884771,26.734375 34.297851,26.7402343 34.4013672,26.7480469 C34.5048833,26.7558594 34.6093745,26.7656249 34.7148438,26.7773438 C34.820313,26.7890626 34.9355463,26.8027343 35.0605469,26.8183594 L35.0605469,26.4257812 C35.0605469,26.1601549 35.0029303,25.9414071 34.8876953,25.7695312 C34.7724604,25.5976554 34.6308602,25.4619146 34.4628906,25.3623047 C34.294921,25.2626948 34.1191415,25.192383 33.9355469,25.1513672 C33.7519522,25.1103514 33.5957038,25.0898438 33.4667969,25.0898438 C33.0605448,25.0898438 32.6855486,25.1445307 32.3417969,25.2539062 C31.9980452,25.3632818 31.6777359,25.5097647 31.3808594,25.6933594 L31.0175781,25.0898438 C31.3457048,24.890624 31.7138651,24.7275397 32.1220703,24.6005859 C32.5302755,24.4736322 32.9785132,24.4101562 33.4667969,24.4101562 C33.7636734,24.4101562 34.0556626,24.4482418 34.3427734,24.5244141 C34.6298842,24.6005863 34.8876942,24.7177726 35.1162109,24.8759766 C35.3447277,25.0341805 35.5273431,25.2421862 35.6640625,25.5 C35.8007819,25.7578138 35.8691406,26.0664045 35.8691406,26.4257812 L35.8691406,30 L35.0605469,30 L35.0605469,29.0859375 C34.9199212,29.2617196 34.7607431,29.416015 34.5830078,29.5488281 C34.4052725,29.6816413 34.218751,29.7900386 34.0234375,29.8740234 C33.828124,29.9580082 33.6328135,30.0224607 33.4375,30.0673828 C33.2421865,30.1123049 33.0566415,30.1347656 32.8808594,30.1347656 C32.1581995,30.1347656 31.61133,29.9960951 31.2402344,29.71875 C30.8691388,29.4414049 30.6835938,29.0429713 30.6835938,28.5234375 Z M32.8808594,29.4492188 C33.2167986,29.4492188 33.5185533,29.3994146 33.7861328,29.2998047 C34.0537123,29.2001948 34.2812491,29.0761726 34.46875,28.9277344 C34.6562509,28.7792961 34.8017573,28.6210946 34.9052734,28.453125 C35.0087896,28.2851554 35.0605469,28.1328132 35.0605469,27.9960938 L35.0605469,27.4804688 C34.7988268,27.4414061 34.5478528,27.4199219 34.3076172,27.4160156 C34.0673816,27.4121094 33.8593759,27.4101562 33.6835938,27.4101562 C33.3945298,27.4101562 33.1162123,27.4296873 32.8486328,27.46875 C32.5810533,27.5078127 32.3476572,27.5712886 32.1484375,27.6591797 C31.9492178,27.7470708 31.7890631,27.8613274 31.6679688,28.0019531 C31.5468744,28.1425788 31.4863281,28.3164052 31.4863281,28.5234375 C31.4863281,28.7539074 31.5986317,28.9658193 31.8232422,29.1591797 C32.0478527,29.35254 32.4003882,29.4492188 32.8808594,29.4492188 Z M40.5214844,23.4492188 L39.4316406,23.4492188 L39.4316406,22.3535156 L40.5214844,22.3535156 L40.5214844,23.4492188 Z M41.6113281,30 L38.3359375,30 L38.3359375,29.3144531 L39.5722656,29.3144531 L39.5722656,25.2246094 L38.3359375,25.2246094 L38.3359375,24.5390625 L40.3808594,24.5390625 L40.3808594,29.3144531 L41.6113281,29.3144531 L41.6113281,30 Z M48.9707031,30 L48.1621094,30 L48.1621094,26.6308594 C48.1621094,26.1425757 48.0566417,25.7636732 47.8457031,25.4941406 C47.6347646,25.224608 47.2929711,25.0898438 46.8203125,25.0898438 C46.523436,25.0898438 46.254884,25.1582024 46.0146484,25.2949219 C45.7744129,25.4316413 45.5703133,25.6142567 45.4023438,25.8427734 C45.2343742,26.0712902 45.1064458,26.3330063 45.0185547,26.6279297 C44.9306636,26.922853 44.8867188,27.2304671 44.8867188,27.5507812 L44.8867188,30 L44.0839844,30 L44.0839844,24.5390625 L44.8867188,24.5390625 L44.8867188,25.9101562 C45.2734394,24.9101512 45.9628857,24.4101562 46.9550781,24.4101562 C48.2988348,24.4101562 48.9707031,25.1503832 48.9707031,26.6308594 L48.9707031,30 Z M55.8554688,27.9960938 C55.656249,28.652347 55.3300804,29.1728496 54.8769531,29.5576172 C54.4238259,29.9423847 53.8535191,30.1347656 53.1660156,30.1347656 C52.6308567,30.1347656 52.1777362,30.0244152 51.8066406,29.8037109 C51.435545,29.5830067 51.1318371,29.2910174 50.8955078,28.9277344 C50.6591785,28.5644513 50.4892583,28.1445336 50.3857422,27.6679688 C50.282226,27.1914039 50.2304688,26.6972682 50.2304688,26.1855469 C50.2304688,25.6738256 50.282226,25.1796899 50.3857422,24.703125 C50.4892583,24.2265601 50.6591785,23.8046893 50.8955078,23.4375 C51.1318371,23.0703107 51.435545,22.7763683 51.8066406,22.5556641 C52.1777362,22.3349598 52.6308567,22.2246094 53.1660156,22.2246094 C53.6386742,22.2246094 54.0429671,22.3085929 54.3789062,22.4765625 C54.7148454,22.6445321 54.9628898,22.9003889 55.1230469,23.2441406 L55.1230469,22.3535156 L55.8085938,22.3535156 L55.8085938,24.8613281 L55.1230469,24.8613281 C55.1230469,24.5917955 55.0712896,24.3369153 54.9677734,24.0966797 C54.8642573,23.8564441 54.7246103,23.6484384 54.5488281,23.4726562 C54.373046,23.2968741 54.1650403,23.1591802 53.9248047,23.0595703 C53.6845691,22.9599604 53.431642,22.9101562 53.1660156,22.9101562 C52.7519511,22.9101562 52.409181,23.0078115 52.1376953,23.203125 C51.8662096,23.3984385 51.6484383,23.6542953 51.484375,23.9707031 C51.3203117,24.287111 51.2041019,24.6386699 51.1357422,25.0253906 C51.0673825,25.4121113 51.0332031,25.7988262 51.0332031,26.1855469 C51.0332031,26.5683613 51.0673825,26.9540996 51.1357422,27.3427734 C51.2041019,27.7314473 51.3203117,28.0810531 51.484375,28.3916016 C51.6484383,28.70215 51.8662096,28.9560537 52.1376953,29.1533203 C52.409181,29.3505869 52.7519511,29.4492188 53.1660156,29.4492188 C54.1191454,29.4492188 54.7832012,28.8730526 55.1582031,27.7207031 L55.8554688,27.9960938 Z M62.5,27.2871094 C62.5,27.7128928 62.4326179,28.0996076 62.2978516,28.4472656 C62.1630853,28.7949236 61.9697278,29.0927722 61.7177734,29.3408203 C61.4658191,29.5888684 61.1640643,29.7832024 60.8125,29.9238281 C60.4609357,30.0644538 60.0683615,30.1347656 59.6347656,30.1347656 C59.2089822,30.1347656 58.8203143,30.0644538 58.46875,29.9238281 C58.1171857,29.7832024 57.8154309,29.5888684 57.5634766,29.3408203 C57.3115222,29.0927722 57.1181647,28.7949236 56.9833984,28.4472656 C56.8486321,28.0996076 56.78125,27.7128928 56.78125,27.2871094 C56.78125,26.8730448 56.8486321,26.4873065 56.9833984,26.1298828 C57.1181647,25.7724592 57.3115222,25.4677747 57.5634766,25.2158203 C57.8154309,24.9638659 58.1171857,24.7666023 58.46875,24.6240234 C58.8203143,24.4814446 59.2089822,24.4101562 59.6347656,24.4101562 C60.0683615,24.4101562 60.4609357,24.4814446 60.8125,24.6240234 C61.1640643,24.7666023 61.4658191,24.9638659 61.7177734,25.2158203 C61.9697278,25.4677747 62.1630853,25.7724592 62.2978516,26.1298828 C62.4326179,26.4873065 62.5,26.8730448 62.5,27.2871094 Z M61.6972656,27.2871094 C61.6972656,26.9746078 61.6513676,26.6865248 61.5595703,26.4228516 C61.467773,26.1591784 61.3320321,25.9277354 61.1523438,25.7285156 C60.9726554,25.5292959 60.7548841,25.3730474 60.4990234,25.2597656 C60.2431628,25.1464838 59.9550797,25.0898438 59.6347656,25.0898438 C59.3144515,25.0898438 59.0263685,25.1464838 58.7705078,25.2597656 C58.5146472,25.3730474 58.298829,25.5292959 58.1230469,25.7285156 C57.9472647,25.9277354 57.813477,26.1591784 57.7216797,26.4228516 C57.6298824,26.6865248 57.5839844,26.9746078 57.5839844,27.2871094 C57.5839844,27.5996109 57.6298824,27.887694 57.7216797,28.1513672 C57.813477,28.4150404 57.9472647,28.6425772 58.1230469,28.8339844 C58.298829,29.0253916 58.5146472,29.1757807 58.7705078,29.2851562 C59.0263685,29.3945318 59.3144515,29.4492188 59.6347656,29.4492188 C59.9550797,29.4492188 60.2431628,29.3945318 60.4990234,29.2851562 C60.7548841,29.1757807 60.9726554,29.0253916 61.1523438,28.8339844 C61.3320321,28.6425772 61.467773,28.4150404 61.5595703,28.1513672 C61.6513676,27.887694 61.6972656,27.5996109 61.6972656,27.2871094 Z M68.6230469,30 L67.8144531,30 L67.8144531,26.6308594 C67.8144531,26.1425757 67.7089854,25.7636732 67.4980469,25.4941406 C67.2871083,25.224608 66.9453149,25.0898438 66.4726562,25.0898438 C66.1757798,25.0898438 65.9072278,25.1582024 65.6669922,25.2949219 C65.4267566,25.4316413 65.2226571,25.6142567 65.0546875,25.8427734 C64.8867179,26.0712902 64.7587895,26.3330063 64.6708984,26.6279297 C64.5830074,26.922853 64.5390625,27.2304671 64.5390625,27.5507812 L64.5390625,30 L63.7363281,30 L63.7363281,24.5390625 L64.5390625,24.5390625 L64.5390625,25.9101562 C64.9257832,24.9101512 65.6152294,24.4101562 66.6074219,24.4101562 C67.9511786,24.4101562 68.6230469,25.1503832 68.6230469,26.6308594 L68.6230469,30 Z M75.4609375,25.2246094 L73.1347656,25.2246094 L73.1347656,29.3144531 L74.3652344,29.3144531 L74.3652344,30 L71.0898438,30 L71.0898438,29.3144531 L72.3261719,29.3144531 L72.3261719,25.2246094 L71.0898438,25.2246094 L71.0898438,24.5390625 L72.3261719,24.5390625 C72.3261719,23.7890587 72.5205059,23.2158223 72.9091797,22.8193359 C73.2978535,22.4228496 73.8847617,22.2246094 74.6699219,22.2246094 C74.8535165,22.2246094 75.0087884,22.2304687 75.1357422,22.2421875 C75.2626959,22.2539063 75.3710933,22.267578 75.4609375,22.2832031 L75.4609375,22.96875 C75.3476557,22.9531249 75.2294928,22.9394532 75.1064453,22.9277344 C74.9833978,22.9160156 74.8378915,22.9101562 74.6699219,22.9101562 C74.1582006,22.9101562 73.7744153,23.0400378 73.5185547,23.2998047 C73.262694,23.5595716 73.1347656,23.9726534 73.1347656,24.5390625 L75.4609375,24.5390625 L75.4609375,25.2246094 Z M79.8261719,23.4492188 L78.7363281,23.4492188 L78.7363281,22.3535156 L79.8261719,22.3535156 L79.8261719,23.4492188 Z M80.9160156,30 L77.640625,30 L77.640625,29.3144531 L78.8769531,29.3144531 L78.8769531,25.2246094 L77.640625,25.2246094 L77.640625,24.5390625 L79.6855469,24.5390625 L79.6855469,29.3144531 L80.9160156,29.3144531 L80.9160156,30 Z M88.2753906,29.9414062 C88.2753906,30.3164081 88.2109381,30.6503892 88.0820312,30.9433594 C87.9531244,31.2363296 87.7724621,31.484374 87.5400391,31.6875 C87.307616,31.890626 87.0341813,32.0458979 86.7197266,32.1533203 C86.4052719,32.2607427 86.0546894,32.3144531 85.6679688,32.3144531 C85.1249973,32.3144531 84.6630878,32.2128916 84.2822266,32.0097656 C83.9013653,31.8066396 83.572267,31.5136738 83.2949219,31.1308594 L83.8574219,30.6972656 C84.0253915,30.9511731 84.2675765,31.1640616 84.5839844,31.3359375 C84.9003922,31.5078134 85.2617167,31.59375 85.6679688,31.59375 C86.222659,31.59375 86.6611312,31.454103 86.9833984,31.1748047 C87.3056657,30.8955064 87.4667969,30.4921901 87.4667969,29.9648438 L87.4667969,29.3789062 C86.990232,29.8007834 86.4472687,30.0117188 85.8378906,30.0117188 C84.9824176,30.0117188 84.3105493,29.7675806 83.8222656,29.2792969 C83.3339819,28.7910132 83.0898438,28.1230511 83.0898438,27.2753906 C83.0898438,26.8613261 83.1533197,26.4794939 83.2802734,26.1298828 C83.4072272,25.7802717 83.588866,25.4775403 83.8251953,25.2216797 C84.0615246,24.965819 84.3496077,24.7666023 84.6894531,24.6240234 C85.0292986,24.4814446 85.4121072,24.4101562 85.8378906,24.4101562 C86.1347671,24.4101562 86.4228502,24.4619135 86.7021484,24.5654297 C86.9814467,24.6689458 87.236327,24.8242177 87.4667969,25.03125 L87.4667969,24.5390625 L88.2753906,24.5390625 L88.2753906,29.9414062 Z M87.4667969,25.8105469 C87.236327,25.5566394 86.9833998,25.3730474 86.7080078,25.2597656 C86.4326158,25.1464838 86.1425796,25.0898438 85.8378906,25.0898438 C85.5175765,25.0898438 85.2353528,25.1464838 84.9912109,25.2597656 C84.7470691,25.3730474 84.5449227,25.5273428 84.3847656,25.7226562 C84.2246086,25.9179697 84.1025395,26.1494127 84.0185547,26.4169922 C83.9345699,26.6845717 83.8925781,26.9707016 83.8925781,27.2753906 C83.8925781,27.9003937 84.0546859,28.3984356 84.3789062,28.7695312 C84.7031266,29.1406269 85.1894499,29.3261719 85.8378906,29.3261719 C86.1425796,29.3261719 86.4326158,29.2685553 86.7080078,29.1533203 C86.9833998,29.0380854 87.236327,28.8515638 87.4667969,28.59375 L87.4667969,25.8105469 Z M94.8261719,23.0390625 L90.7421875,23.0390625 L90.7421875,25.7753906 L93.7539062,25.7753906 L93.7539062,26.4609375 L90.7421875,26.4609375 L90.7421875,30 L89.9394531,30 L89.9394531,22.3535156 L94.8261719,22.3535156 L94.8261719,23.0390625 Z M99.4785156,23.4492188 L98.3886719,23.4492188 L98.3886719,22.3535156 L99.4785156,22.3535156 L99.4785156,23.4492188 Z M100.568359,30 L97.2929688,30 L97.2929688,29.3144531 L98.5292969,29.3144531 L98.5292969,25.2246094 L97.2929688,25.2246094 L97.2929688,24.5390625 L99.3378906,24.5390625 L99.3378906,29.3144531 L100.568359,29.3144531 L100.568359,30 Z M107.119141,30 L103.84375,30 L103.84375,29.3144531 L105.080078,29.3144531 L105.080078,23.0390625 L103.84375,23.0390625 L103.84375,22.3535156 L105.888672,22.3535156 L105.888672,29.3144531 L107.119141,29.3144531 L107.119141,30 Z M110.107422,27.5507812 C110.166016,28.1289091 110.376951,28.589842 110.740234,28.9335938 C111.103517,29.2773455 111.576169,29.4492188 112.158203,29.4492188 C112.568361,29.4492188 112.933592,29.3652352 113.253906,29.1972656 C113.57422,29.029296 113.814452,28.8203138 113.974609,28.5703125 L114.537109,28.9570312 C114.263671,29.3398457 113.937502,29.6318349 113.558594,29.8330078 C113.179686,30.0341807 112.712893,30.1347656 112.158203,30.1347656 C111.736326,30.1347656 111.349611,30.0644538 110.998047,29.9238281 C110.646483,29.7832024 110.342775,29.5869153 110.086914,29.3349609 C109.831053,29.0830066 109.632813,28.7832049 109.492188,28.4355469 C109.351562,28.0878889 109.28125,27.701174 109.28125,27.2753906 C109.28125,26.8613261 109.344726,26.4794939 109.47168,26.1298828 C109.598633,25.7802717 109.782225,25.4775403 110.022461,25.2216797 C110.262697,24.965819 110.554686,24.7666023 110.898438,24.6240234 C111.242189,24.4814446 111.626951,24.4101562 112.052734,24.4101562 C112.51758,24.4101562 112.923826,24.4882805 113.271484,24.6445312 C113.619142,24.800782 113.909179,25.0166002 114.141602,25.2919922 C114.374025,25.5673842 114.545898,25.8964825 114.657227,26.2792969 C114.768555,26.6621113 114.824219,27.0859352 114.824219,27.5507812 L110.107422,27.5507812 Z M113.974609,26.8652344 C113.884765,26.2675751 113.66797,25.8222671 113.324219,25.5292969 C112.980467,25.2363267 112.556643,25.0898438 112.052734,25.0898438 C111.794921,25.0898438 111.556642,25.1318355 111.337891,25.2158203 C111.11914,25.2998051 110.925782,25.4199211 110.757812,25.5761719 C110.589843,25.7324227 110.449219,25.9208973 110.335938,26.1416016 C110.222656,26.3623058 110.150391,26.6035143 110.119141,26.8652344 L113.974609,26.8652344 Z" fill="#212121"></path>
                </g>
                <g id="wrap">
                    <use id="Rectangle" stroke="#9E9E9E" mask="url(#mask-8)" stroke-width="2" xlink:href="#path-7"></use>
                    <path d="M62.5410156,24.5390625 L61.4335938,30 L60.4960938,30 L59.6230469,25.9921875 L58.796875,30 L57.859375,30 L56.7402344,24.5390625 L57.5957031,24.5390625 L58.3867188,28.9101562 L59.2363281,24.5390625 L60.0332031,24.5390625 L60.90625,28.9101562 L61.6972656,24.5390625 L62.5410156,24.5390625 Z M68.6113281,25.3066406 C68.3222642,25.1621087 67.9785176,25.0898438 67.5800781,25.0898438 C67.2519515,25.0898438 66.9589857,25.1601555 66.7011719,25.3007812 C66.4433581,25.441407 66.2246103,25.6259754 66.0449219,25.8544922 C65.8652335,26.083009 65.7275395,26.3447251 65.6318359,26.6396484 C65.5361323,26.9345718 65.4882812,27.2382797 65.4882812,27.5507812 L65.4882812,29.3144531 L66.7246094,29.3144531 L66.7246094,30 L63.4492188,30 L63.4492188,29.3144531 L64.6855469,29.3144531 L64.6855469,25.2246094 L63.4492188,25.2246094 L63.4492188,24.5390625 L65.4882812,24.5390625 L65.4882812,25.9101562 C65.8554706,24.9101512 66.5527292,24.4101562 67.5800781,24.4101562 C67.8574233,24.4101562 68.0986318,24.4277342 68.3037109,24.4628906 C68.5087901,24.4980471 68.6992179,24.5605464 68.875,24.6503906 L68.6113281,25.3066406 Z M69.9882812,28.5234375 C69.9882812,28.1796858 70.0742179,27.8916027 70.2460938,27.6591797 C70.4179696,27.4267567 70.6435533,27.2431647 70.9228516,27.1083984 C71.2021498,26.9736321 71.5224591,26.8759769 71.8837891,26.8154297 C72.245119,26.7548825 72.6132794,26.7246094 72.9882812,26.7246094 C73.1328132,26.7246094 73.2626947,26.7265625 73.3779297,26.7304688 C73.4931646,26.734375 73.6025385,26.7402343 73.7060547,26.7480469 C73.8095708,26.7558594 73.914062,26.7656249 74.0195312,26.7773438 C74.1250005,26.7890626 74.2402338,26.8027343 74.3652344,26.8183594 L74.3652344,26.4257812 C74.3652344,26.1601549 74.3076178,25.9414071 74.1923828,25.7695312 C74.0771479,25.5976554 73.9355477,25.4619146 73.7675781,25.3623047 C73.5996085,25.2626948 73.423829,25.192383 73.2402344,25.1513672 C73.0566397,25.1103514 72.9003913,25.0898438 72.7714844,25.0898438 C72.3652323,25.0898438 71.9902361,25.1445307 71.6464844,25.2539062 C71.3027327,25.3632818 70.9824234,25.5097647 70.6855469,25.6933594 L70.3222656,25.0898438 C70.6503923,24.890624 71.0185526,24.7275397 71.4267578,24.6005859 C71.834963,24.4736322 72.2832007,24.4101562 72.7714844,24.4101562 C73.0683609,24.4101562 73.3603501,24.4482418 73.6474609,24.5244141 C73.9345717,24.6005863 74.1923817,24.7177726 74.4208984,24.8759766 C74.6494152,25.0341805 74.8320306,25.2421862 74.96875,25.5 C75.1054694,25.7578138 75.1738281,26.0664045 75.1738281,26.4257812 L75.1738281,30 L74.3652344,30 L74.3652344,29.0859375 C74.2246087,29.2617196 74.0654306,29.416015 73.8876953,29.5488281 C73.70996,29.6816413 73.5234385,29.7900386 73.328125,29.8740234 C73.1328115,29.9580082 72.937501,30.0224607 72.7421875,30.0673828 C72.546874,30.1123049 72.361329,30.1347656 72.1855469,30.1347656 C71.462887,30.1347656 70.9160175,29.9960951 70.5449219,29.71875 C70.1738263,29.4414049 69.9882812,29.0429713 69.9882812,28.5234375 Z M72.1855469,29.4492188 C72.5214861,29.4492188 72.8232408,29.3994146 73.0908203,29.2998047 C73.3583998,29.2001948 73.5859366,29.0761726 73.7734375,28.9277344 C73.9609384,28.7792961 74.1064448,28.6210946 74.2099609,28.453125 C74.3134771,28.2851554 74.3652344,28.1328132 74.3652344,27.9960938 L74.3652344,27.4804688 C74.1035143,27.4414061 73.8525403,27.4199219 73.6123047,27.4160156 C73.3720691,27.4121094 73.1640634,27.4101562 72.9882812,27.4101562 C72.6992173,27.4101562 72.4208998,27.4296873 72.1533203,27.46875 C71.8857408,27.5078127 71.6523447,27.5712886 71.453125,27.6591797 C71.2539053,27.7470708 71.0937506,27.8613274 70.9726562,28.0019531 C70.8515619,28.1425788 70.7910156,28.3164052 70.7910156,28.5234375 C70.7910156,28.7539074 70.9033192,28.9658193 71.1279297,29.1591797 C71.3525402,29.35254 71.7050757,29.4492188 72.1855469,29.4492188 Z M82.0117188,27.2753906 C82.0117188,27.701174 81.9453132,28.0878889 81.8125,28.4355469 C81.6796868,28.7832049 81.4931653,29.0830066 81.2529297,29.3349609 C81.0126941,29.5869153 80.7226579,29.7832024 80.3828125,29.9238281 C80.0429671,30.0644538 79.6621115,30.1347656 79.2402344,30.1347656 C78.9511704,30.1347656 78.6708998,30.0820318 78.3994141,29.9765625 C78.1279283,29.8710932 77.8750012,29.7148448 77.640625,29.5078125 L77.640625,32.1855469 L76.8378906,32.1855469 L76.8378906,24.5390625 L77.640625,24.5390625 L77.640625,25.0429688 C78.1367212,24.6210916 78.669919,24.4101562 79.2402344,24.4101562 C79.6621115,24.4101562 80.0429671,24.4794915 80.3828125,24.6181641 C80.7226579,24.7568366 81.0126941,24.9541003 81.2529297,25.2099609 C81.4931653,25.4658216 81.6796868,25.770506 81.8125,26.1240234 C81.9453132,26.4775408 82.0117188,26.8613261 82.0117188,27.2753906 Z M81.2089844,27.2753906 C81.2089844,26.9707016 81.1669926,26.6845717 81.0830078,26.4169922 C80.999023,26.1494127 80.8730477,25.9179697 80.7050781,25.7226562 C80.5371085,25.5273428 80.3310559,25.3730474 80.0869141,25.2597656 C79.8427722,25.1464838 79.5605485,25.0898438 79.2402344,25.0898438 C78.9355454,25.0898438 78.6513685,25.1464838 78.3876953,25.2597656 C78.1240221,25.3730474 77.8750012,25.5566394 77.640625,25.8105469 L77.640625,28.7402344 C77.8750012,28.9941419 78.1240221,29.1757807 78.3876953,29.2851562 C78.6513685,29.3945318 78.9355454,29.4492188 79.2402344,29.4492188 C79.5605485,29.4492188 79.8427722,29.3925787 80.0869141,29.2792969 C80.3310559,29.1660151 80.5371085,29.0117197 80.7050781,28.8164062 C80.8730477,28.6210928 80.999023,28.3916029 81.0830078,28.1279297 C81.1669926,27.8642565 81.2089844,27.5800796 81.2089844,27.2753906 Z" fill="#212121"></path>
                </g>
                <g id="Gateway" transform="translate(260.000000, 49.000000)">
                    <g id="CWD" transform="translate(0.000000, 49.000000)">
                        <use id="Rectangle" stroke="#9E9E9E" mask="url(#mask-10)" stroke-width="2" xlink:href="#path-9"></use>
                        <path d="M45.0439453,27.7724609 C44.9345698,28.2099631 44.7887379,28.6064435 44.6064453,28.9619141 C44.4241527,29.3173846 44.201987,29.6204415 43.9399414,29.8710938 C43.6778958,30.121746 43.3725603,30.315429 43.0239258,30.4521484 C42.6752912,30.5888679 42.2753929,30.6572266 41.8242188,30.6572266 C41.1998667,30.6572266 40.6712261,30.5284844 40.2382812,30.2709961 C39.8053364,30.0135078 39.4510105,29.6694357 39.175293,29.2387695 C38.8995754,28.8081033 38.7013352,28.3159207 38.5805664,27.762207 C38.4597976,27.2084933 38.3994141,26.633141 38.3994141,26.0361328 C38.3994141,25.4391246 38.4597976,24.862633 38.5805664,24.3066406 C38.7013352,23.7506483 38.8972968,23.2607443 39.168457,22.8369141 C39.4396172,22.4130838 39.7848286,22.0724297 40.2041016,21.8149414 C40.6233745,21.5574531 41.1360647,21.4287109 41.7421875,21.4287109 C41.938152,21.4287109 42.1363922,21.4537758 42.3369141,21.5039062 C42.5374359,21.5540367 42.724283,21.6303706 42.8974609,21.7329102 C43.0706389,21.8354497 43.2221673,21.9619133 43.3520508,22.1123047 C43.4819342,22.2626961 43.5742185,22.4358714 43.6289062,22.6318359 L43.6289062,21.5791016 L44.9072266,21.5791016 L44.9072266,24.9560547 L43.6289062,24.9560547 C43.6289062,24.6780585 43.5947269,24.4034844 43.5263672,24.1323242 C43.4580075,23.861164 43.3486336,23.6207693 43.1982422,23.4111328 C43.0478508,23.2014963 42.8587251,23.0305996 42.6308594,22.8984375 C42.4029937,22.7662754 42.1341161,22.7001953 41.8242188,22.7001953 C41.4231751,22.7001953 41.0950534,22.7981761 40.8398438,22.9941406 C40.5846341,23.1901051 40.3795581,23.4475896 40.2246094,23.7666016 C40.0696607,24.0856136 39.9614261,24.4433574 39.8999023,24.8398438 C39.8383786,25.2363301 39.8076172,25.6350891 39.8076172,26.0361328 C39.8076172,26.4371765 39.8383786,26.8382141 39.8999023,27.2392578 C39.9614261,27.6403015 40.0673821,27.9991846 40.2177734,28.315918 C40.3681648,28.6326513 40.5732409,28.8889964 40.8330078,29.0849609 C41.0927747,29.2809255 41.4231751,29.3789062 41.8242188,29.3789062 C42.4029977,29.3789062 42.8484685,29.1943378 43.1606445,28.8251953 C43.4728206,28.4560528 43.7223298,27.959313 43.9091797,27.3349609 L45.0439453,27.7724609 Z M52.9804688,21.5791016 L51.5996094,30.5 L50.1435547,30.5 L49.3574219,26.6513672 L48.5849609,30.5 L47.1289062,30.5 L45.7480469,21.5791016 L47.2177734,21.5791016 L48.0380859,27.5878906 L48.6875,24.1289062 L50.0410156,24.1289062 L50.6699219,27.5878906 L51.5107422,21.5791016 L52.9804688,21.5791016 Z M60.4863281,26.0361328 C60.4863281,26.633141 60.423666,27.2016575 60.2983398,27.7416992 C60.1730137,28.281741 59.9724949,28.7556946 59.6967773,29.1635742 C59.4210598,29.5714539 59.0655946,29.8961576 58.6303711,30.1376953 C58.1951476,30.379233 57.669925,30.5 57.0546875,30.5 L54.15625,30.5 L54.15625,21.5791016 L57.0546875,21.5791016 C57.6608103,21.5791016 58.1814757,21.7010079 58.6166992,21.9448242 C59.0519227,22.1886405 59.4073879,22.5133443 59.6831055,22.9189453 C59.958823,23.3245463 60.1616204,23.7962213 60.2915039,24.3339844 C60.4213874,24.8717475 60.4863281,25.4391246 60.4863281,26.0361328 Z M59.0712891,26.0361328 C59.0712891,25.0061797 58.8958351,24.2189155 58.5449219,23.6743164 C58.1940087,23.1297173 57.6972688,22.8574219 57.0546875,22.8574219 L55.5712891,22.8574219 L55.5712891,29.2285156 L57.0546875,29.2285156 C57.6972688,29.2285156 58.1940087,28.9505236 58.5449219,28.3945312 C58.8958351,27.8385389 59.0712891,27.0524139 59.0712891,26.0361328 Z" fill="#212121"></path>
                    </g>
                    <g id="profile">
                        <use id="Rectangle" stroke="#9E9E9E" mask="url(#mask-12)" stroke-width="2" xlink:href="#path-11"></use>
                        <path d="M23.5859375,24.1289062 L25.0009766,24.1289062 L25.0009766,24.703125 C25.2698581,24.4615873 25.5421536,24.2804368 25.8178711,24.159668 C26.0935886,24.0388991 26.4091779,23.9785156 26.7646484,23.9785156 C27.1748067,23.9785156 27.5553368,24.0616854 27.90625,24.2280273 C28.2571632,24.3943693 28.5579415,24.6245102 28.8085938,24.918457 C29.059246,25.2124038 29.2574862,25.5655904 29.4033203,25.9780273 C29.5491544,26.3904643 29.6220703,26.8382137 29.6220703,27.3212891 C29.6220703,27.8089217 29.5491544,28.2578104 29.4033203,28.6679688 C29.2574862,29.0781271 29.059246,29.4301743 28.8085938,29.7241211 C28.5579415,30.0180679 28.2571632,30.2470695 27.90625,30.4111328 C27.5553368,30.5751961 27.1748067,30.6572266 26.7646484,30.6572266 C26.4091779,30.6572266 26.0935886,30.5934251 25.8178711,30.4658203 C25.5421536,30.3382155 25.2698581,30.153647 25.0009766,29.9121094 L25.0009766,33.0498047 L23.5859375,33.0498047 L23.5859375,24.1289062 Z M25.0009766,28.7910156 C25.1695972,28.9778655 25.3849271,29.1225581 25.6469727,29.2250977 C25.9090182,29.3276372 26.1608061,29.3789062 26.4023438,29.3789062 C26.9355495,29.3789062 27.3696272,29.1897805 27.7045898,28.8115234 C28.0395525,28.4332663 28.2070312,27.9365265 28.2070312,27.3212891 C28.2070312,26.7060516 28.0395525,26.2070332 27.7045898,25.8242188 C27.3696272,25.4414043 26.9355495,25.25 26.4023438,25.25 C26.1608061,25.25 25.9090182,25.2989904 25.6469727,25.3969727 C25.3849271,25.4949549 25.1695972,25.6373689 25.0009766,25.8242188 L25.0009766,28.7910156 Z M37.1074219,25.6396484 C36.9388012,25.5576168 36.7667652,25.4949546 36.5913086,25.4516602 C36.415852,25.4083657 36.2141938,25.3867188 35.9863281,25.3867188 C35.6718734,25.3867188 35.3767917,25.4334305 35.1010742,25.5268555 C34.8253567,25.6202804 34.5872406,25.7604157 34.3867188,25.9472656 C34.1861969,26.1341155 34.0301112,26.3676744 33.918457,26.6479492 C33.8068028,26.9282241 33.7509766,27.2597637 33.7509766,27.6425781 L33.7509766,29.2285156 L35.1796875,29.2285156 L35.1796875,30.5 L30.8935547,30.5 L30.8935547,29.2285156 L32.3359375,29.2285156 L32.3359375,25.4072266 L30.8935547,25.4072266 L30.8935547,24.1289062 L33.7509766,24.1289062 L33.7509766,25.7285156 C33.9833996,25.0904916 34.3263324,24.6393242 34.7797852,24.375 C35.2332379,24.1106758 35.7721323,23.9785156 36.3964844,23.9785156 C36.5924489,23.9785156 36.797525,23.9990232 37.0117188,24.0400391 C37.2259125,24.0810549 37.4355458,24.1539708 37.640625,24.2587891 L37.1074219,25.6396484 Z M45.0712891,27.3212891 C45.0712891,27.8180363 44.9926766,28.2692037 44.8354492,28.6748047 C44.6782219,29.0804057 44.4526382,29.4301743 44.1586914,29.7241211 C43.8647446,30.0180679 43.5126974,30.2470695 43.1025391,30.4111328 C42.6923808,30.5751961 42.2343775,30.6572266 41.7285156,30.6572266 C41.2317683,30.6572266 40.7783224,30.5751961 40.3681641,30.4111328 C39.9580058,30.2470695 39.6059585,30.0180679 39.3120117,29.7241211 C39.0180649,29.4301743 38.7924813,29.0804057 38.6352539,28.6748047 C38.4780266,28.2692037 38.3994141,27.8180363 38.3994141,27.3212891 C38.3994141,26.8382137 38.4780266,26.3904643 38.6352539,25.9780273 C38.7924813,25.5655904 39.0180649,25.2101252 39.3120117,24.9116211 C39.6059585,24.613117 39.9580058,24.3829761 40.3681641,24.2211914 C40.7783224,24.0594067 41.2317683,23.9785156 41.7285156,23.9785156 C42.2343775,23.9785156 42.6923808,24.0594067 43.1025391,24.2211914 C43.5126974,24.3829761 43.8647446,24.613117 44.1586914,24.9116211 C44.4526382,25.2101252 44.6782219,25.5655904 44.8354492,25.9780273 C44.9926766,26.3904643 45.0712891,26.8382137 45.0712891,27.3212891 Z M43.6630859,27.3212891 C43.6630859,27.0341783 43.6186528,26.7618828 43.5297852,26.5043945 C43.4409175,26.2469063 43.3121753,26.0270191 43.1435547,25.8447266 C42.9749341,25.662434 42.7709973,25.5177414 42.5317383,25.4106445 C42.2924793,25.3035476 42.0247411,25.25 41.7285156,25.25 C41.4277329,25.25 41.1588554,25.3035476 40.921875,25.4106445 C40.6848946,25.5177414 40.4843758,25.662434 40.3203125,25.8447266 C40.1562492,26.0270191 40.0297856,26.2469063 39.940918,26.5043945 C39.8520503,26.7618828 39.8076172,27.0341783 39.8076172,27.3212891 C39.8076172,27.6220718 39.8520503,27.8955066 39.940918,28.1416016 C40.0297856,28.3876965 40.1562492,28.6041657 40.3203125,28.7910156 C40.4843758,28.9778655 40.6848946,29.1225581 40.921875,29.2250977 C41.1588554,29.3276372 41.4277329,29.3789062 41.7285156,29.3789062 C42.0247411,29.3789062 42.2924793,29.3276372 42.5317383,29.2250977 C42.7709973,29.1225581 42.9749341,28.9778655 43.1435547,28.7910156 C43.3121753,28.6041657 43.4409175,28.3876965 43.5297852,28.1416016 C43.6186528,27.8955066 43.6630859,27.6220718 43.6630859,27.3212891 Z M52.5498047,25.4072266 L50.0683594,25.4072266 L50.0683594,29.2285156 L51.5244141,29.2285156 L51.5244141,30.5 L47.2451172,30.5 L47.2451172,29.2285156 L48.6533203,29.2285156 L48.6533203,25.4072266 L47.2451172,25.4072266 L47.2451172,24.1289062 L48.6533203,24.1289062 C48.6533203,23.2539019 48.9221978,22.585126 49.4599609,22.1225586 C49.997724,21.6599912 50.7246048,21.4287109 51.640625,21.4287109 C51.7773444,21.4287109 51.9231763,21.4355468 52.078125,21.4492188 C52.2330737,21.4628907 52.3902987,21.4788411 52.5498047,21.4970703 L52.5498047,22.7412109 C52.2763658,22.7138671 52.0279959,22.7001953 51.8046875,22.7001953 C51.4401023,22.7001953 51.14616,22.7263995 50.9228516,22.7788086 C50.6995432,22.8312177 50.5252285,22.9155268 50.3999023,23.0317383 C50.2745762,23.1479498 50.1879885,23.2971996 50.1401367,23.4794922 C50.0922849,23.6617848 50.0683594,23.878254 50.0683594,24.1289062 L52.5498047,24.1289062 L52.5498047,25.4072266 Z M57.8681641,23.3017578 L56.1455078,23.3017578 L56.1455078,21.5791016 L57.8681641,21.5791016 L57.8681641,23.3017578 Z M59.1669922,30.5 L54.8876953,30.5 L54.8876953,29.2285156 L56.2958984,29.2285156 L56.2958984,25.4072266 L54.8876953,25.4072266 L54.8876953,24.1289062 L57.7109375,24.1289062 L57.7109375,29.2285156 L59.1669922,29.2285156 L59.1669922,30.5 Z M66.8232422,30.5 L62.5439453,30.5 L62.5439453,29.2285156 L63.9384766,29.2285156 L63.9384766,22.8574219 L62.5439453,22.8574219 L62.5439453,21.5791016 L65.3535156,21.5791016 L65.3535156,29.2285156 L66.8232422,29.2285156 L66.8232422,30.5 Z M70.4052734,27.8544922 C70.4736332,28.2919944 70.6821272,28.6554348 71.0307617,28.9448242 C71.3793963,29.2342137 71.8476533,29.3789062 72.4355469,29.3789062 C72.8958356,29.3789062 73.295734,29.3071296 73.6352539,29.1635742 C73.9747738,29.0200188 74.2675769,28.8297538 74.5136719,28.5927734 L75.2382812,29.5908203 C74.8281229,30.0009786 74.3940453,30.2812492 73.9360352,30.4316406 C73.4780251,30.582032 72.9778673,30.6572266 72.4355469,30.6572266 C71.9433569,30.6572266 71.4853537,30.5751961 71.0615234,30.4111328 C70.6376932,30.2470695 70.2708349,30.0180679 69.9609375,29.7241211 C69.6510401,29.4301743 69.4083668,29.0804057 69.2329102,28.6748047 C69.0574535,28.2692037 68.9697266,27.8180363 68.9697266,27.3212891 C68.9697266,26.8382137 69.0506177,26.3927429 69.2124023,25.9848633 C69.374187,25.5769836 69.6020493,25.2237971 69.8959961,24.925293 C70.1899429,24.6267889 70.5419901,24.3943693 70.9521484,24.2280273 C71.3623067,24.0616854 71.8157527,23.9785156 72.3125,23.9785156 C72.8274765,23.9785156 73.2945943,24.0662426 73.7138672,24.2416992 C74.1331401,24.4171558 74.4920232,24.6712223 74.7905273,25.0039062 C75.0890314,25.3365902 75.3225903,25.7433244 75.4912109,26.2241211 C75.6598316,26.7049178 75.7441406,27.2483694 75.7441406,27.8544922 L70.4052734,27.8544922 Z M74.1445312,26.6103516 C74.0716142,26.2001933 73.8597023,25.8709322 73.5087891,25.6225586 C73.1578758,25.374185 72.7591168,25.25 72.3125,25.25 C71.8658832,25.25 71.4648455,25.374185 71.109375,25.6225586 C70.7539045,25.8709322 70.5397139,26.2001933 70.4667969,26.6103516 L74.1445312,26.6103516 Z" fill="#212121"></path>
                    </g>
                </g>
                <g id="baseUrl" transform="translate(0.000000, 247.000000)">
                    <use id="Rectangle" stroke="#9E9E9E" mask="url(#mask-14)" stroke-width="2" fill="#FFEB3B" xlink:href="#path-13"></use>
                    <path d="M52.5332031,27.2753906 C52.5332031,27.6933615 52.4687506,28.0781232 52.3398438,28.4296875 C52.2109369,28.7812518 52.0263684,29.0830066 51.7861328,29.3349609 C51.5458972,29.5869153 51.2558611,29.7832024 50.9160156,29.9238281 C50.5761702,30.0644538 50.1953146,30.1347656 49.7734375,30.1347656 C49.476561,30.1347656 49.1923842,30.0820318 48.9208984,29.9765625 C48.6494127,29.8710932 48.3964855,29.7148448 48.1621094,29.5078125 L48.1621094,30 L47.359375,30 L47.359375,22.3535156 L48.1621094,22.3535156 L48.1621094,25.0429688 C48.3964855,24.843749 48.6494127,24.6884771 48.9208984,24.5771484 C49.1923842,24.4658198 49.476561,24.4101562 49.7734375,24.4101562 C50.1953146,24.4101562 50.5761702,24.4814446 50.9160156,24.6240234 C51.2558611,24.7666023 51.5458972,24.9638659 51.7861328,25.2158203 C52.0263684,25.4677747 52.2109369,25.770506 52.3398438,26.1240234 C52.4687506,26.4775408 52.5332031,26.8613261 52.5332031,27.2753906 Z M51.71875,27.2753906 C51.71875,26.9628891 51.6787113,26.674806 51.5986328,26.4111328 C51.5185543,26.1474596 51.3964852,25.9179697 51.2324219,25.7226562 C51.0683586,25.5273428 50.864259,25.3730474 50.6201172,25.2597656 C50.3759753,25.1464838 50.0937516,25.0898438 49.7734375,25.0898438 C49.1562469,25.0898438 48.6191429,25.3339819 48.1621094,25.8222656 L48.1621094,28.7402344 C48.3964855,28.9941419 48.6474596,29.1757807 48.9150391,29.2851562 C49.1826185,29.3945318 49.4687485,29.4492188 49.7734375,29.4492188 C50.0937516,29.4492188 50.3740222,29.3925787 50.6142578,29.2792969 C50.8544934,29.1660151 51.0566398,29.0117197 51.2207031,28.8164062 C51.3847664,28.6210928 51.5087886,28.3916029 51.5927734,28.1279297 C51.6767582,27.8642565 51.71875,27.5800796 51.71875,27.2753906 Z M53.6113281,28.5234375 C53.6113281,28.1796858 53.6972648,27.8916027 53.8691406,27.6591797 C54.0410165,27.4267567 54.2666002,27.2431647 54.5458984,27.1083984 C54.8251967,26.9736321 55.145506,26.8759769 55.5068359,26.8154297 C55.8681659,26.7548825 56.2363262,26.7246094 56.6113281,26.7246094 C56.7558601,26.7246094 56.8857416,26.7265625 57.0009766,26.7304688 C57.1162115,26.734375 57.2255854,26.7402343 57.3291016,26.7480469 C57.4326177,26.7558594 57.5371088,26.7656249 57.6425781,26.7773438 C57.7480474,26.7890626 57.8632806,26.8027343 57.9882812,26.8183594 L57.9882812,26.4257812 C57.9882812,26.1601549 57.9306646,25.9414071 57.8154297,25.7695312 C57.7001947,25.5976554 57.5585946,25.4619146 57.390625,25.3623047 C57.2226554,25.2626948 57.0468759,25.192383 56.8632812,25.1513672 C56.6796866,25.1103514 56.5234381,25.0898438 56.3945312,25.0898438 C55.9882792,25.0898438 55.613283,25.1445307 55.2695312,25.2539062 C54.9257795,25.3632818 54.6054702,25.5097647 54.3085938,25.6933594 L53.9453125,25.0898438 C54.2734391,24.890624 54.6415995,24.7275397 55.0498047,24.6005859 C55.4580099,24.4736322 55.9062476,24.4101562 56.3945312,24.4101562 C56.6914077,24.4101562 56.983397,24.4482418 57.2705078,24.5244141 C57.5576186,24.6005863 57.8154285,24.7177726 58.0439453,24.8759766 C58.2724621,25.0341805 58.4550774,25.2421862 58.5917969,25.5 C58.7285163,25.7578138 58.796875,26.0664045 58.796875,26.4257812 L58.796875,30 L57.9882812,30 L57.9882812,29.0859375 C57.8476555,29.2617196 57.6884775,29.416015 57.5107422,29.5488281 C57.3330069,29.6816413 57.1464854,29.7900386 56.9511719,29.8740234 C56.7558584,29.9580082 56.5605479,30.0224607 56.3652344,30.0673828 C56.1699209,30.1123049 55.9843759,30.1347656 55.8085938,30.1347656 C55.0859339,30.1347656 54.5390644,29.9960951 54.1679688,29.71875 C53.7968731,29.4414049 53.6113281,29.0429713 53.6113281,28.5234375 Z M55.8085938,29.4492188 C56.1445329,29.4492188 56.4462877,29.3994146 56.7138672,29.2998047 C56.9814467,29.2001948 57.2089834,29.0761726 57.3964844,28.9277344 C57.5839853,28.7792961 57.7294917,28.6210946 57.8330078,28.453125 C57.936524,28.2851554 57.9882812,28.1328132 57.9882812,27.9960938 L57.9882812,27.4804688 C57.7265612,27.4414061 57.4755871,27.4199219 57.2353516,27.4160156 C56.995116,27.4121094 56.7871103,27.4101562 56.6113281,27.4101562 C56.3222642,27.4101562 56.0439467,27.4296873 55.7763672,27.46875 C55.5087877,27.5078127 55.2753916,27.5712886 55.0761719,27.6591797 C54.8769521,27.7470708 54.7167975,27.8613274 54.5957031,28.0019531 C54.4746088,28.1425788 54.4140625,28.3164052 54.4140625,28.5234375 C54.4140625,28.7539074 54.5263661,28.9658193 54.7509766,29.1591797 C54.9755871,29.35254 55.3281226,29.4492188 55.8085938,29.4492188 Z M65.4882812,28.4882812 C65.4882812,28.8085954 65.4082039,29.0742177 65.2480469,29.2851562 C65.0878898,29.4960948 64.8818372,29.6640619 64.6298828,29.7890625 C64.3779284,29.9140631 64.0966812,30.0029294 63.7861328,30.0556641 C63.4755844,30.1083987 63.1718765,30.1347656 62.875,30.1347656 C62.3789038,30.1347656 61.8847681,30.0625007 61.3925781,29.9179688 C60.9003882,29.7734368 60.4746112,29.5839855 60.1152344,29.3496094 L60.4726562,28.6582031 C60.875002,28.9121106 61.2714824,29.1074212 61.6621094,29.2441406 C62.0527363,29.3808601 62.4570292,29.4492188 62.875,29.4492188 C64.0820373,29.4492188 64.6855469,29.1367219 64.6855469,28.5117188 C64.6855469,28.3593742 64.6357427,28.235352 64.5361328,28.1396484 C64.4365229,28.0439448 64.3027352,27.9658206 64.1347656,27.9052734 C63.966796,27.8447263 63.7744151,27.7968752 63.5576172,27.7617188 C63.3408192,27.7265623 63.1132824,27.6933595 62.875,27.6621094 C62.570311,27.6191404 62.2675796,27.5683597 61.9667969,27.5097656 C61.6660141,27.4511716 61.3916028,27.3632818 61.1435547,27.2460938 C60.8955066,27.1289057 60.6962898,26.9726572 60.5458984,26.7773438 C60.3955071,26.5820303 60.3203125,26.3242204 60.3203125,26.0039062 C60.3203125,25.7304674 60.3896477,25.4941416 60.5283203,25.2949219 C60.6669929,25.0957021 60.8525379,24.9296882 61.0849609,24.796875 C61.317384,24.6640618 61.5898422,24.5664066 61.9023438,24.5039062 C62.2148453,24.4414059 62.5390608,24.4101562 62.875,24.4101562 C63.3554712,24.4101562 63.7851544,24.4658198 64.1640625,24.5771484 C64.5429706,24.6884771 64.8847641,24.8476552 65.1894531,25.0546875 L64.8671875,25.6816406 C64.5546859,25.4628895 64.2382829,25.3095708 63.9179688,25.2216797 C63.5976546,25.1337886 63.2500019,25.0898438 62.875,25.0898438 C62.7070304,25.0898438 62.5205088,25.104492 62.3154297,25.1337891 C62.1103505,25.1630861 61.9199228,25.2138668 61.7441406,25.2861328 C61.5683585,25.3583988 61.420899,25.4521479 61.3017578,25.5673828 C61.1826166,25.6826178 61.1230469,25.8281241 61.1230469,26.0039062 C61.1230469,26.1562508 61.1728511,26.2783199 61.2724609,26.3701172 C61.3720708,26.4619145 61.5058585,26.5380856 61.6738281,26.5986328 C61.8417977,26.65918 62.0341786,26.7070311 62.2509766,26.7421875 C62.4677745,26.7773439 62.6953113,26.8105467 62.9335938,26.8417969 C63.2304702,26.8847658 63.5302719,26.9355466 63.8330078,26.9941406 C64.1357437,27.0527347 64.4111316,27.1386713 64.6591797,27.2519531 C64.9072278,27.3652349 65.1074211,27.5195303 65.2597656,27.7148438 C65.4121101,27.9101572 65.4882812,28.1679671 65.4882812,28.4882812 Z M67.5273438,27.5507812 C67.5859378,28.1289091 67.7968732,28.589842 68.1601562,28.9335938 C68.5234393,29.2773455 68.9960908,29.4492188 69.578125,29.4492188 C69.9882833,29.4492188 70.353514,29.3652352 70.6738281,29.1972656 C70.9941422,29.029296 71.2343742,28.8203138 71.3945312,28.5703125 L71.9570312,28.9570312 C71.6835924,29.3398457 71.3574238,29.6318349 70.9785156,29.8330078 C70.5996075,30.0341807 70.1328153,30.1347656 69.578125,30.1347656 C69.1562479,30.1347656 68.769533,30.0644538 68.4179688,29.9238281 C68.0664045,29.7832024 67.7626966,29.5869153 67.5068359,29.3349609 C67.2509753,29.0830066 67.0527351,28.7832049 66.9121094,28.4355469 C66.7714837,28.0878889 66.7011719,27.701174 66.7011719,27.2753906 C66.7011719,26.8613261 66.7646478,26.4794939 66.8916016,26.1298828 C67.0185553,25.7802717 67.2021472,25.4775403 67.4423828,25.2216797 C67.6826184,24.965819 67.9746077,24.7666023 68.3183594,24.6240234 C68.6621111,24.4814446 69.0468729,24.4101562 69.4726562,24.4101562 C69.9375023,24.4101562 70.3437483,24.4882805 70.6914062,24.6445312 C71.0390642,24.800782 71.3291004,25.0166002 71.5615234,25.2919922 C71.7939465,25.5673842 71.9658198,25.8964825 72.0771484,26.2792969 C72.1884771,26.6621113 72.2441406,27.0859352 72.2441406,27.5507812 L67.5273438,27.5507812 Z M71.3945312,26.8652344 C71.3046871,26.2675751 71.0878923,25.8222671 70.7441406,25.5292969 C70.4003889,25.2363267 69.976565,25.0898438 69.4726562,25.0898438 C69.2148425,25.0898438 68.9765636,25.1318355 68.7578125,25.2158203 C68.5390614,25.2998051 68.345704,25.4199211 68.1777344,25.5761719 C68.0097648,25.7324227 67.8691412,25.9208973 67.7558594,26.1416016 C67.6425776,26.3623058 67.5703127,26.6035143 67.5390625,26.8652344 L71.3945312,26.8652344 Z M78.4492188,27.2753906 C78.4492188,27.7089865 78.4013677,28.1015607 78.3056641,28.453125 C78.2099605,28.8046893 78.0615244,29.1044909 77.8603516,29.3525391 C77.6591787,29.6005872 77.4042984,29.7929681 77.0957031,29.9296875 C76.7871078,30.0664069 76.4218771,30.1347656 76,30.1347656 C75.5742166,30.1347656 75.2080093,30.0664069 74.9013672,29.9296875 C74.594725,29.7929681 74.3427744,29.6005872 74.1455078,29.3525391 C73.9482412,29.1044909 73.8017583,28.8027362 73.7060547,28.4472656 C73.6103511,28.0917951 73.5625,27.6972678 73.5625,27.2636719 L73.5625,22.3535156 L74.3652344,22.3535156 L74.3652344,27.2753906 C74.3652344,27.5058605 74.385742,27.7499987 74.4267578,28.0078125 C74.4677736,28.2656263 74.547851,28.4999989 74.6669922,28.7109375 C74.7861334,28.9218761 74.9521474,29.0976555 75.1650391,29.2382812 C75.3779308,29.378907 75.6562483,29.4492188 76,29.4492188 C76.3437517,29.4492188 76.6240224,29.378907 76.8408203,29.2382812 C77.0576183,29.0976555 77.2255853,28.9218761 77.3447266,28.7109375 C77.4638678,28.4999989 77.5429686,28.2656263 77.5820312,28.0078125 C77.6210939,27.7499987 77.640625,27.5058605 77.640625,27.2753906 L77.640625,22.3535156 L78.4492188,22.3535156 L78.4492188,27.2753906 Z M84.9882812,25.3066406 C84.6992173,25.1621087 84.3554707,25.0898438 83.9570312,25.0898438 C83.6289046,25.0898438 83.3359388,25.1601555 83.078125,25.3007812 C82.8203112,25.441407 82.6015634,25.6259754 82.421875,25.8544922 C82.2421866,26.083009 82.1044927,26.3447251 82.0087891,26.6396484 C81.9130855,26.9345718 81.8652344,27.2382797 81.8652344,27.5507812 L81.8652344,29.3144531 L83.1015625,29.3144531 L83.1015625,30 L79.8261719,30 L79.8261719,29.3144531 L81.0625,29.3144531 L81.0625,25.2246094 L79.8261719,25.2246094 L79.8261719,24.5390625 L81.8652344,24.5390625 L81.8652344,25.9101562 C82.2324237,24.9101512 82.9296824,24.4101562 83.9570312,24.4101562 C84.2343764,24.4101562 84.4755849,24.4277342 84.6806641,24.4628906 C84.8857432,24.4980471 85.076171,24.5605464 85.2519531,24.6503906 L84.9882812,25.3066406 Z M90.7421875,30 L87.4667969,30 L87.4667969,29.3144531 L88.703125,29.3144531 L88.703125,23.0390625 L87.4667969,23.0390625 L87.4667969,22.3535156 L89.5117188,22.3535156 L89.5117188,29.3144531 L90.7421875,29.3144531 L90.7421875,30 Z" fill="#212121"></path>
                </g>
                <path d="M70,204 L70,242" id="Path-2" stroke="#E0E0E0" stroke-linecap="square"></path>
                <path d="M310,155 L310,271" id="Path-3" stroke="#E0E0E0" stroke-linecap="square"></path>
                <path d="M145,272 L310,272" id="Path-4" stroke="#E0E0E0" stroke-linecap="square"></path>
                <path d="M145,25 L155,25" id="Path-5" stroke="#E0E0E0" stroke-linecap="square"></path>
                <path d="M145,172 L155,172" id="Path-5" stroke="#E0E0E0" stroke-linecap="square"></path>
                <path d="M155,26 L155,171" id="Path-6" stroke="#E0E0E0" stroke-linecap="square"></path>
                <path d="M156,98.5 L253,98.5" id="Path-7" stroke="#E0E0E0" stroke-linecap="square"></path>
                <polygon id="Triangle" fill="#E0E0E0" points="310 153 314 161 306 161"></polygon>
                <polygon id="Triangle" fill="#E0E0E0" transform="translate(251.000000, 98.500000) rotate(90.000000) translate(-251.000000, -98.500000) " points="251 94.5 255 102.5 247 102.5"></polygon>
                <polygon id="Triangle" fill="#E0E0E0" points="70 202 74 210 66 210"></polygon>
            </g>
        </g>
    </g>
</svg>